<mxfile host="65bd71144e">
    <diagram name="Page-1" id="Z-5K-GkwKAq6ghIq1a3g">
        <mxGraphModel dx="1910" dy="1580" grid="1" gridSize="10" guides="1" tooltips="1" connect="1" arrows="1" fold="1" page="1" pageScale="1" pageWidth="827" pageHeight="1169" math="0" shadow="0">
            <root>
                <mxCell id="0"/>
                <mxCell id="1" parent="0"/>
                <mxCell id="Y93IXhU7RU3gVVPv7BcZ-10" value="AWS Cloud" style="points=[[0,0],[0.25,0],[0.5,0],[0.75,0],[1,0],[1,0.25],[1,0.5],[1,0.75],[1,1],[0.75,1],[0.5,1],[0.25,1],[0,1],[0,0.75],[0,0.5],[0,0.25]];outlineConnect=0;gradientColor=none;html=1;whiteSpace=wrap;fontSize=12;fontStyle=0;container=0;pointerEvents=0;collapsible=0;recursiveResize=0;shape=mxgraph.aws4.group;grIcon=mxgraph.aws4.group_aws_cloud_alt;strokeColor=#0000FF;fillColor=none;verticalAlign=top;align=left;spacingLeft=30;fontColor=#232F3E;dashed=0;" parent="1" vertex="1">
                    <mxGeometry x="-480" y="-1080" width="280" height="120" as="geometry"/>
                </mxCell>
                <mxCell id="Y93IXhU7RU3gVVPv7BcZ-4" value="" style="rounded=0;whiteSpace=wrap;html=1;fillColor=none;dashed=1;strokeWidth=2;" parent="1" vertex="1">
                    <mxGeometry x="-720" y="-1080" width="200" height="120" as="geometry"/>
                </mxCell>
                <mxCell id="Y93IXhU7RU3gVVPv7BcZ-7" style="edgeStyle=orthogonalEdgeStyle;rounded=0;orthogonalLoop=1;jettySize=auto;html=1;startArrow=none;startFill=0;endArrow=none;endFill=0;" parent="1" source="Y93IXhU7RU3gVVPv7BcZ-1" target="Y93IXhU7RU3gVVPv7BcZ-3" edge="1">
                    <mxGeometry relative="1" as="geometry"/>
                </mxCell>
                <mxCell id="Y93IXhU7RU3gVVPv7BcZ-1" value="CloudFlare" style="shape=image;verticalLabelPosition=bottom;labelBackgroundColor=default;verticalAlign=top;aspect=fixed;imageAspect=0;image=data:image/png,iVBORw0KGgoAAAANSUhEUgAACAAAAAgACAYAAACyp9MwAAAABGdBTUEAALGPC/xhBQAAACBjSFJNAAB6JgAAgIQAAPoAAACA6AAAdTAAAOpgAAA6mAAAF3CculE8AAAAB3RJTUUH5QEfAR8NDW5W/AAAAAZiS0dEAAAAAAAA+UO7fwABQkxJREFUeNrs3QmYZWV54HHoptkaFNlcQHkzoCARXMaIW+ISt4xLogRnnIhGR4N7Zkyio4z6nUbiEh3NxBBR1LgNTtSoY8RoNK5RoxEUiAuCjoCBRkE451Td7qarat6v+miQoDRNVfW9t37/5/k9t/GJeRK66p7vfc9ddtlFkiRJkqRV3kKJXWeb2L3bEHtXbRO36Jo46GeUOCzF9Ryejr6eY/oSj8r/zpOv55nptekNP6PEu9Pn05d3VFvi8nycTwtLIf/3zeTjV2/C/w2fTmf8m//f/lWTnnID/06elP+937iBf4dHXe/f82H5f9Ntr/v3sfh3NPx91b+7+nfoJ1mSJEmSJEmSJEmSpqhRid37DXFAtyEOSrfpmjgiHV21JX6lK/HAwa+nx6YT0n/qSzw3/2detqjEa9JfXc/X0/nX8/2luunOz5i53r/n89LHr/f38Zqf/H0t/t3l3+Hwd/nY4e928e958e98+Ptf/FmoPxP5s1F/RurPit8YSZIkSZIkSZIkSVqhFkqsmd0Q+3cb4rC2iTt1Tfxaekhb4vFdiSdX+ecX5uPLBq9Kb05vS+9MZ6VPDc5J3xtcmja72T51Ng9/tz/5ez7nOn//Zw0/E28bfkZe9ZOfm/wZ+q/X+Xl6fP0Zqz9riz9z+bNXfwbrz6LfSEmSJEmSJEmSJEm6gfqy+FH79QZrfXf241J9B/dJw03ZV6T3pPde5yb+54Z3g39zuMl7xcCNfJbiUwd+8vN06fAzdt7wM/eTFw+8d/iZfMXwM3rS4s9s/dnd9jN8p/oz7TdbkiRJkiRJkiRJ0tQ0KrFPX2+Iboh79k38VtfEs7oSJ6c31XdftyW+MHy0+7fSd4d3am8cbr5elfo0u5Tfaw9LZH742eyHn9Urhp/d7w0/y/Vn+vzhZ/xtw8/8yfV3YPF3of5O5O9G/R3xTCFJkiRJkiRJkiRpRRqVWNNviD3bJvbpmjgo3aYrEW2JI/Lx6L7Ew/I/e2p6aXpD/mefTGe3295J7UYx3Ijhd+Xsxd+d+ju07XfpqYu/W/k7NvyuxeLvXv4O1t/F+js58lUEkiRJkiRJkiRJkq5fX2K/bsPizcV6o/GYdP/04FQ/iv9J6YXX+Sj+jwzv2r88zbmBC8tqbvhdO3/43fvJVw/U38kntSUem48PSvfL39/69QO/lL/LB9ffac9skiRJkiRJkiRJ0pQ2KrF3tyEO7Zs4rmviEV2JJ6c/GL7D/C/SO4fvN/98uiBd7OYrjL3Nw+9q/cqBT6UPpbcPv9MvG37Hn1x/5xd/9/M5oD4XeEaUJEmSJEmSJEmSJqBuQxyQ6juBH9mVeGo6tS3x1nz8YPrE8FHjFwzfWT5yAxWm2mj4Xb9g+N2vzwEfHJ4TTl18jqjPFfU5I587PINKkiRJkiRJkiRJK9xCiTWbmrhN38QDu2bxnfyvqu/gb0t8OR+/nb6XLktXptm01Y1Q4Dq2Ds8NVw7PFfU549vDc8g7F59T8rmlPsfU55r6nOOZV5IkSZIkSZIkSdrORiV26zbE+q6Jg7sSh7QlDs/HO3f1O76beFZ6zfAd4OcPN+/m3cQEVsD88Jxz/uJzUH0uqs9J9bkpn6OG56pD+iYOrM9hXiwgSZIkSZIkSZKkVVW3IfZrmzi0a+KuXYkHpMf0JZ6e/3xK/vl96XPp+2mLm4/AGNsyPFfV56x353NYk89lJ+afH5Xuk/98TD7f3XpUYk/P/JIkSZIkSZIkSZroFkqs6zfE7fom7l1v8qffSy9Kb0z/J30hfXf4KG43E4Fp0aVvDC8MeEf6k/SC9KSuiYe1TRzdlzjAVUKSJEmSJEmSJElj2UKJPfoNcXjfxCO7Es9oS7x2uMn/d+mc4Ub/VelaNweBVWhz2pi+nf4hnZXekl7eNfGUfO58ULchfsnVRJIkSZIkSZIkSSvaQok9+w1xl76JJ3UlNrQlPpSPX0sXpcuGG/2bhu/OduMP4IZtTTPpR+nSdGH6cnpv18SL8jn2ifW5dsFXCEiSJEmSJEmSJGlHGpXYrdsQ67smbt2VOCwdmX8+vm/iJfnn96XvDO9knXeDH2BZ/eR5dvPw3PvOfC4+OR9/I90pHZrPzwfW5+yFEmtcwSRJkiRJkiRJklZ53YY4uG/iqK7EvdKj+hJP75o4Jf/84XTe8F3WbsQBjJcfpy+l9+RzdpPP3f+5LfGQ/Oe7t00cNltiH1c4SZIkSZIkSZKkKW5LE+u7DXHntsTDurL48f0vTn+Z/i6d62Y/wER/ncC/DF8h8P70p/lc//x8fHy6bz73H5F2cyWUJEmSJEmSJEmawEYl1s40cUjXxK92JZ7RlnhtPn4g/UP6dto43DBy4wxgOs2mS9LX0mfSX6VT8nrwlHptGDVx4EKJXV0xJUmSJEmSJEmSxqxRiT37Jo7pmvidrsQb2hJfzMcLhps/V6VNboYBrHoz6crh2vCtvFZ8ol4z6rWjXkPqtcQVVZIkSZIkSZIkaQXqNize5D+gLXHoTIlfzj//ZtfEK+s7O/M/6/NxfuAmFwA3xeL1Y7iWfKZeW+o1pl5r6jWnXnvqNciVWJIkSZIkSZIkaQfrS9yqb+KIrsS90qO6Jl6Qj+9IXxre1e+mFQDL6arhmvOO4Rr0qHpNqtemeo1ypZYkSZIkSZIkSbqB6vcwzzZxq66Je3Qljm9L/Ld8PD19JJ2bOjeiANjJuuGaVK9Npw/XquPrtatew+q1zBVdkiRJkiRJkiStyroNcWDXxEO7Es9tS5yWj3+TvpK+n2bdaAJgzM0O16x67fqb4Vr23MVrW17jXOklSZIkSZIkSdLU1pe4bd/Ew9sSr+hKfDR9K/0gXZ22uJEEwITbMlzTfjBc4z6a17xX5rXvcfUa6CQgSZIkSZIkSZImpoUSu8w2sXvXxH5diUPSkfnn/5KP70zfSZvT/MCNIgBWg59c9+o18Pz0tuHaeOTitTKvmfXaWa+hkiRJkiRJkiRJO7VRiXVdEwd2JX45Pbwv8ex8fGP6fBq58QMAN2g0XCvfOFw7H754Lc1rar22OmFIkiRJkiRJkqQVqS9xQN/Ev29L/KeuxEvSW9Kn00Y3dABgh2wcrqX1mvqSeo2t19p6zXXykCRJkiRJkiRJS1ZfYl3fxDFdiRPbEq/Lxw+nrwzfcbzZTRsAWFKbh2tsvdZ+eLj2nlivxb1PB5AkSZIkSZIkSTe1bkPctmvi8V2JN6Tz0nfTD9Om4buM3aABgOU3P1x7fzhci89bvDbXa3Req51YJEmSJEmSJEnSYt2G2DXt25W43UyJY7smfjf//K70rTQ33HRwsx8Axu9FAfPDtfri9L/rNXzxWp7X9MVre17jnXQkSZIkSZIkSZry+hJ79E3cvitxn/SErok/ycfPps4NFQCYaN3iNX3btf0J9Vpfr/n12u8EJEmSJEmSJEnSlDQqsW/fxH27svgO/1PTe9M3vbsfAKb6UwK+OVzz67X/d+tZoJ4JnIwkSZIkSZIkSZqgRiXWzjTx77oSx7clXp6P709fG74/eKubIgCwqmwdzgD1LPD+4WxwfD0r1DODk5MkSZIkSZIkSWPWQonduybu2pV4Tvpg+k66PM14pz8AcJ1PBpgZzgjfGc4Mz6lniHqWcKKSJEmSJEmSJGkF60us6ZvYpytxu3Snromn5eOZwyJ/zs1+AGAHXhQwN5wlzhzOFneqZ4165qhnDycwSZIkSZIkSZKWqFGJPfomDulK3C89Ib0yfSaN3LQAAJbBaDhrvHI4e9yvnkXqmcTJTJIkSZIkSZKkm1i3IdZ1TfxyV+KEVNJ70gVps5sSAMAK2jycQd4znElOWDyj5FnFiU2SJEmSJEmSpJ/TQol1M03cpSvxzLbE2/PxC+kSN/0BgDF6MUA9m3yhnlXSU+rZpZ5hnOQkSZIkSZIkScr6EnfvmnhpV+JT6bvpqrTVTQYAYIzVs8qPhrPLp+pZpp5pnOwkSZIkSZIkSauivsTufRMH5OMd+20f7f+mdtu76ObSvBsJAMAEq2eZueFs86Z61lk882w7++zuJChJkiRJkiRJmugWSuw628Q+bYk7pQd1JZ6d3p0udpMAAFgFLh7OPs+uZ6F6Jqpno3pGclKUJEmSJEmSJE1EoxJ7903ctStxYnpd+tjwfbk+1h8AWK1fF3DJcCaqZ6MT61mpnpmcHCVJkiRJkiRJY1fbxJ6pvrPthV2JM9M/psss/AEA/o3LhrPSmfXstHiGyrOUE6UkSZIkSZIkaae1UGL3mSbu3ZV4eVviS8M729r6/bcW+wAAN2puODtdUs9S6UX1bFXPWE6akiRJkiRJkqRla1RiTd/Evl2JO8yUeEA+viZdMCyu5y3wAQButvnhbFXPWK8Zzlx3qGewehZzIpUkSZIkSZIk3az6Egd0Tdw9H09If9KVOM9yHgBgxZxXz2CLZ7Emjq1nMydUSZIkSZIkSdJ215fYpytxr7bE7+Xjm9NXUmcBDwCw09Sz2D+kNw1ntHvVM5uTqyRJkiRJkiTpBmubuH9b4gVdiXenr6YfW7YDAIydHw9ntXfXs1s9wznJSpIkSZIkSdIqb6HEbn0TR7YlnpM+1pW4OLVpq8U6AMDY2zqc3S6uZ7l6pqtnu3rGc9KVJEmSJEmSpCluVGLNTBPruxK3nS1x976JJv98zrA4nrNABwCYeHPD2e6cetbLM9/d8s+3qWfAehZ0IpYkSZIkSZKkCW9UYq++iaO6Er/Zl9iQj59JmyzIAQCm3mz6+HAG/M16JqxnQydkSZIkSZIkSZqgFkqsnW3ikK7Eo9Op6ZPpKktwAIBV66rhTHhKekQ9K9Yzo5OzJEmSJEmSJI1pC9ve7f+w4ab/x9N307UW3gAADLakC4az4qn17LjgUwEkSZIkSZIkaXzqmziyK/Gi9KX0gzRjuQ0AwI2YGc6O9Qz5onqmdLKWJEmSJEmSpBWsbWL3tsSB6fD0h+mzw/e7zltiAwCwg+pZcraeLYcz5uGLZ848ezqBS5IkSZIkSdIS15U4qC1xv/Ss9N70Q4tqAACWQz1rDmfOZ+U/37svcaATuSRJkiRJkiTdjPoS+3Ql7tWW+L18fGv6TrrWUhoAgBVSz57fSG8ZzqT3qmdUJ3VJkiRJkiRJ2o76EtXRXYnfT+9KX00/tnwGAGAn+/FwNq1n1N+vZ9Z6dpUkSZIkSZIkXa9RiX37Jh7aljizK3FhujpttWgGAGDMbB3OqvXMekY9w9azrBO9JEmSJEmSpFVb28SebYmDZ0o8oCvx5+nyNJfmLZUBAJgQ88MZtp5l/7yebesZt551nfglSZIkSZIkTXV9ibVdidu2Je6bnp8+YmkMAMA0qWfc4ax73zz/HjwqscYkIEmSJEmSJGlqWiixrm/i2K7Ec9K70wVpiwUxAABTastw5n1benaehY+qZ2KTgSRJkiRJkqSJrW3iVl2J49Pp6YvpGstgAABWmXoG/txwJj6+npFNCpIkSZIkSZImpr7EL7UlXpu+Onwfqnf7AwDgUwHybDyckTfUM7PJQZIkSZIkSdJYtVBiTd/Efn2JI9NTuxKfTaM0b8kLAAA3aC7NpI/lWfqJMyUOXzxTN2HAkCRJkiRJkrTydSX2bkvcOR8fm96cvmORCwAAO6Sepd+c5+tHtNteWLuniUOSJEmSJEnSsjYqsctMiVt3TTy6K/Hy9Ml0tYUtAAAsiXq2/rtU0iNmSxxcz+CSJEmSJEmStKS1TRzelXhG+mj6btpsQQsAAMuinrUvSGelZ/VNHG0ikSRJkiRJknSzGpVY15e4T1vitK7E19NVlrEAALCi6hn8W3kmP6OezesZ3aQiSZIkSZIk6UYblVjTl9i3LXFY38QzuxLnpK1p3uIVAAB2qvnhbH5OPasvntnz7F7P8CYZSZIkSZIkST+tb6KqH/H/yPTa9L00Z8kKAABjaW44s9ez+yPrWb6e6SVJkiRJkiSt4kYl9uxK3LMt8Zx8/EjaaJkKAAATpZ7hPzKc6e9Zz/gmHUmSJEmSJGkV1TexvitxfPqL9JXUW5wCAMBE64ezfT3jH1/P/CYfSZIkSZIkaYobldi/K3FSW+JL+Xh52mxRCgAAU6We8S8fzvwn1RnAJCRJkiRJkiRNQX2J3bsSh86UeEQ+vjVdMXxfqMUoAABMv7lhBqizwAPSbUYldjMpSZIkSZIkSRNU38QtuxL3Ss9uS3wxHzdZfgIAwKpWZ4K/70s8JR/vUWcGk5MkSZIkSZI0po1K7DJT4rZdiRPS69N56VqLTgAA4Dq2pLOHmeGEOkPUWUKSJEmSJEnSmFQ/5r9+v2f6aLokbbXYBAAAfoGtw+zw0WGWONRkJUmSJEmSJO2kFkqsGTVxeFfilHROutISEwAA2AFXDjPFKXXGqLOGiUuSJEmSJEla5roS69JBfYn75+N72xJtPs5ZWAIAAEtgbpgx3jvMHAfVGcQkJkmSJEmSJC1RCyV22dzE3l2Ju6Snpg+mkeUkAACwjEbD7FFnkLvUmaTOJpIkSZIkSZJ2sFFZvPH/q+nl6XNu/AMAADvhhQCfG2aSX60ziklNkiRJkiRJugl1JW6RHpPOSOemLRaPAADATrRlmE3OGGaVW5jcJEmSJEmSpF/QfIl9uiZ+t932Dpt/ceMfAAAYwxcC/MvizJKzS51hTHKSJEmSJEnSLovv9F+TbtmXOCYfX9aW+H4+brVUBAAAJsDWYYZ52TDT3LLOOCY9SZIkSZIkraoWSqztmzikLfFbXYnT0qWWhwAAwASrM81pdcaps06deUx+kiRJkiRJmupGJdb1TRzZlTgpvTtdY1EIAABMkWuGWeekOvvUGcgkKEmSJEmSpKlqVGKXvsQRXYmSPpOuTPOWgwAAwBSaH2aeOvuUOgvVmUiSJEmSJEma+LptN/5fm76dOstAAABgFemGWWhDnY1MiJIkSZIkSZqo5kus6Zq4VVfi19Jb0xVpzuIPAABYxeaG2eiti7NSzkx9EwZISZIkSZIkjWcLJdb2Tdy+L/FbXYm3D999adEHAADws+qs9Pa2xMPrDFVnKROlJEmSJEmSxqJRibVdiTump6X3pKss9AAAAG7UVcMMVWepO468EECSJEmSJEk7s7qkakv8YT5+Ov3IR/0DAADc5K8GqLPUp4fZ6o4mTUmSJEmSJK1oXYlD0snp3HS1pR0AAMDNdvUwY9VZ6xCTpyRJkiRJkpalhRJruib260rcLb0pXend/gAAAMv2qQBXDrPX3eosVmcyk6kkSZIkSZJuVqMSu/VN3LYv8fCuxBnttiWUhRwAAMAKGGawM+pMVmezOqOZVCVJkiRJknSTGpXYpd/2Mf9PTe9Kl6Z5CzgAAIAVNz/MZHU2e2qd1erMJkmSJEmSJN1oXYlD0zPS36aNlm0AAABjY+Mwq9WZ7VATrCRJkiRJkm6wrsQB6Vnpi52P+gcAABhnVw6zW53hDjDRSpIkSZIkqd703z3dLj0vfTNttUgDAACYGFuHWa7OdLfvm9jLpCtJkiRJkrTK6krskY5KJw3vGrE4AwAAmGznpxele/RNrDf5SpIkSZIkTXl9E7um47oSL0x/n2YsyQAAAKbGlnR2arom7lNnQJOwJEmSJEnSFNY3cXRb4tSuxFdTbzEGAAAwtTbVFwLkDPjKnAXvv1BinalYkiRJkiRpCuqbOLQrcUo6L81ahAEAAKwadQa8sC3xxpkmjlkosdaULEmSJEmSNGH1TezVljisK/HKfLw8H+csvgAAAFatuZwNr+ma+MuZEsfmzLjvQvH1AJIkSZIkSWNbXd7MNHGrtsRxXYkX5eNFllwAAABcV86KG/PxtekBdYb0QgBJkiRJkqQxa2uJPbsmHtGV+NP0jbTFYgsAAICfY2v6zuIMmbNknSlN1pIkSZIkSTu5hRLr+ibu35U4LX07XWuRBQAAwHa6dpglT6uzZZ0xTdqSJEmSJEkr3EKJtTNNHNOWeGNX4sK02eIKAACAHVRnygvrjFlnzTpzmrwlSZIkSZKWub6JvWZKHNM18ZdtiWu6EnMWVQAAACyRucVZM2fOOnvmDLreJC5JkiRJkrTE1aVLV+Ie6UVticsspQAAAFhOOXteno9NnUW9EECSJEmSJGkJ6pvYtWviPsPS5ey0xSIKAACAFbJlmEWbOpvWGdWkLkmSJEmStAN1JW7fltgwLFs2WTwBAACwk9SZ9OycUU/tmzjaxC5JkiRJkrSddSUOSM9KX0wzFk0AAACMidl0Xjqlb+JQE7wkSZIkSdIN1JXYPd0uPS99M21N85ZLAAAAjKGtbYnL8/EPhll2d5O9JEmSJEla9Y1K7NaVuEN6WvqSJRIAAAATps6yJ6Wj0h4mfUmSJEmStOoaldi1L3FIV+Kp6f3paksjAAAAJlT9+rq/T8+os26deU3+kiRJkiRpVTQqcYu2xIldiY+mjRZFAAAATIk64360zrx19rUBkCRJkiRJU9tCiXV9E7/alfhwusJiCAAAgClVZ96Pp/9QZ2EbAUmSJEmSNDV1Tew3U+JBXYkPpD7NWwYBAAAw5eaHGfgDizNxzsY2BJIkSZIkaWLrm7hlW+LeXYkz8nHW8gcAAIDVaJiJ62x87zor2xhIkiRJkqSJqSuxe7pnOjVdkOYsfAAAAFjl5oYZ+dRhZt7dBkGSJEmSJI11syUO6kq8In1l+KhDSx4AAAD4V/0wM7+iztA2CZIkSZIkaexaKLFHV+JJ6R/TjIUOAAAA/EIzwwz9pDpT2yxIkiRJkqSdWt/ELjNNHNiXeGxb4lNdiZEFDgAAANwkozpT19l6ccbOWVuSJEmSJGlF60rcoi3xwHx8V9pkYQMAAAA3S52t3zXM2reweZAkSZIkScteV2J9+rX6XYXpUgsaAAAAWFKXDjP3/foSe9pESJIkSZKkJW9UYte+xB27Ei9P53rXPwAAACzrpwF8LW2os3idyW0mJEmSJEnSkrRQYq+uiSd3Jb6VOosYAAAAWBHd4iyeM3mdzW0oJEmSJEnSDtU3sbYrcUDXxBPaEmfnnzdbvAAAAMBOsTln8y/njP64OqvXmd3mQpIkSZIkbVddif3TI9OH0oxFCwAAAIyFmWFWrzP7/jYYkiRJkiTp5zYqsWdX4iHpDelSixUAAAAYS3Vm/7P0a3WWt9GQJEmSJEk/baHEmpkmjuhKnJK+mbZapgAAAMBYuzadW2f5OtPX2d6GQ5IkSZKkVV793sCuiad3Jb6WOgsUAAAAmCjd4kyfs32d8W06JEmSJElaZY1KrOlK7Dt83P9Zw7sGLE0AAABgsj8R4Kxh1t9nocSuNiCSJEmSJE15XRN7diXul/40/dCCBAAAAKZKnfVfk46rOwCbEEmSJEmSprS2xOHpRV2Jr3vXPwAAAEz1pwF8fdgB3N5GRJIkSZKkKWpUYn0O/E9Mf5tmLUIAAABgVag7gA/XnUDdDdiQSJIkSZI0wS2UWDtT4t/noP+/08Y0Z/kBAAAAq8rcsBN4+0wTx9ZdgY2JJEmSJEkTVA71u9eP+Euvbktc7cY/AAAAeCHAsCN4dTqk7g5sUCRJkiRJGuNGJXbLAf4O6WnpXMsNAAAA4Ab847A7OHShxBobFUmSJEmSxqyuiX1ycD8h/Z9u2yv6LTQAAACAn6fuDt6dHld3CjYrkiRJkiSNSW2Ju6U359D+vbTVEgMAAADYDnWH8L1hp3CUDYskSZIkSTuxUYlb5ID+h+mf0xaLCwAAAGAH1J1C/SrBP6y7BhsXSZIkSZJWqLbELn2J/dPjczD/p3StRQUAAACwBOqO4Z/qzqHuHuoOQpIkSZIkLVOjEnvkIH5cDuBn5OMmiwkAAABgGWwadg/H1V2EjYwkSZIkSUtc10Tk4P3f0vkWEQAAAMAKOH9xF9FE2MxIkiRJkrQUN/5L7NWWeEw+fihdY/kAAAAArKC6i/jQsJvYy6ZGkiRJkqQdbEuJW3XbPnLv0rTV0gEAAADYCepO4tK2xP+quwobG0mSJEmStrO+xJocqvfvm3hKDtYX5Z/nLBoAAACAcXghQN1V1J1F/nm/usOwyZEkSZIk6QZaKLHLbIl9c4B+SHpvmrFYAAAAAMZQm95Vdxh1l1F3GpIkSZIk6Tq1Je6Yg/Mr0gUWCQAAAMAEqDuMDW2JI2x2JEmSJEnKRiXW57D8xPSxtMXyAAAAAJggs+lv626j7jhseiRJkiRJq7auiSNzQH572pjmLA0AAACACVR3Gj9oS7yp7jpsfCRJkiRJq6aFErvmQHxwDsZ/kC5z4x8AAACYEluHXccf1N1H3YHYBEmSJEmSpra+if37Eg/JQfj/WgoAAAAAU+z/1h1I3YXYCEmSJEmSpuvGf4l1OfjeNb0qXZLmLQIAAACAKTY/7EDqLuSudTdiQyRJkiRJmviuLbFvDrrPTV9IvQUAAAAAsIr0w07kuXVHYlMkSZIkSZrYcrg9oi3xnny80sAPAAAArGJXDjuSI2yMJEmSJEkTUw6za2ZK3LovcVIOtRemOUM+AAAAwOKO5MK6M6m7k7pDsUmSJEmSJI1tW0rskYPsQ3OA/UA+bjHYAwAAAPwbW4bdyUPrLsVGSZIkSZI0duXgerscXJ+fLjLIAwAAANyoukN5ft2p2CxJkiRJksaiUYk9c1h9ZPqr1BneAQAAALZb3aWc2Zd4WN2x2DRJkiRJknZafRMH5JC6YXjF+rWGdgAAAICb/pUA6cK6Y6m7FhsnSZIkSdKK1jWxT1/ifjmY/pMb/wAAAABLou5Y/qnuXPom9raBkiRJkiQtazmArstB9Kj0irbEDw3mAAAAAEurLXFFPr6s7mDqLsZGSpIkSZK05HVN7JuD5++kT6VNBnIAAACAZbNp2MH8Tt3J2ExJkiRJkpasvkTkwPln6WIDOAAAAMCKqbuYP6u7GRsqSZIkSdLNaqHEHjlknpC+kkaGbgAAAIAVNxp2MyfUXY2NlSRJkiTpptz032W2xO45VN6lLfG2fLwmzRu2AQAAAHaaupu5ZtjV3KXubuoOR5IkSZKkX1gOkrfpSzw1h8mzDdcAAAAAY+fsYXdzoE2WJEmSJOkGWyixWw6O909npNYwDQAAADC26u7mz9oSx9Wdjs2WJEmSJOmn5cC4X7ftleP1++S2GqIBAAAAxt616QvDTmc/Gy5JkiRJWuUtlNh1tsThOSSenq5Ic4ZnAAAAgIkxN+x0Tq87nrrrsfGSJEmSpFVYDob7phPaEt/3rn8AAACAiVZ3O99Mv9E1sd7mS5IkSZJWSX2JdTkMHpVen2YNyAAAAABTYya9ou5+6g7IJkySJEmSpriuWXzX/++kT6VNhmIAAACAqbNp2P38x96nAUiSJEnSdNaXiBz8/le62CAMAAAAMPW+m141W+LWNmOSJEmSNE03/5t4YA58X0ojwy8AAADA6vlKgLbEx+tuyIZMkiRJkib7pv/avsQdctA7JW1M84ZeAAAAgFWn7oR+kF4wU+LWbYk1NmeSJEmSNEHNllifQ92j0yfSFoMuAAAAwKq3pS3xgXx86JYSe9igSZIkSdIElIPc7XKQe3G61GALAAAAwPVclJ6fDrJJkyRJkqQxbaHEbn2JB+XwdmbqDLMAAAAA/Bxtektf4l51p2SzJkmSJEljVA5s69sST8/H833kPwAAAADbYXP62rBTWm/DJkmSJEk7ub7EbjmgHZbeNwxt84ZXAAAAALbT/OJOqYl35OMdep8GIEmSJEk76eZ/E/vnYPbb6VzDKgAAAAA303npP9adk82bJEmSJK1QCyXW9CWOyIHsj9Ml3vUPAAAAwBK5Ir2qL3Fk3UHZxEmSJEnSMpYD2Jr04HRWag2lAAAAACyxPn2sLfEf0lobOUmSJElahhZK7JXD13PS99KcYRQAAACAZVJ3T99Pz7aVkyRJkqQlrG9iXV/i2By43pNmDKAAAAAArJC6izoz3aUvsc6mTpIkSZJ2sIUSu8yW2C8HrBPTuQZOAAAAAHaCremL6fGzJW5Zd1aSJEmSpJtYW+JOOVi9Nl1h0AQAAABgJ/tBOjUdZnMnSZIkSdvZQondc5D69XRW2mK4BAAAAGBMzKYPdE3cxxZPkiRJkm6kvsQtc4h6XvrnNGeoBAAAAGAMvxLgnPS7oxJ72+hJkiRJ0vXaXGJtDk3HpvemzWneMAkAAADAmKq7q64tcVq6Y91t2fBJkiRJUpbD0r59icfl44WGRwAAAAAmzJdnSjyi92kAkiRJklb9zf8mIoekl6QrDYsAAAAATKiL0h/1TRxq4ydJkiRp1TUqsa4v8YAcjN6XWkMiAAAAABPu6vSuvsSvLJRYYwMoSZIkaVXUltgtnZgD0TfSFsMhAAAAAFNiczovHZ/W2gRKkiRJmtr6HHpGJW6fw8/r0yYDIQAAAABTqu6+XpcO6L0QQJIkSdIU3vxfnwPPw9In01ZDIAAAAABTbuuwC3tY3Y3ZEEqSJEma+BZK7DJT4uAcdJ6Xzk9zhj8AAAAAVom5YSf2vLojq7sySZIkSZrY+hL/Lgec09NGAx8AAAAAq1TdjZ1ed2U2hpIkSZIm9eb/ce22jzkbGfIAAAAAWOVGdVdWd2Y2h5IkSZIm5ab/rqMS++dA85z0/9K84Q4AAAAAFs0PO7Pn1B1a3aXZKEqSJEka15v/a3J4OSadlq420AEAAADADbp62KEdU3dqNouSJEmSxqqFEuvaEo/IoeXjaYshDgAAAAB+obpD+3hb4uG2i5IkSZLGplGJ9X2Jk3JgOd/gBgAAAAA3Sd2p/Ze6Y7NplCRJkrRTa0vcNr0qh5TLhu8wM7QBAAAAwParO7XL6o6t7tpsHCVJkiSteJtLrM3B5FfSJ9K1BjUAAAAAuFmuHXZt96y7NxtISZIkSStSDiH79iWOz8cfGMwAAAAAYEld2Jd4XN3B2URKkiRJWt6b/01EDh8vSVcaxgAAAABgWdTd28l9E4faSEqSJEla8hZKrOlL3D0Hj3em1hAGAAAAAMvq6vSXdSdXd3M2lJIkSZKWpBwy1qaH5MDx2TQyfAEAAADAiqi7uM/W3Vzd0dlUSpIkSbpZ5YCxT3puW+JH+Thn6AIAAACAFTU37OaeW3d1NpaSJEmSbnLDR/4fnkPF673rHwAAAADG4tMAXl93dr4SQJIkSdJ2l4PEHumB6W/SJsMVAAAAAIyFTcPO7v59iXU2mZIkSZJ+YX0T69KTc4j4WtpqqAIAAACAsVJ3dl/tmzix7vJsNCVJkiTdYAsl9srh4ZR0mUEKAAAAAMbaZW2J/153ejabkiRJkn5aDgq75cBwdDozzRqeAAAAAGAizA47vaPrjs+mU5IkSVrl5XCwd3pUDgif9ZH/AAAAADB5Xwkw7PYeVXd9Np6SJEnSKm1ziX1yKPj9dIFBCQAAAAAmWt3xPbPu/Gw+JUmSpFVWX+LgHAhenX5kOAIAAACAqXBZ2lB3fzagkiRJ0iqpLXFEekcOA72hCAAAAACmyjV191d3gDahkiRJ0pS2UGKX2RK7d008OIeAL9TvBjMMAQAAAMBU2rq4A2ziwXUnWHeDkiRJkqaovsR+6Wl58L/IAAQAAAAAq8JFdSdYd4M2pJIkSdKU1Ja4XTolD/w/NPQAAAAAwKryw7bEhnw8yKZUkiRJmvD6Jo7Mw/0ZqTPsAAAAAMCqVHeDf1F3hTamkiRJ0gS2UGJtX+K+ebD/SBoZcgAAAABgVas7wo/UnWHdHdqgSpIkSRNSHuL3Tk+o3/GV5gw3AAAAAMCwK7yo7g7rDtEmVZIkSRr3m/9N3DoP8S9oS8waaAAAAACA6xt2hy/oSxxooypJkiSNaXlwv3Me3N+QNhlkAAAAAIAb+UqA/1l3ijarkiRJ0hi1UGJNX+JX8sD+gTRjeAEAAAAAtkPdJX6g7hbrjtGmVZIkSdrJ5eF8bXpIHtQ/nzYbWgAAAACAm6DuFD9fd4x112jjKkmSJO28m/975uH88W2JH+bjnGEFAAAAANgBc3XHmJ7SN7GXzaskSZK0wuWh/Nbp+T7yHwAAAABYIrPp5LbEbW1gJUmSpBWofhdXX+KIPIi/Pv3YUAIAAAAALKFr0pv7EkfXXaSNrCRJkrRMjfLAPVPirnkA/6vUGkYAAAAAgGUwSh9J9+m9CECSJElanvLAfWxb4qv5uNkQAgAAAAAso2vbEl9Pv24zK0mSJC3ljf8m9uxL/HYeti/Kg/e84QMAAAAAWAF1F3lF38ST2hJ729RKkiRJN6OFErv2JQ7KQ/Z/TZcZOAAAAACAneDKtkTTl7hN3Vna3EqSJEk7cPN/tsQd8nD9P9PlhgwAAAAAYCe6Ov15X+LOaY0NriRJknQTykP0EXmgfl/qDRcAAAAAwBjo2xJn5eMdbXAlSZKk7SwP0cemT+RBequhAgAAAAAYI3Vn+aW+xHE2uZIkSdIvvvG/R9/Eo/IA/c9pzjABAAAAAIyh+fTtronfrjtNm11JkiTpOi2U2GWmxK3y0Py8dLEBAgAAAACYAHWX+by626w7TkmSJElZX+J26eV5WP6xoQEAAAAAmCA/rrvNuuO06ZUkSZKb/yUObku8NQ/K1xgWAAAAAIAJdE3dcdZdp42vJEmSVvPN/1/Ow/Ffp02GBAAAAABggtUd51/XnafNryRJklZVbYnduibulwfiT6c5wwEAAAAAMAXqrvMLXRMPqjtQm2BJkiRNfZtL7JGH38fkQfgbBgIAAAAAYArV3ecJm0vsaSMsSZKkqW2hxLq+xNPc/AcAAAAAptylfYmn152ozbAkSZKmrlGJ9XngPSkPvj9w+AcAAAAAVoF/Sf+9L3ErG2JJkiRNTXnAvWVb4mV52L0szTv4AwAAAACrxJVtiT/OxwNtiiVJkjTpN/53zYPtYXnAPS0fO4d9AAAAAGAV2pze2Zc4vG9iV5tjSZIkTWRdE0flwfY9DvgAAAAAAPHBtsTdbI4lSZI0ceVB9p55oP2wQz0AAAAAwE99Lt1vocRutsiSJEka++rBtS/x4DzEfjJtdaAHAAAAAPipujP9Ul/isV4EIEmSpHG/+b82D66PzAPs2WmLwzwAAAAAwA2+CODcvsTjRiV2t1mWJEnS2JWH1b3z0Pp76Qdp3iEeAAAAAODnqjvUq9Iz03obZkmSJI3Tzf8D6kG1LTHr4A4AAAAAsH2GneoL647VplmSJEnjcPP/NnlAfUW62oEdAAAAAOAm21R3rHXXauMsSZKknVYeSo9Ib0g/dkgHAAAAANhhdcf6xrbEUTbPkiRJWvHyIHpYHkjPTL3DOQAAAADAzTbblnhP3b3aQEuSJGlFWiix62yJY/Mwel661qEcAAAAAGDJ1J3reXUHW3exNtKSJElazpv/a2dK3DMPoOc6iAMAAAAALJtz6y627mRtpiVJkrTk9SX2ykPnw9MX0pwDOAAAAADAspkbdrEPr7tZG2pJkiQt5c3/PfKgeUL6etrq8A0AAAAAsOy2DjvZE+qO1qZakiRJS3Hzf20eMB/dlrjAO/8BAAAAAFb2kwCG3eyje18HIEmSpJt583+PPFw+Jf0wD5jzDtsAAAAAACtuvu5o667WJwFIkiRpR2/+3zL9fh4uZx2wAQAAAAB2utm6s627WxtsSZIkbf/N/yYOzMPkH6WNDtUAAAAAAGOj7mz/qO5wbbIlSZJ0o7UlbpMHyFenyxymAQAAAADGTt3dvrrucm20JUmS9Itu/q9Pp+XhsXWIBgAAAAAYW23d5dadrs22JEmSfqaFErvmgXG/PCy+OR+3ODwDAAAAAIy9LcNO95Z1x2vTLUmSpHrzf81siTvnIfGstNWhGQAAAABgYlyb3l93vHXXa+MtSZK0ym/+z5Q4Ng+If502OSwDAAAAAEycutv967rr9SIASZKkVVpfYm0eCu+T/iaNHJIBAAAAACZW3fF+oC9xXN392oBLkiStsvIweLe2xNeGj4hyQAYAAAAAmPBPAmhLnFN3vzbgkiRJq6Q8AK7LA+A98vHb+TjvUAwAAAAAMDXmh93v3dNuNuKSJElTXF9ifR76TsgD4Dfd/AcAAAAAmNoXAZyfj4+pO2GbcUmSpCm9+Z9OzEPfBQ7AAAAAAABT74K6E/YiAEmSpOm7+b8uPdHNfwAAAACAVfcigCfWHbFNuSRJ0vS8AOCxedC7xGEXAAAAAGDVuaTuiG3KJUmSJv/G/7rh5v8VDrkAAAAAAKvWFXVX7JMAJEmSJvfm//rhY/8vdrgFAAAAAFj1Lh6+DmC9DbokSdIE1ZbYPw9zz00XONQCAAAAADCoO+Ond03cwiZdkiRpMm7+75Vemoe4jQ6zAAAAAABcz/fbEifXXbKNuiRJ0vi/AODFeYC7yiEWAAAAAICf46q6S7ZRlyRJGt8b//Wd/yfnwa11eAUAAAAA4Ea0PglAkiRpPG/+7z987L93/gMAAAAAcFM+CeCldcds0y5JkjQ+N///Rx7UNjqsAgAAAABwE22sO2YvApAkSdr5N//3Gt757+Y/AAAAAAA350UAL/V1AJIkSTv3BQAv7nzsPwAAAAAAN1/9OoAX27xLkiStYAsldu1L7DN87H/rUAoAAAAAwBJp2xIn9yX2rrtoG3lJkqRlvvk/W+IOeQh7S5p1GAUAAAAAYIldk15Xd9FeBCBJkrT8N/9PT71DKAAAAAAAy6TuoE/3IgBJkqRlalOJA4d3/rv5DwAAAADASrwI4C11N21DL0mStIQtlNgrD1pv7XzsPwAAAAAAK6fupN9ad9Q29ZIkSTf/xv+uwzv/683/TQ6bAAAAAACssLqbfmvdVfs6AEmSpJtx879+v1K37WP/vfMfAAAAAICd+UkAb6k7ay8CkCRJ2vGb/6d3275nyQETAAAAAICdqe6qT/ciAEmSpJtYX2Kf4Z3/bv4DAAAAADBOLwJ4XV9ib5t8SZKk7awt8T86H/sPAAAAAMD4uaYtcbJNviRJ0o3f+N8rvTgPUK1DJAAAAAAAY6qtu+y607bZlyRJuuGb//unl+bB6SqHRwAAAAAAxtxVdaddd9s2/JIkSf/25n/92P+NDo0AAAAAAEyIjXW37UUAkiRJ/3rzf6/hnf9u/gMAAAAAMIkvAniprwOQJEna9gKAkzsf+w8AAAAAwOSqXwdwso2/JElazTf+6zv/X5wHo9bhEAAAAACACdfWnbdPApAkSavx5v/+w8f+e+c/AAAAAABT9UkA+XgLdwIkSdKqqC+xPg8/z00bHQYBAAAAAJgy309Pr7twdwQkSdK03/xfl56Yh58LHAIBAAAAAJhSF9RdeN2JuzMgSZKm+QUAj82Dz8UOfwAAAAAATLmL607cnQFJkjSNN/7XDTf/r3DoAwAAAABglbii7sZ9EoAkSZqmm//rh4/9v8RhDwAAAACA/8/evfjbXtd1HufcOMDxcFVEQPkYxxEL8TIWmY6ZUeaDQW2KHjWWFJkUKc7g2MXGWV/Fkpz0QelQFtno4EAOaT1MJIssagzHCwqoSVCmMtxED7/123ufs8/Ze8/ny9k2inCu+/L7/dbz9Xg8H+cP2Ov3/f0e673WOhPmi4v/HcAmi4EkSRrC+P8T+YBzi4c8AAAAAAAm1C31vXIfApAkSb2tKbEhH2rONv4DAAAAAMD975U/P623IEiSpN6VDzFPbUp81kMdAAAAAADEQlPi5vz3KRYESZLUm9oS6/IB5sn5IPO5/HfeQx0AAAAAANxvfvG98yfX99ItCpIkqdMtlFibDy5PzweYTxr/AQAAAADgQT8EcENb4vT6nrplQZIkdXb8nypxWj68/Gna4SEOAAAAAAAe1Lb03vqeug8BSJKkLo7/a6ZLPCEfWN6TZjy8AQAAAADAbtX30t9T31uv77FbGiRJUmfKh5Qj09WLn1r04AYAAAAAAHv3SwB/lI6wNEiSpE7UlNiUfi8fUHZ6WAMAAAAAgH2yo77HXt9rtzhIkqTVHv+PS5fmA8qshzQAAAAAANgvs/W99vqeu+VBkiStSm2Jh+dDyRtT4+EMAAAAAAAOSH2v/eK2xFEWCEmStNLj/xH5IPKqdIeHMgAAAAAAWBK3pwvre/CWCEmStFLj/8b0inwIucvDGAAAAAAALKm76nvw9b14i4QkSVru8X9dU+Kn8gFk2kMYAAAAAAAsi+n6Xnx9T94yIUmSlmv835gPHWflQ8c9Hr4AAAAAAGD5LL4Xf5ZfApAkScsx/h+aDxpn5wPHLfnvvIcvAAAAAABYVvOL78mfXd+jt1RIkqQlaaHEunzAeG76VJrz0AUAAAAAACtibvG9+ecu+O8AJEnSEoz/a6ZKPC0fLj6cdnrYAgAAAACAFVXfm/9wfa++vmdvuZAkSfvddInT8sHiRt/8BwAAAACAVf0lgBunS5xquZAkSftVU+KkfKC4yYMVAAAAAAB0wkfqe/cWDEmStE+NR7ElHySuSDs8UAEAAAAAQCfsuP+9+1FssWRIkqS9qi1xXD5AvDW1HqYAAAAAAKBT6nv3b63v5Vs0JEnSnsb/Y/LB4Q3pqx6iAAAAAACgk+p7+G+o7+lbNiRJ0kON/4flA8PPpa0engAAAAAAoNPqe/k/V9/bt3BIkqRvaKHEunxQeGlTYtpDEwAAAAAAdN/ie/rn1vf4LR2SJOlr4//6tsSZ+ZBwuwcmAAAAAADolX+s7/HX9/otHpIkqf70/3PyAeETad6DEgAAAAAA9Ep9b/8T9b1+i4ckSRNeU+Jp+WBwbZr1kAQAAAAAAL1U3+O/tr7nb/mQJGkCa0usyYeBU9Kfpp0ejgAAAAAAoNd2Lr7nf0rdACwhkiRNUPkAcFK60gMRAAAAAAAMSn3v/wRLiCRJk/Pt/yOaEpd6CAIAAAAAgOFpSry5bgEWEUmSBt5MiU154x/lA8DYQxAAAAAAAAzSuG4BdROwjEiSNNAWSmxoS5yXN/47PPwAAAAAAMCg3VE3gboNWEgkSRpY20tszBv9S/KGf3ua9+ADAAAAAACDNr+4CfxEU2K9pUSSpIFUb+zp+XmT/4wHHgAAAAAAmCifqRuBDwFIkjSQ8ub+TOM/AAAAAABM7ocA0ndYTCRJ6nltiW/Lm/pfe7gBAAAAAICJ9ud1M7CcSJLU3/H/2LyhvyfNebABAAAAAICJVreC99TtwIIiSVKPWihRx//jmxJvz5v5Ng81AAAAAABA3QzqdlA3hLolSJKkHjRV4qi8eb8+b+T3eZgBAAAAAAC+zn1tiddOlTjSoiJJUsdrSmzMm/cF6aseYgAAAAAAgAdxd/r5uilYViRJ6nBtibPypv0FDy8AAAAAAMBufKFuCpYVSZK6++3/0/KG/WkPLQAAAAAAwF74dN0WLCySJHWohRJr2hJb8ib9F3mznvPAAgAAAAAA7IW5ui20JU6uW4PFRZKkDoz/0yUekzfpq9JODysAAAAAAMA+mE3vmipxotVFkqRVri3xiLwxvzm1HlIAAAAAAID9UDeGX29KHG15kSRplcqb8SHpP6Y7PZwAAAAAAAAH4M7FzeEQC4wkSavz7f8fzhvxHR5KAAAAAACAJXBH3R4sMJIkrWAzJdbmTfi0psRtHkYAAAAAAIClsrg9nLZQYo1FRpKkZS5vuGunSjwpb8AfzxvwvIcRAAAAAABgCc03Jf7PdIlT6iZhmZEkaRlrS2zJm++703YPIQAAAAAAwDKoG8S76yZhmZEkaZkaj+KRecO9JDUePgAAAAAAgGXU3L9JjOKRFhpJkpb+m/+H5I32wvRVDx0AAAAAAMAKqJvEhXWjsNRIkrR04/+6vMH+SJrysAEAAAAAAKyguk2cWbcKi40kSQfYQom1eVM9oylxj4cMAAAAAABgpdWNom4VdbOw3EiSdGDf/v/2vLn+bZrzkAEAAAAAAKyCulH8bd0sLDeSJO1nTYkn5A31vWm7hwsAAAAAAGAV1a3ivXW7sOBIkrTv3/x/ZN5I3zre9X/reLAAAAAAAABWW90s3tyWeLglR5KkvR//D8sb6C+kbR4mAAAAAACADplJL5sqsdGiI0nSHloosa4t8WNNiWkPEQAAAAAAQNfUDaMt8QKrjiRJe/72/3flzfM2DxAAAAAAAECH3daUeKplR5Kkhx7/H583zPenOQ8OAAAAAABAh9Ut431tiW+x8EiS9ICaEsfnjfKy8a7/O8eDAwAAAAAA0HX1vzO+pC1xpKVHkqRsoUT95v+RTYmL8iY59rAAAAAAAAD0SJNeub3EIVYfSdLEN13i4LbES/LmeI+HBAAAAAAAoIfqxvGjTYn1lh9J0kSXN8TvTbd5OAAAAAAAAHrsM+l0y48kaWJrSmzJm+GHPRQAAAAAAAAD8MG2xCMsQJKkiStvgMc2Jd6ZN8OdHggAAAAAAIAB2NGUuHShxEZLkCRpYtpe4mF5E3xjaj0MAAAAAAAAA7K1LTHaXmKTRUiSNPjGozgsb36vSF/2EAAAAAAAAAzQF9NPtn4JQJI05JoS6/OG92/TLW7+AAAAAADAgH0yPSetsxBJkob57f8S39qUuM5NHwAAAAAAGLqmxLVtiW+xEEmSBtdCiUPzZndF2ummDwAAAAAATIC6ifyPupFYiiRJg6ktsSFvcBelaTd7AAAAAABggkw3JX6pbiUWI0lS78sb28a8qZ2T/97hJg8AAAAAAEygOxa3ko2WI0lSb1sosTZvZs9On3RzBwAAAAAAJljdSr53psR6C5IkqZe1JU7Om9mfjnf9Hzdu7gAAAAAAwKSqW8k16XEWJElS7xqP4mHpkryRbXNTBwAAAAAAiG1Nid9Jmy1JkqQ+ffN/Xd7EXp5m3MwBAAAAAAD+/4cA6oZStxSLkiSp8y2UWJs3rTOaEl92EwcAAAAAAPhGdUOpW0rdVCxLkqSuf/v/KXnzui7NuYkDAAAAAAB8k7qh/HVb4omWJUlSZ8ub1WPT5WM//Q8AAAAAALA70+l32hLHWZgkSV0c/zen16TGTRsAAAAAAGCPvppe2ZY4zNIkSepM20usy5vTD+VN6l43awAAAAAAgL12e1virLq1WJwkSd349v8ovr3eoNykAQAAAAAA9tlN6VSLkyRp1WtKPCpvSn/h5gwAAAAAALDfrmpLHGF5kiStWjMlNjUlfj1vSjvcmAEAAAAAAPbb9qbEqxZKHGyBkiSteHkD2tCWOC9vSHe4KQMAAAAAABywz6cfs0JJkla0tsTapsQP5E3o5jTvhgwAAAAAAHDA6ubykfRdaY1FSpK0EuP/mrzpPDF90I0YAAAAAABgyV3VloiFEoYpSdLyNlPi6LzxXJpm3YABAAAAAACWXN1gLmpLHGaZkiQta3nDeVna6uYLAAAAAACwbO4Zj+Icy5QkadlqS5yeN5zPu+kCAAAAAAAsu9uaEqdZqCRJS1r9P2baEt+SN5lr82Yz74YLAAAAAACw7OaaEtdMl3iUtUqStGRNlTg2bzJvSzNutgAAAAAAACumbjNvGY/iCIuVJOmAa0tsyhvLBekuN1kAAAAAAIAVd3t6aVPiUMuVJOlAxv91eUP5/nSzmysAAAAAAMCq+WQ6o243FixJ0n6VN5Jj0rVpzo0VAAAAAABg1cwtbjbHWLAkSftcU2L9eBSX5I1kp5sqAAAAAADAqttZt5u64ViyJEl73UyJDXnz+Im8kWxzMwUAAAAAAOiMbXXDqVuORUuStFe1Jb47byCfcRMFAAAAAADonE+3JZ5h0ZIk7bG8aTw2XZVm3UABAAAAAAA6Z3u6sm46li1J0u7G/83pNalx8wQAAAAAAOisZnHT2WzhkiR9U9tLrGtL/Lu8UdzrpgkAAAAAANB597YlfnC2xDpLlyTpgd/+Py3d6mYJAAAAAADQGzelUy1dkqR/qS1xRN4crnKTBAAAAAAA6J2r6tZj8ZIkHbRQ4uC8MVyQtrtBAgAAAAAA9E7deC6om4/lS5ImvPEozsibwmfSvBskAAAAAABA78zfv/WM4gzLlyRN7jf/D2pK/Ku8IVyd5twcAQAAAAAAeqtuPVfX7aduQJKkCWu6xJF5I3hTmnVTBAAAAAAA6L26+bypbkCWMEmaoNoSG/IG8OJ0t5shAAAAAADAYNTt58V1C7KISdLkfADgtDz8b3QTBAAAAAAAGJyPpSdaxCRpAloocWge+le6+QEAAAAAAAzSznSFVUySBl4e9mvHo3h5/jvl5gcAAAAAADBYU+NRvKxuQxYySRrmN//X5iH/nPRPbnoAAAAAAACDVzeh5yz4EIAkDa+2xJY85K9Oc254AAAAAAAAg1c3oavrRmQpk6Rhjf9H5wH/a6lxswMAAAAAAJgYdRv6tboVWcwkaRjj//o82H84fdFNDgAAAAAAYOLUjejMmRLrLGeS1PPyQD8p3Zjm3eAAAAAAAAAmTt2IPpUeYzmTpH6P/5vGo/gjNzYAAAAAAICJ9866HVnQJKmHLZRY35T4mTzIt7uhAQAAAAAATLztdTuqG5IlTZJ6Vlvie/Igv3nsp/8BAAAAAADYtRndXDckS5ok9aimxPF5gF+RZt3MAAAAAAAAWFS3oyvqlmRRk6QeNF1iUx7cr05jNzEAAAAAAAAeoG5Ir5wtsdGyJkkdri2xLg/ss9KX3LwAAAAAAAB4CHVLOqtuSxY2SeruBwAek4f1tW5aAAAAAAAA7MG1dVuysElSR8uD+qLxrv+7xU0LAAAAAACA3amb0kUWNknq5rf/n52H9F1uVgAAAAAAAOylu+rGZGmTpG6N/5EH9PVp3o0KAAAAAACAvTTf7PqvAMLiJkkdKA/mzektacZNCgAAAAAAgH00s7g1bba8SdLqfvN/Qx7GL0pfcHMCAAAAAABgP9Wt6UV1e7LASdLqffv/lPQhNyUAAAAAAAAOUN2cTrHASdJqjP+j2JwuyYN4mxsSAAAAAAAAB6huThenTZY4SVrBFkqsycP37DTtZgQAAAAAAMASmaobVN2iLHKStEJNj+LkpsQ/uwkBAAAAAACwlOoGVbcoi5wkrUB58B6Z3pZ2ugkBAAAAAACwxHYublFHWuYkaRlbKLE+D9tz091uPgAAAAAAACyTukWdW7cpC50kLd+3/5+ZPprm3HgAAAAAAABYJnWL+nBT4nQLnSQt/Tf/D8oD9rg8aC8b++l/AAAAAAAAlt+O9Jb08LpVSZKWqOlRHNyW+Ok8YBs3GwAAAAAAAFZIUzequlVZ7CRp6X76/9R0g5sMAAAAAAAAK6xuVKda7CRpaX7+f2NT4g/cXAAAAAAAAFgNdauqm5XlTpIO9Nv/o/iRPFjvc3MBAAAAAABgldxXNyvLnSQd2E//n5I+kebdWAAAAAAAAFgldav6aFsiLHiStH/j/+b0ljTjpgIAAAAAAMAqm1ncrjZb8iRpH2pLbMjD80XpC24mAAAAAAAAdETdrl5UtyyLniTt20//f8hNBAAAAAAAgI6pG9YpFj1J2rvx/2Hp4rTNDQQAAAAAAICOqRtWaUscZtmTpD3//P8zmhL3uHkAAAAAAADQRU2Ju+umZdmTpN2P/8fkofkxNw4AAAAAAAA67mN127LwSdKDNFPikDwoX5d2uGEAAAAAAADQcXXTel3duCx9kvSA8oA8M93mZgEAAAAAAEBP3NqW+H5LnyR9XU2J4/OAfLdv/wMAAAAAANAjs+mKunVZ/CQpmy2xMQ/GC9PYTQIAAAAAAICeqRvXhXXzsvxJmvRv/q/NA/H7xn76HwAAAAAAgP6qW9f31e3LAihpYpsq8cg8CN/rpgAAAAAAAECfNSXePVXiWAugpIktD8NXjHf93yhuDAAAAAAAAPTZVDuK8yyAkiZ1/N+SPu9mAAAAAAAAwEDU/wpgiyVQ0kS1o8TmpsSVeQDOuREAAAAAAAAwEHN1A9tR4mEWQUkTUVtiw3gUL88D8F43AQAAAAAAAAbmnvTSuolZBiVNwk//Pyl92OEPAAAAAADAQNUt7EmWQUlD//b/0XnYvTG1Dn4AAAAAAAAGqm5hb6zbmIVQ0iBbKLEmD7kz8rD7okMfAAAAAACAgfti3cbqRmYplDS4mhLH5kH3vjTvwAcAAAAAAGDg6ib2vrqRWQolDa484F7poAcAAAAAAGDCvNJSKGlo4//j0x0OeAAAAAAAACZM3cgebzGUNIhmSmzKQ+0dac4BDwAAAAAAwITZ2ZT43bqZWQ4lDeHb/z+e7nK4AwAAAAAAMKFur5uZ5VBSb1socVBT4nF5mP2Zb/8DAAAAAAAwwepWdk1TYkvd0CSpd02PYnMeZBenWYc6AAAAAAAAE246va5uaJZESb2qLbE2D7Az0i0OcwAAAAAAALhf3c7OqFuaRVFSb8qD6+j0vxziAAAAAAAA8A0uT0daFCX16RcAzs2Da8oBDgAAAAAAAN+gaUv8lEVRUi+aLXFUU+I2hzcAAAAAAAB8s7ql1U3Nsiip6z/9f2i6LM05vAEAAAAAAOBB7WxK/Fbd1iyMkjpbHlTPz4PqSw5tAAAAAAAA2K0v1W3Nwiipq9/+j/Qn9RNLDmwAAAAAAADY/a8ALG5rYWmU1KlmSmzMw+nC1DisAQAAAAAAYK/cm15WtzaLo6Su/Ox//fb/6elmhzQAAAAAAADstfl0U93a6uYmSateW+LoPJAuc0ADAAAAAADAvmtKvK0tcZTlUdLqfwBgFD+SB9M2hzMAAAAAAADsl/vaUZxteZS0qs2UODwPpI85lAEAAAAAAOCAfLwt8QgLpKRVKw+i/5R2OJABAAAAAADggNTN7ZcskJJWpabEk/MQ+rTDGAAAAAAAAJbEp5sST1koYYyUtKLf/N+ch8/v5b+zDmIAAAAAAABYEnV7++8zJY62SEpakfLAWZ8Hz9np8w5hAAAAAAAAWFJfSD9aNznLpKSV+Pb/Y9K7004HMAAAAAAAACy5q9PJlklJyz3+H5xekrY6eAEAAAAAAGBZTKXz6jZnoZS0nB8AeHS60aELAAAAAAAAy6cpcWs6yUIpaVlaKLEuD5v/6sAFAAAAAACAFfHf6kZnqZS05E2N4l83fvofAAAAAAAAVupXALbWjc5SKWlJmymxKQ+ZK9KcwxYAAAAAAABWRN3mrmxLHGmxlLRk5cHy4+kuhywAAAAAAACsqLvTORZLSUtSU+LkPFSu8e1/AAAAAAAAWJVfAbimbnaWS0kH+s3/Q/Iw+eX8d9rhCgAAAAAAAKtienGzO8SCKWm/mimxNg+RZ6RPOVQBAAAAAABgVdXN7vSFEmssmZL259v/h6ffTDscqAAAAAAAALCq6mb3G2mzJVPS/nwA4Iz0ZYcpAAAAAAAAdELd7s6wZErap9oS6/Lw+GuHKAAAAAAAAHTK1XXLs2hK2qsWSqzNg+Nnxn76HwAAAAAAALqmbng/XTc9y6akPTY1ilPy0PiUwxMAAAAAAAA6Zz5dP1XicZZNSbttpsQheWBcnKYcngAAAAAAANBJTfovdduzcEp6yPKgOCN91qEJAAAAAAAAnf4VgI81JZ5u4ZT0UOP/0emtaadDEwAAAAAAADptR/qtdIylU9I31JZYl4fDmelLDksAAAAAAADohXvSC+rWZ/GU9PXf/j8m/YlDEgAAAAAAAHrlT6ZKHGfxlPT1HwD492nKAQkAAAAAAAC9MtWW+EmLp6T7WyhxaFPiBocjAAAAAAAA9E/d+urmZ/mUJryZEmvyUDgnbXc4AgAAAAAAQC9tH4/i/Lr9WUClCa4t8bg8EP7eoQgAAAAAAAC99vd1+7OAShNaHgKb0q+msQMRAAAAAAAAem28uP1tsoRKk/kBgGelGx2GAAAAAAAAMAh1+3uWJVSavPH/8PSGtM1BCAAAAAAAAINQt783NSWOsohKE1Jb4qC86J+dF/+XHIIAAAAAAAAwKLc3Jb6nboKSJqCpEg/PC/9yhx8AAAAAAAAM0uV1E7SMSpPxCwA/OPbT/wAAAAAAADBU2+omaBmVBt5CiY1NiQ859AAAAAAAAGC46iZYt0ELqTTg8mJ/cZpx6AEAAAAAAMCg1U3wxRZSaaBNl3hEXuQfcdgBAAAAAADARPhI3QgtpdLwvvl/cHpDmnLQAQAAAAAAwESYWtwID7aYSsP6AMDp6eMOOQAAAAAAAJgoH01Ps5hKA6ktcWRe1L8+3vX/fDjkAAAAAAAAYHK06VfrZmg5lQZQU+I786K+xeEGAAAAAAAAE+mWuhlaTqX+//R//fb/ZWnOwQYAAAAAAAATaW5xM/QrAFKfmyrxPU2JaYcaAAAAAAAATK66Gdbt0IIq9bSFEhvyYv5jBxoAAAAAAABQt8O6IVpSpR7Wlvg3eRG3DjIAAAAAAACgbod1Q7SkSj1rpsTheQG/L807yAAAAAAAAIC6HTYl3l23RIuq1J/xf01euC/OC/huhxgAAAAAAADwde6sW2LdFC2rUj9++v+EvHA/4PACAAAAAAAAHsQH6qZoWZW6/+3/9XnBnpvucnABAAAAAAAAD6JuiefWbdHCKnW4vFBPSn/k0AIAAAAAAAB2o26KJ1lYpe6O/wenl6StDiwAAAAAAABgN7a2Jc6eKbHO0ip18wMAx6frHVYAAAAAAADAXvjf6VGWVqmbHwC4wCEFAAAAAAAA7IMLLK1S98b/Y9JnHVAAAAAAAADAPqgb4zEWV6lbHwA4P+10QAEAAAAAAAD7oG6M51tcpe6M/49Of5fmHVAAAAAAAADAPphf3BofbXmVVrm2xJqmxOvygpxyOAEAAAAAAAD7oUmvrtujBVZa3W//Pz3d4FACAAAAAAAADkDdHJ9ugZVW79v/m/IifG3a5kACAAAAAAAADkDdHF9bN0hLrLQ63/5/qm//AwAAAAAAAEv4KwBPtcRKK//t/0Pz4vvlNOsgAgAAAAAAAJZA3R5/uW6RFllpBZsu8W1NidscQgAAAAAAAMBSqRtkCoustEItlFiXF987HEAAAAAAAADAMnhH3SQts9IKNFXitKbEfQ4eAAAAAAAAYBl+BeC+uklaZqXl//b/hrzgficvvDmHDwAAAAAAALAM5uomWbdJC620jLUlnpkX3K0OHQAAAAAAAGAZ3Vq3SQuttEztLHFIXmiXpu0OHAAAAAAAAGAZ1U3y0rpRWmqlpf/p/zV5gT0vfc5hAwAAAAAAAKyAuk0+r26VFltpCZsqcVReXL+VdjhoAAAAAAAAgBVQt8nfmClxuMVWWsKaEqfnxfVZhwwAAAAAAACwgm5IT7XYSktUW+LQvKhenWYdMAAAAAAAAMAKqhvlq+tmabmVlubb/yel2xwuAAAAAAAAwEqrW2XdLC230hKUF9XFDhYAAAAAAABgFV1suZUO/Of/T2xK3OlAAQAAAAAAAFbxVwDurNulBVc6sG//vz7NOVQAAAAAAACAVVQ3y9dbcKX9//b/t+VFdJPDBAAAAAAAAOiAm+qGacmV9n38X9OU+NW8iKYdJAAAAAAAAEAHTNcNM62x6Er79gGA78wL6BMOEQAAAAAAAKBDrm9KPNmiK+1ledFsTL+YWgcIAAAAAAAA0CFb04V107TsSnv3AYBT0l86PAAAAAAAAIAOqlvmKZZdac/j/8HpvDTl4AAAAAAAAAA6aGpx0zzYwivt/gMAx6e/c2gAAAAAAAAAHVY3zeMtvNLuPwBwgcMCAAAAAAAA6IELLLzSQ4//x6TPOigAAAAAAACAHqjb5jGWXunBPwBwftrpoAAAAAAAAAB6oG6b51t6pW8e/08c7/p/MhwUAAAAAAAAQF/UjfNEi6+02EyJ+gGA/5C2OiAAAAAAAACAHrmnKfGTdfOUlLUlTsgL4xqHAwAAAAAAANBD19TN0/Ir3/4vsT4viHPTXQ4GAAAAAAAAoIfq1nlu3T4twJrsb/+P4sS8GP7QoQAAAAAAAAD02OVtiUdZgDWxLZRYmxfB8/JiuMOBAAAAAAAAAPTY7W2J59YN1BKsiSwvgiPT76d5BwIAAAAAAADQY3XzfGtb4nBLsCb1AwBPbkrc6zAAAAAAAAAA+m5x+3yyJViT+gGA33UQAAAAAAAAAAPyu5ZgTeL4f8LYt/8BAAAAAACAYakb6AkWYU3aBwB+Jc05AAAAAAAAAIABqRvor1iENUnj/+PSjS5+AAAAAAAAYIBuaEucaBnW4Jspsa4p8ap80W914QMAAAAAAAADtLVuonUbtRBrEr79/1cuegAAAAAAAGDA6ib6OAuxBttCiXX5In9J+rILHgAAAAAAABiwuom+ZMGvAGiotSUenS/yK9OcCx4AAAAAAAAYsLqJXlk3UkuxBtd8ibX54n5hvsi/4mIHAAAAAAAAJsBXmhLPbUsYjDWs8sV9VHqnixwAAAAAAACYIHUjPcpirKF9AOBZ6T4XOAAAAAAAADBB6kb6LIuxhvYBgLe7uAEAAAAAAIAJ9HaLsYY0/m9Jd7uwAQAAAAAAgAlUt9ItlmP1vpkS9QMAb0pzLmwAAAAAAABgAs2NR3FR3U6lXtfu+vb/51zUAAAAAAAAwAT7XOtXANTzb/9vyBfya9PYBQ0AAAAAAABMsLqZjhZKrLMkq6/f/n98voivczEDAAAAAAAAxIfaEidbktW76idX8gV8XrrXhQwAAAAAAAAQ9zYlzrUmq4/f/j8hX8D/M827kAEAAAAAAADu307f1ZY43qKs3pQv2rVNiRfmv/e5iAEAAAAAAAD+xT3pzLqpWpbVjw8AjOKIfMH+tosXAAAAAAAA4Ju8pSlxuGVZffn5/yfmi/Z2Fy4AAAAAAADAN/mntsSplmX15RcAiosWAAAAAAAA4CH9omVZnW++xMOaEv/sggUAAAAAAAB4cM2uXwFYY2FWt7/9X+Kn0k4XLQAAAAAAAMBD2tmWOMfCrC6P/4c3Jf7GxQoAAAAAAACwW/Ppg3VjtTSrmx8AGMUL8gX6f12sAAAAAAAAAHt0e1PieZZmda6ZEoflC/SyNOtCBQAAAAAAANij7eltdWu1OKszLZSo3/5/Vr44b3SRAgAAAAAAAOy1T6TTrc7qTNt3ffv/9b79DwAAAAAAALBPZpsSr2lLbLA8qxPli/LU9DcuTgAAAAAAAIB99lfpWy3P6sL4vyGdm2ZcmAAAAAAAAAD7bJzOGfsVAK36BwBG8Yh8If6xixIAAAAAAABgv/1hU+IYC7RWtbbEM337HwAAAAAAAOCATLUlnmGB1qq1UGLteBRXuRgBAAAAAAAADtg7rNBatWZKbGlKNC5EAAAAAAAAgANTt9e2xAmWaK1K+SK8KM25GAEAAAAAAAAOWN1eX2OJ1mqM/yemG1yEAAAAAAAAAEvmo3WLtUhrJX/6/6DxKH42X3j3ugABAAAAAAAAlsw9TYlz6iYrrUhTJR6VL7wPuPgAAAAAAAAAltzVUyWOs0xrZX7+fxRn54vuiy48AAAAAAAAgCX3+fRCy7SWvbbEEfliuyTtdOEBAAAAAAAALLm6xV5St1kLtZb32/8lviPd7KIDAAAAAAAAWDafSE+1UGs5v/1/cL7Ifj7tcMEBAAAAAAAALJvZdH7daC3VWq5v/5/YlLjexQYAAAAAAACw7D40HsVxlmotS1Mlnpcvsm0uNAAAAAAAAIBlV7fZZ1uqtVy/APB2FxkAAAAAAADAinm7pVpL3kyJo/PFdbcLDAAAAAAAAGDF3F23Wou1lvbb/6P42XxxzbnAAAAAAAAAAFbMXN1qLdZastoSm5oS17u4AAAAAAAAAFZW3WrrZmu51tJ8+7/ED6U7XVwAAAAAAAAAK65utT9kudYBN1PikHwx/Xba7sICAAAAAAAAWHF1q/3tut1asHVg3/4fxdPyxfRRFxUAAAAAAADAqvlo3W4t2Nrv2hIHNSVeni+m1gUFAAAAAAAAsGraut3WDVfa3w8AbMkX0vtdTAAAAAAAAACr7v11w7Vka5+bKbE2X0BnprtcSAAAAAAAAACrrm63Z9Yt16Ktffv2/yg254vnTS4iAAAAAAAAgM54U91yLdrap5oSJ+WL559cQAAAAAAAAACd8fdNiUdbtLVvvwBQ4vx88cy5gAAAAAAAAAA6Y2dT4sUWbe11MyU25AvnBhcPAAAAAAAAQMeM4m/rpmvZ1t59+38UT6+fHHHxAAAAAAAAAHTvVwDaEt9u2dZe1ZS4NF808y4cAAAAAAAAgM6Zb0pcYtnW3oz/J+cL5kYXDQAAAAAAAEBn3Vi3XQu3HrKZEgeNR/Fz+WL5igsGAAAAAAAAoLO+UrfduvFKD9pUiePyhfIBFwsAAAAAAABA532gbryWbj1o+QI5K/2jCwUAAAAAAACg8+q2e5alWw82/h+WXp+2u1AAAAAAAAAAOq9uu6UtcYjFW99QU+IJ+eL4SxcJAAAAAAAAQG/8eVPi8RZv/UsLJdbmC+MH01YXCAAAAAAAAEBvbG1K/EBbwvCtXeWL4ah8YVzm4gAAAAAAAADoncvq5mv51tc+AHBKvij+wYUBAAAAAAAA0Dv/UDdfy7e+9gGAn3ZRAAAAAAAAAPRT3Xwt37q/fEFc56IAAAAAAAAA6K0/s3yrfvv/sflimHFBAAAAAAAAAPTWVN1+LeATXlPizflimHdBAAAAAAAAAPTW3HgUF1nAJ3v8Pzp93MUAAAAAAAAA0G91+60bsCV8QhuP4ofzhXCniwEAAAAAAACg9+6sG7AlfAJbKLEhXwBvS7MuBAAAAAAAAIDeq9vv2+oWbBGfsNoST8o//vUuAgAAAAAAAIDBuL5uwRbxyRr/1+Uf/mXpPhcAAAAAAAAAwGDUDfjnZ0qstYxPSONRHJ9/9Hd58QMAAAAAAAAMzh+0ozjWMj4hNSW+K//ot3jhAwAAAAAAAAzOLXUTtoxPxvh/SLow/+izXvgAAAAAAAAAgzNbN+G6DVvIh/8BgGPT+73oAQAAAAAAAIapbsJ1G7aQD7ypEt/tBQ8AAAAAAAAwbHUbtpAPvPxDX+rFDgAAAAAAADB4v2khH3AzJTbnH/lOL3QAAAAAAACAwfvnuhFbygdaW+L7848854UOAAAAAAAAMHhzdSO2lA9z/D+oKXFl/pHnvdABAAAAAAAABq9uw78/U8JgPsAPAHxr/nFv9SIHAAAAAAAAmBi3TJV4rMV8YI1H8Yr84271AgcAAAAAAACYGFvrVmwxH9a3/x+Wf9jL004vcAAAAAAAAICJUTfiy+tmbDkfzrf/vyP/qB/34gYAAAAAAACYOB+vm7HlfCA1JV6af9SvemEDAAAAAAAATJyv1s3Ycj6Eb/+XeER6uxc1AAAAAAAAwMT6/bbEwy3o/f/2/zPzj3mrFzQAAAAAAADAxLrJfwPQ//H/4HR+/jF3eEEDAAAAAAAATKyZpsR5dUO2pPf3AwAPT1d5MQMAAAAAAABMtrodN/4bgF5/AODkdI8XMwAAAAAAAMDEfwDgnrohW9L7+wGAV3khAwAAAAAAALD4IYBXWdL7+wGA67yIAQAAAAAAAFj8AMB1lvQe1pZ4fP4Bp72IAQAAAAAAAFg01ZR4rEW9Z41H8er84817AQMAAAAAAACwaH48il+wqPeohRKH5h/uI168AAAAAAAAADzAR+qmbFnvz8//Pzf/aLd74QIAAAAAAADwALfXTdmy3o9v/68bj+LX8o825YULAAAAAAAAwANM1U25bssW9o43XeKE/IN90IsWAAAAAAAAgIfwwbotW9g73ngUz8s/1i1esAAAAAAAAAA8hFvqtmxh73AzJQ7NP9RFadYLFgAAAAAAAICHMNuW+M8LJdZb2jta/oGekH+oa71YAQAAAAAAANiDa+vGbGnv5rf/1+Yf6AXpK16oAAAAAAAAAOxB3ZZfULdmi3vHmiqxqS3xOi9SAAAAAAAAAPZG3Zjr1mxx71j5x3lUus6LFAAAAAAAAIC99OfjURxnce9Y0yWekn+cbV6gAAD8P/buBG6uuj70/6ve6u2/1fb2b3u76P3fkxVkRwE3RMWtKloFsaJW0eKK9lpba+uWyZOQhJCEHdkh7AZkJ4Ag+74LBCFgIAkQSEhCnjmzz5zv/8yEekFZsjzLzDPvz+v1fvkSSJ7n+Z3JnJP5/uYMAAAAAMAGKpcLyQ4m7l2W2/8DAAAAAAAAsLHas2YT9y4qCskf5gfmHg9OAAAAAAAAADbSPabu3fXu/y3yg9L0wAQAAAAAAABgIzUHC0li8t4l5Qfj2/lByTwwAQAAAAAAANhIWXvmbPLePRsALvegBAAAAAAAAGBTtGfOJu/dMfzfNT8gyzwoAQAAAAAAANhEy9qzZxP40d8A8IP8YBQ9IAEAAAAAAADYRIODheTfTeBHsbSQvDY/EAtymQckAAAAAAAAAJuomTu9PYM2iR+lilOSXfKDcKcHIwAAAAAAAACb6c72DNokfvRu///V/CCs9UAEAAAAAAAAYDOtbc+gTeJH5/b/r88PwHEehAAAAAAAAAAMkWPbs2gT+ZG+/X8h2TF3uwcgAAAAAAAAAEPkprSQbGciP4JVCsmr8kXfO1/8ogcgAAAAAAAAAEOk2J5Ft2fSJvMjd/v/1+UO8uADAAAAAAAAYCi1Z9HtmbTJ/Mjd/v//y93nwQcAAAAAAADAEGt/FP0bTeZHqFIhebcHHQAAAAAAAADDoT2TNpkfuTsAzPWgAwAAAAAAAGCYzDWZH4GikLwmX+yHPeAAAAAAAAAAGCYPt2fTJvTDf/v/t+WL3fKAAwAAAAAAAGCYtNqzaRP64b79/5TkgHyxMw84AAAAAAAAAIZJNlhIfmBCP4zlC/xHuVs82AAAAAAAAAAYTu3ZdHtGbVI/fBsAds8X+nEPNgAAAAAAAACG2ePtGbVJ/fBtAPiPfJEHPdAAAAAAAAAAGGaD7Rm1Sf0wVCkkf5wv8Jm5lgcaAAAAAAAAAMOsPZs+sz2rNrEf4tJCskO+uLd6kAEAAAAAAAAwQm5tz6pN7IewKCR/UJyS/GO+uE95gAEAAAAAAAAwQp4qTkk+b2o/hJULyWvzhT3EgwsAAAAAAACAETZ7sJD8kcn9EJUv5uR8UX/hgQUAAAAAAADACFtYnJJMNLkfug0A780X9XEPLAAAAAAAAABG2NLBQvJuk/shKC0kr8kXdP9c0wMLAAAAAAAAgBHWnlXv355dm+Bv/gaA1+eLeYYHFQAAAAAAAACj5Iz27NoEf/M3AEzOF3OZBxQAAAAAAAAAo2RZe3Ztgr/5GwA+7cEEAAAAAAAAwGhKC8nfm+BvZvlCHufBBAAAAAAAAMBoGiwkR5ngb2b5Ii73YAIAAAAAAABglDcAPGiCv3m3/98xX8iWBxMAAAAAAAAAo6zVnmGb5G/67f9/kss8kAAAAAAAAAAYZe3Z9U9M8jehKCSvzhfvag8iAAAAAAAAALrE1e1Zton+RlYqJNvmi7fEAwgAAAAAAACALrGkPcs20d/Y2/9PSb6ZL95aDyAAAAAAAAAAusQzg4Xkyyb6GzP8LySvzhdtfv6/TQ8gAAAA6CIDE6N4wJaRztg60gN3iHT2jpEe9OZI570t9/aO0mHvjtLhu79A+eR9onLudzbNz/9PlE/5/O/8nu/97dfrmLvL+u+l/T3N3KbzPXYUxjlmAAAADKXmYCE5OS0kf2iyv+Hv/t8mX7ibPHgAAABghE3fMtLZO0Tp0N2idNSHonzCnlE+ce+onPHlqPzs61G98PtRu2pO1G/4aTR+dW407r8oGg/+IlpP3hetpx/qyKppDHut5m+/Xltz6e3RWHRxNO47P+q3nND5HtsqC74ZlTO/EuX5n+38LO2fqXTE7pHO2TnSWdut39DguAMAALBxrs1NNNnf8DsAfDq33AMHAAAAhsHU8ZEeuH2UjnhfZyjefod99YJ/j9oVs6J24zFRv/PMaC7+ZWeo3npmSbTWLItoVKNnazUjK67q/CzNZbdHc8kNnc0L9dtPjdq1h0X1kh937jRQPuVzUTrmo5HOfWsUp03yOAEAAOClLM3tabK/AVUKyX/PF6uQq3ngAAAAwOa+o3+L9YP+U/8xKu0h/9XzonHfhdF46MpoLr0tWk8tiqy4MrLy2s6gvB/Lamlk6aporXokmk/cE81HrovGokuifuvJUb18elRO/1KUj9kj0hlbeTwBAAAQz82yC+3Ztgn/K5QWkjfki3WWBw0AAABsvPSgt0TljC9F9dJC1O/6WbSefjBaqx+LbHBFZOU1kdVKoQ2sWY+sOpiv3VORrV3W+aiBxsPXRP2WE6Py829H6Zg9onjAmzzuAAAA+tNZ7dm2Cf8r3f5/SrJrvlgPe8AAAADAi5g2KdKZ20Y6d5coHbpblE/9fNSuOywaj1zbeSd/5138Wes5mSH+sNwyIFu/vu2PFqgWo7n8zqjdcFRUzvl2lI7+SKQHvzPS2TtG8YAtozh1nMcsAADA2PRwe7Ztwv/y7/5/Vb5Q+xTd/h8AAADWmzp+/bD/6I9G+bQvRvWSH3VuTd9cdmdkpTWG8V1414DWmqWdjxCoXT03Kmd9LUrH/X1ns4aPEAAAABhT2jPtfdozbpP+l94A8Np8kWZ5sAAAANDP0plbR+mYj0RlwTejdtWcaNx7XrSe+FXn3ebqserlzkcHNB/6ZdRvOj4qF/5HlE/+TJQOfnsUByZ6vAMAAPS2We0Zt0n/S93+v5D8be5aDxQAAAD6bug/Z+eonL5v1K4/Khq/vjyaj98T2boV6281r7Hy2QGRVdZFa+XiaP7m+qjfcUZUzv+3KB35gShOm+zPAQAAQO/5RXFK8tcm/S+9AWByruKBAgAAwJg3dVyUDn5HVC/8fjTuv6jzLvFs8KmIRsWcvF9qNTof49Ba81g0l94WtRuPjfKp/xjFaZP8+QAAAOgNpfaM26T/pTcAfMWDBAAAgLE47E9nbhvpvLdF+cRPRe3GY6L11IMRreZz7/DPDMOVPwyyzmMiK62O+t1nR/Xc70Tp8N0jnb2jTQEAAADd6ysm/S+9AeAsDxAAAADGxtB/fGdwWzr6o1E58ytRv+2UaK54IDLv8NfG7AkorozGAwujesmPo3zyPpEe+i4fFwAAANBdTjPpf5GikLwmX5ynPEAAAADoZekBb4ry8Z+M6sU/jMZdZ0XriXsjq5dNsrW5WwE6HxHRePCKqF01L8pnfTXSuW/zZw4AAGD0LWvPuk38f//d/9vnWh4gAAAA9KLSYe+J6oX/EY37L47Wivsjq6wzs9bw1KxHa+3yaD5ybdSuOyLKp3w+0pnb+HMIAAAwOtoz7u1N/H93A8CU5Nv5wmQeIAAAAPSMaZOi8rOvRf2uBdFauTiy8tr1n+MujdR9AeqVyNatiOayO6L2iwOidMiu/lwCAACMrKw96zbxf16VQvLf8oU534MDAACAbh/4pwftFOUT9orajUdHlq6KyJqG/uqS3QCtiGYtmg/9MqrnfidKh7070lnbRnHqOH92AQAAhtf5UUheZfL/XKVCMj5flIc9MAAAAOhG6ewdonz8J6O68Ced265n1aJhs7q+1upHo377qVE+48tROvRdnQ0s/jwDAAAMi8WVQvIGk///uv1/Idkr97QHBgAAAF1jYGLnHdSVc77dGaK2Vj5soqzevDFA+dloPHRF1K6Y2bl7RXrAm/z5BgAAGFrtWfdeJv/PNVhIpucLUvbAAAAAoBuUjvpQ1H55UDQfvTmy4tPrb60u9fpGgHopWk89EPW7F0Tl7P0jnbWdP+8AAABDo9yeeZv856WF5PX5glyQyzwwAAAAGDXTJkX5xE9F/Z5zOrdOd5t/jd3PBmhElq6K5tLbo3Lh9yOds5M//wAAAJunPev+eaWQvM4GgELyznwxfuVBAQAAwIibPjnSeW+P6rnfiebyuyLqlYgsMyBWH90WoBXZ4FNRv+WEKB31wUhnbRvFqeM8NwAAAGy8O9JCslPfbwAoTkn2zRdjlQcEAAAAIyWdsXWUjtkjqpcWovn43YbAUnsvQLUY9dtPi8rpX4503tuiOHW85wsAAIANt6o9++73d///93whDsg1PSAAAAAYicF/+fR9o3b9UdFasSiiWTf1lX53I0BpTTTuvyiqF/8oSoe9x3MHAADAhmnPvA9oz8D7993/hSTJne/BAAAAwLCaNinK8/eJ+j3nRGv1oxHNmimv9EobASrrornkpqhe8qNI5+7ieQQAAOCVnZ0Wkv/VzxsA3pl7yAMBAACAYTEwIcrHfizq95wdrbXLI1oNU11p47YBRFZ+NppP3he1q+ZGetBbPK8AAAC8tF/n3tGvw/8/yO2TyzwQAAAAGDJTx0d64A5ROe2L0Xz05vVD/ywzx5U2ey9AK7LiyqhdPTfSeW+P4vQtPN8AAAC8UPbcDPwP+m8DwJTkT/Mf/GAPAgAAAIZm8D8u0jk7R+Wsr3U+v9y7/aXh2giQRWvVw1H7xYwoHf0RGwEAAABeaE7udf14B4A35m7xAAAAAGBzpTO2jsqZ+0X97gWRlVYb0EojUbMWrSfu6Xw0QPnYPTwXAQAArHd97m/7bgNAqZBsl//gRQ8AAAAANtm0SVGev0/U7zknWmsei2g1DWWlkb4hQKMarcfvjurl0yOdu4vnJQAAoN8V27PwfrwDwJccfAAAADZV6Yjdo37nmdFau9zt/qVu2AhQHYzm0tuicu53ojhjK89TAABAP/tS/20AmJKc7sADAACwUaZPjtKhu0Xt+qMiK63pfBa5pC6r1YzmY7dE5fQvRTpz2yhOHee5CwAA6DfH9uMdAB5y4AEAANggAxOjdOi7onrJj6P11K8NWKUe2QhQv/3UKM//bKSztvM8BgAA9JOH+m34/ze5lgMPAADAyxsX6UFviep5/xqNh66MrFYyVJV66nMBWtFasyzqNx0bpWM/HsWBCZ7XAACAftCehf9NP20A+Idc5sADAADwcson7BWNey+IbPApg1Spl2vWo/XEvVG9Yqa7AQAAAP2gPQv/h37aAHCkDQAAAAC8lPaAsHbV3GitWRrRahieSmPlhgCVwWg89Mson/r5KE6b5PkOAAAYyxsAjuyL4X9aSF6d/7D3OegAAAC8wNT1t/uvnPev0Vq5uHPrcEljchtAZNVi1O9eEKWjPxLFaZM9/wEAAGPOYCG5pT0b74cNANvmP/ASBx0AAIDfmr5FlE/+TDTuPa9zq3BJ/VFr1W+iesmPIz3knZ4HAQCAsWZJezY+9m//PyX5Qv7DrnLAAQAAaCsd9p6oXj49WqsfMw2V+vF+APVyNBZdHJXT9o105jaeFwEAgLFiVXs2PuY3AAwWkoPzH7bqgAMAAHjXf+WML3c+DzyrDpqCSn19K4BmtFY/GrXrj4rSobt1PhLE8yQAANDjKoOFZNZYv/3/6/Mf9KJc5oADAAD0r/SgnaJ28wmRDT7VGfxJUuduALVSNJffGeX5n/VcCQAA9Lr2TPznlULyurG8AeAt+Q95h4MNAADQj8ZFOnPrKJ++b7SeWRKRtUw7Jb3YNoCIRjVq1x0RpUN2jeLARM+fAABAr7q9PSMfy7f//0z+Qz7hQAMAAPSZaZOi9NO/i9qNx0ZWftZ8U9IGfCxAI5qP3hKVs74a6aztOpuIPJ8CAAA95on2jHxMDv8rheTV+Q/441zNgQYAAOgj0ydH5dzvRPPRmyOaNUNNSRu3D2Dt8qjdeEyUjnif51MAAKDXtGfj/xmF5FVjbgNA/oP9Ze5EBxkAAKB/pHN2jtr1R0Xr2SdMMSVt+ocCNKrRfPSmKJ/+pShOm+z5FQAA6CXH5V4/9jYATEm2zn+waxxgAACA/lA+6dOdgV3Uy6aXkoZiG0C01iyN2pWzIz1wB8+zAABAr7imPSsfU8P/KCTtOwB8KPe0AwwAADCGTR0X6ew3R/WygcgGn+4M7CRpaPcBtKL5yLVRPv6TnY8Y8dwLAAB0ufaM/EPtmfmYqVxIXpMWkv0dXAAAgDFsYEKUjvlYNO49L6JZN6SUNLz7ANY+HtWFP4l09o6efwEAgK6WFpKvVwrJq8fO7f8Lyf/IHe3gAgAAjNG/yM7cJirnfDuay+4wlZQ0cpsA6uWo33xClI78gOdiAACgmx2e+7OxtAHgDbkbHVgAAIAxOPyf97aoXXNItNYuj8jc8l/SCNeodj4SoHLaF6M4bZLnZQAAoBu1Z+VvGEsbALbIVRxYAACAMWTquCgd9aFoLLoksmqx/V5cg0hJo1OrGa01S6N68Q+jOH0Lz88AAEC3ac/KtxhLGwD2c1ABAADGkOlbRmXBNyNbs9S7/iV11UaA+q/OjXTOzlGcOt5zNQAA0E32G0sbAE5zQAEAAMaGdO5bo3r5tMgq6wwbJXVfWRbNZbdHef7nonjAlp63AQCAbnHyWNoA8LADCgAA0OOmju/c8r9+55nP3fJfkrp1E0ArWisXR/XC70c6azvP3wAAQDe4f0wM/9NC8jf5D1NzQAEAAHrYwIQon/wP0Xzkuoh6xXBRUm/sA1i3ImrXHR7pQW/xPA4AAIy2Wnt2PhY2AOyZ/zCZAwoAANC7Kmd/K1qrHul8vrYk9dQmgGoxGg9cGunsN3s+BwAARlOWFpK/6/kNAIOF5EAbAAAAAHrRuEhnbR/Vq+d517+k3v9IgCfvj/KJe0dx2iTP7wAAwKhsAChOSX7c8xsA8h/kUgcTAACgxwxMjNIR74/GXQsi6mXDQ0ljotaqh6Ny7r9EOnNbz/MAAMBouLTXh/9/kXvQgQQAAOghU8dH6bhPROOhKw3/JY29mwGsWxHVK2ZFeuD2nu8BAICR1p6d/0UvbwD4QO4JBxIAAKB3VE77QjSX3xXRapoUShqbmwBKq6N+y0mRztrO8z4AADCSlqeF5N29uwFgSvLP+Q/xrAMJAADQI8P/s74SrTVLTQcljf3q5Wjcd0Gkc3b2/A8AAIyUtcUpybd6cvgfheQPBgvJUfkPUXcgAQAAutm4SGduE9XLpkWWrjIUlNQ/tRrRfPTmKJ+4dxQHJjgfAAAAw63enqG3Z+k9twGgXEj+PP8BLnEQAQAAulv73a/1m46NrJYaBkrqy5rLbo/y6ftGcdok5wUAAGC4XVQpJH/We7f/LyRvyd3uAAIAAHTx8P/gd0b9puMiqxZNACX1980AVj4clXO+7dwAAAAMt1ty2/fiBoC9csscQAAAgO59539j0cXe+S9J/7UJYM3SqPz8O1GcNtl5AgAAGC7tGfpePbcBYLCQfDf/xssOIAAAQBcO/w/ZNRr3XxTRrJv4SdLzyp59IqqXDfg4AAAAYLiU27P0nhr+p4Xkz/Nv/BgHDwAAoMsMTIjyCXtFc9kdEVlm0idJL7YJoLw2alfMinTW9vlz5zjnDgAAYKgdVi4kr+ulDQAT8296oQMHAADQZcP/kz4dzaW3mu5J0oZsArjpuEjnvtX5AwAAGGoL2zP1ntkAkH/Db83d68ABAAB0j/Lxe0Zz6W2mepK0oTXrUb/tlEgP3MF5BAAAGErtWfpbe2kDwB65ogMHAADQJcP/k/8hmsvuNMyTpI2tUY3azcdHOntH5xMAAGCotGfpe/TK8P+Pcv/uoAEAAHTJ8P/M/aK1YlFElhnkSdKmfBxAtbh+E4A7AQAAAEPn22kheU3XbwDIv8nX59/sKQ4YAADAKJs2KSpnfytaqx9rj69M8CRpM+8E0Pk4gLlvzZ9jxznHAAAAm+uU9my96zcADBaS/5W7wwEDAADoguH/M48a2knSUNWsR/3W+c9tAnCuAQAANsutg4Xkjb1wB4Bt8282dcAAAABGT2XB/tFabfgvScOyCaB9JwAfBwAAAGyeNblJvbAB4BMOFgAAwOgpn/mVaD2zxJBOkoarRjVqNx8f6ewdnXcAAIDN8dGu3wCQf5MHOlAAAACjOPxfuTgiMgM6SRrGsmpx/SYAdwIAAAA23YHdvwFgSnKdAwUAADDCBiZE+YS9orX8LsN/SRrBOwF0Pg5g7lvz5+JxzkUAAMDGmZJc09XD/0oh+aPBQpI6WAAAACM8/D/p09FceqthnCSNdM161G+d704AAADARhssJKvaM/au3QCQFpJt8280c7AAAABGTvmEPaO59DZDOEkaxU0AtStnR3HaJOclAABgY2TtGXv33v6/kHzOBgAAAICRk87ZOZq/ud7wTZJGuay8NqqXDURx2mTnJwAAYIM3ALRn7N28AeAIBwkAAGDkhv+Ney/ovPNUktQFmwCKT0etswnAnQAAAIANdkRXDv8rheS/DRaSmx0gAACA4TYu0kN2jcaihRGthombJHVRrTXLonLOP7sTAAAAsEHaM/YoJH/QdRsASoXkjfk3uNhBAgAAGP53/tdvOSmyRsWkTZK6cRPA6seictZXozgw0XkLAAB4JQ9WCslfdOPt/3fLLXeAAAAAhnH4f8CbonbNoZFViyZsktTNmwCeuCfKJ33auQsAAHgl7Rn7bt23AWBK8o38G1vjAAEAAAyf6qWFyNLVJmuS1AubAB6/O0qH7Or8BQAAvJw17Vl7120AGCwkc/NvruoAAQAADI/Kqf8YWXGliZok9UpZFo1FCzsf3eI8BgAAvIRqe9beVcP/eiH5k/wbO8/BAQAAGAZTx0fltC9Ga81SwzRJ6rnbADSice95kc5+c/6cPs45DQAAeDHntWfu3XP7/0LyptyNDgwAAMDQD/9Lx348msvuNESTpF69EUAtjdr1R0V64A7OawAAwIu5PrdF92wAmJJ8JP+GHnFgAAAAhtK4KB3+3mg8cFlEq2mCJkm9vAlg3YqoXvSDKE7fwvkNAAD4XQ/k3tdNdwD4Um6VAwMAADB00pnbRP320yLqZZMzSRoDtdYui8pZX3GOAwAAftfTuS900waAH+SaDgwAAMDQqV4+LbJaycRMksbSJoCnH4r04Hc6zwEAAM/XnrX/oFuG//8zN99BAQAAGCIDE6Jyzre981+SxmJZFs1ld0Q6dxfnOwAA4PlObs/eR30DQFpItsy/kSsdEAAAgCEwdXyUT/5MtFYuNiSTpLFasxaNuxdEetBbnPcAAID/sjAtJBO74Q4Ab83d64AAAABsvtJRH4zmI9dGtJoGZJI0lm8EUF4btSsPjHTmNs5/AABAPDdzf2s3bADYI1d0QAAAADZPOmenqN92SkS9YjImSX1Qa/WjUTlzvygOTHQeBAAA1gwWkg+P6vC/Ukj+MC0kX3EwAAAANtP0LaJ66dTIqkUTMUnqm9sAtKK5YlGUDnuP8yAAANBKC8l+7Rn8aL77/7W56Q4GAADAZpg6Liqn7RtZddAwTJL6bxdANB+5zkcBAAAA8dzs/bWjuQHgr3IXORAAAACbrvTTv4vWM0vMwCSpj+8EULvh6EhnbO28CAAA/a09e/+r0dwA8L9z9zsQAAAAmyad97Zo3H9xZ/gjSerjPQDpM1E5/1+jODDB+REAAPpXe/b+v0dzA8AWuaIDAQAAsAnD/wO2jNov57j1vyQpIsui9eR9UT7xU86RAADQv9qz9y1GcwPApxwEAACATVM5c79orVnanvoYfEmSIlqNaNzz887dYZwnAQCgb3141DYApIXkJw4AAADARpo6LkrHfiyay+80/Jck/c6dAJpRu2pOpDO2cr4EAIB+vGNkIfnhaN4B4OcOAgAAwEb+RW72jtG49zxDLknSi+8BqKyLyllfc84EAID+dNpobgB4xAEAAADYONWLfxjRrJtwSZJesuaK+yM9+B3OmwAA0H8eGZXhfxSSP8q/eM0BAAAA2HCloz8crTXLTLYkSa9wG4BW1G+dH8Vpk50/AQCgv9Tas/gR3wCQFpJt8y+eOQAAAAAbJp21XTQWXdIZ6kiS9Ip7ANJnonrB951DAQCgv2TtWfxobAD4og0AAAAAG2j65KhdPS+yatFES5K0wbVW3B/lE/eO4tRxzqUAANA/GwC+OOIbAIpTkmkWHwAAYAMMTIzKz74erTVLTbIkSRu5A6ARjbvPjnTuLs6nAADQL6Yk00Z8A8BgIbnA4gMAALyy0qHvjubDVxtiSZI2qfbdY6qXTo3i9C2cVwEAoA+0Z/EjOvyPQvLf8y98j8UHAAB4BTO2itp1R0TUyyZYkqRNvxHA2mVROu4TzqsAANAf7mnP5EdsA0BaSCbmX/Q3Fh4AAODllU/9QmSVdSZXkqTNrrn4KudWAADoD79pz+RHcgPAHvkXXWHhAQAAXlo6Y+toPXmfiZUkaYhuA9CI6mVTozh1vPMsAACMbSvaM/kR2wBQnJJ8I/+iayw8AADAS5g2af2t/1tNAytJ0tDtAVi5OMrH7OE8CwAAY9ua9kx+xDYADBaSefkXrVp4AACAF1c+eZ/I1i43qZIkDW3NWtTvWhDp7Dc73wIAwNhVbc/kR2T4Xykkf5x/wXNymYUHAAD4fem8t0Xjvgsjmg2DKknSkJcVn47Ked+N4sAE510AABib2rP4n0UhefXw3/6/kLwxd6VFBwAAeBEDE6J60Q8iKz9rQiVJGqYdAFk0l94WpaM+6LwLAABj1xVpIXnDsG8AyL/I2/MvdrcFBwAA+F3jonzCnp3PZ5YkaXg3AbSidv2Rkc7cxvkXAADGprvTQvK24b8DwJTk4/kXW2LBAQAAXig9cPuo33G6oZQkaWT2AFTWReX0fZ2DAQBgbFqc+/BIfATAV3NrLTgAAMALVc7eP7JaaiIlSRqxmo/dEumMrZyHAQBg7GnP5L86EhsA/jPXsOAAAADPe/f/rO2i9eR9JlGSpBG+DUArqpf82LkYAADGnvZM/j+He/j/57mjLTYAAMALVS+fHtFqGERJkka81pP3R+mQXZ2PAQBg7GnP5v982DYADBaSN+ZfYIGFBgAA+L9KR380WqseMYGSJI1OzVrUb50fxelbOC8DAMDYsqA9ox/OOwBsn7vJQgMAAKyXztw26refGtGoGUBJkkbvLgBrlkblZ1+L4tQJzs8AADB2tGfz2w/fBoApybvzL7DEQgMAAOSmju8MW7K1y02eJEmjvAOgGY37L4r04Hc4PwMAwNjxcHFK8q7hvAPAx3NlCw0AAJBEOu9t0bjvgoisZfAkSRr1ssq6qF7wvShOm+Q8DQAAY0Mxt8ewDP8rheQP00LyFYsMAACQG5gQlbP3j6yWmjhJkrqm5mO3RDpnZ+dpAAAYK29AKSRfac/qh+Pd/6/NTbPIAAAASZQO2TVaTz1o0iRJ6rLbALSidvU852oAABg7BnJ/MhwbAP5n7ucWGAAAIInadUcYMkmSunMPQHFlpAft5HwNAABjw+lpIfmL4dgA8Ibc9RYYAADo+3f/H7pbZMVVJkySpO69C8B1h0dxYKLzNgAA9L72jP4NQ74BYLCQTMh/42UWGAAA6Pt3/994TESracAkSeraWqsfjfLxn3DeBgCA3resPasfjjsAvClXt8AAAEBfv/v/6A9Ha+VikyVJUnfXqEb95hOiOG2S8zcAAPS29oz+TcOxAWBPiwsAAPSzdObWUb/tlIhGzWBJktQDdwFYEuXTvxTFqeOcxwEAoJdfkyokHxyODQD7W1wAAKBvTR0XlTO+HK3Vj5koSZJ650YAdy+I9KC3OI8DAEBv2384NgDMtbAAAEDf7rSeveP6d/+3mqZJkqSeKRtcEZXT943i1PHO5wAA0LvmDscGgIUWFgAA6Nd3/5dP3idaa5ebJEmSeq76XT+LdNZ2zucAANC7Fg7HBoD7LSwAANCX7/6fuU3Ub50fkbVMkSRJvXcXgGoxysd/wjkdAAB6121DOvyPQvKq/DdtWlgAAKAflY/7+87wRJKkXq3x68ujODDBeR0AAHpTsz2zH7INANVC8jf5b5pZWAAAoO8MTIjGfReYHEmSertWM8rHf9J5HQAAelPWntkP2QaAtJC816ICAAB9+e7/Yz8eWXXQ4EiS1NtlWTTuvyjSA7Z0fgcAgB7UntkP2QaA/Dfc16ICAAB9Z9qkqN+9ICJrGRxJknp/D8C6J6M8fx/ndwAA6E37Dt0GgCnJbAsKAAD03bv/5+8TrTVLTYwkSWOjZi3qt57U2eDmPA8AAL1lsJBMGco7AJxqUQEAgL579/8dp0e0GgZGkqQxU2vl4ijP/2x+rhvnXA8AAL3l1CHbADBYSG6zoAAAQF+9+//EvaP11K9NiiRJY2wHQCPqNx8f6cxtne8BAKC37gBw21C9+//1uYcsKgAA0C/SA94UtWsO7dwqWZKkMbcH4OmHonTc3zvnAwBAb3kwLSR/OhTv/t8x/80es6AAANDNA+sto3TIrlE6Yvco/fRDUTlzvxc666tROf97UbtiZkflvO/m/+wrL/xvTv3H9b8+l85+c1+vZ+moD0Zz2Z0mRJKksVmzFrVfzIji9C1dRwEAQO9Ykps8FHcA+HjuKQsKAACjbPrkKB/3951hfnXhT6J+8wlRv+tn0Vx+d7Se+FW0nn6w87m+rVWPRLZuxQsN5tLVkVWL66Wrfv+/efbx/Nc/vP73WLGo8/s2Hvpl1G87JWpXz4vKOd+K8ol7RTp7x7G9zgMTo3LB9yIaVQMiSdLY3QOw7I5I5+zi+goAAHrHitwem78BYEryT/lvtNqCAgDAcBrXGTynM7buvPu+/W7+ymn7Ru2Xs6Ox6JLOcD+rpRH1yvrBdLMe0WpGZK3hnQ5k2fqv02rkX7fW+fpZrRRZaXU0HvxF1G74aVQv+LcoHfG+SOfsFOms7aI4fYsoTh3Xu3dTmLNzNB+7xWRIkjS2y68hqud/zzUYAAD0jtXt2f1Q3AHggFzZggIAwDAMmw/cIUpHfiDK8z8b1Qu/H/Xb5kfz8bsjq5d7bo7QeuY30XhgYdSumNX5SIHSsR+P0ry3R3HapJ46JpWffd1QSJLUH3cBWHpr5w5DrskAAKAnlHIDm70BYLCQnJj/Rk0LCgAAQ2Dq+Ejn7hLlUz4X1Yt/GPXbT43m8jsjK68dYxOFerSeWdK5e0HtlwdF5exvRenoj3TucNDVx2fapGgsvspESJLUH7WaUT5pb9dnAADQGxq5ozdr+F8pJH+c/ybnW0wAANjMd/rP3jHKZ+wXtZuOj+ZDV0Zr1SP98xnzrWZkxZWdjQ6N+y+K6kU/iNJRH+zKOwOUj/3Y+o9akCSpH8qyqN9zjms1AADoHee3Z/ibc/v/N+Z+aSEBAGDT3k1ePunTUbv5+GguuzOydU923hnf97OG0prOBojGooVRveB7kc7ZpWuOWf2WkzqfiSxJUt/cBGD1o1E++qOu2wAAoDe0Z/dv3OQNAGkheWv+G9xtIQEAYANMnRDpzG07726vXVqI1opFEfVK5x3wEZkJw+/tBGhFNGuR1UpRv/OsqJz+pUgPeksUp2+Rr+e4ET9+pcPeE62Vix0XSVJ/lZ+L2xvgigMTXMsBAED3u7s9w9+cOwB8OLfYQgIAwMsYmBClI94XlQXfiMavzu28w12b8hbEZrSefihqV82J8gl7dT42YeQ2b4yP6i9mRFYddBwkSf23B2DZnes/nsd1HQAAdLuHch/cnA0A++ZWWkgAAHgR0ydH6diPRfXyadF87JbOO9k1RHsBVj8W9TtOi8qCb0bp4Hd0BvTDeSzTOTtH49eXuf2/JKkvy0qro3LBvw/7+RYAANhsK4pTks9tzgaAf81VLCQAADzPtElRPunTUbvh6Gg+fk/n1rkajmlEFtng09F46IqoXvKjKB3yzhiujwaonPHlyNYsteaSpD4957aifucZkc5+s+s8AADobulgIfnnzdkAMMUiAgDA/1U68v1Rv3tBtNrD4kbFwGCkNgKU10Tr6Qejetm0SA/cfmiP64ytonbdEZ2PIJAkqV9rPbMkyifs6XoPAAC6W5b78SYN/9NC8j/yX/xTiwgAQF+bOi7SGVt1bvVfv+P0zi1yIzMoHrWa9WitfjSqlw1E6ZBdozht8uZv6jhmj2iuWGRtJUl9v+GuunDKkJxbAQCAYXVIuZD8yaa8+/+vc6dZQAAA+tb0yVE+/pNRv3V+ZMWVBgPd9k7Fpx/qDCpKh74rigMTNu0YD0yM6kU/sJiSJLX32S27I9K5u7gGBACA7jY/91ebsgFgUm6hBQQAoO8MTIjSEe+L2hWzovXUr00DurlGLRoPXRGV874b6UE7bfSxTg/cIZoPXWkdJUnq7ACoR3n+Z10LAgBAd7swN37jNwBMSbbLf+ENFhAAgH6Szt4xqhf/KJpLbohoVAwCeqIssnRVNH51bpRP+0IUp2+xwce79NMPR1ZNLaEkSc9Vv/MM14QAANDdrs5ttSl3ANg1t9gCAgDQL0pHfSgaDyyMrLSm8zm46rFajciefTxqNx0f6cxtN+iY1y4bsG6SJD1/W115baSz3+zaEAAAuteDuXduygaA3XPLLSAAAGPawIRI570talfMjKxWishaXvkfAxsBWqseieq534l05tZRnDruJY79xGg9s8R6SZL0gh0Araie/2+uEQEAoHsty713UzYA7G3xAAAYu8ZFOmu7qJy5XzQfu7UzNNYYm19Ui1G/44woH/+JKE6f/Pt3fDjxUxHNmoWSJOmFZ9BoLr46itMmuV4EAIDuVBssJJ/cqOF/Wkj+MP+F/2TxAAAYq0qH7ha1aw+P1trlXucfy7XvBrBiUVQvnRrpQS+8nXH9tlPc8UGSpBc7fa5ZGqWjPuiaEQAAutcXKoXkVRvz7v8/zv3QwgEAMBaVT/5MNB+5NrJa6hX+fnkvY3Uw6neeGeWjP7J+A8jB74zWUw9YGEmSXuy8WVnX2TznuhEAALrW99NC8v9szB0A/iz/RYdYOAAAxpRpk6J60Q+itXKxV/b7sUYtmsvuiMqZX4nKed+NLF1lTSRJetEdAK1o3HdhpDO2dv0IAADdadZgIXndxtwB4C9zCywcAABjwtTxUTrsPZ13gGe1UvtVbS/s9+1AI+vcDSBLn4loNa2HJEkvUeuZJVE+9QuuIwEAoDud1Z7pb/gGgCnJ3+a/4CoLBwBAzxuY0HnxuvnYrV7JlyRJ2sCyRjWqV8zKr6Umup4EAIDuszD31xtzB4Akt8jCAQDQy9KZ20Tl7G9F9uzjXsWXJEnayBqLLol03ttdVwIAQPdpz/KTDd4AMFhIJua/4CkLBwBAzw7/5+wctavnGf5LkiRtYq21y6N84t6uLQEAoPs81Z7pb8wdALbKtSwcAAC9qDTv7VG//bTIKusiIvPqvSRJ0ibtAGhG9eIfRnHaJNeYAADQXdqz/K02eANAWkg+aNEAAOg5U8dF6Yj3R3PJjRGthhftJUmSNrPGooWRzt7RdSYAAHTbHVALyQc35g4A/2TRAADoreH/hCifsFc0l93hlXpJkqQhKiuujNJh73GtCQAA3eefNmYDwBQLBgBAzxiYEOVTPh+tFYu8Si9JkjTEVc76mutNAADoPlM2ZgPAkRYMAIBeGf5XTv1CtB6/p/M5tZIkSRra6nef7ZoTAAC6z5EbswHgKgsGAEDXmzYpKgu+Ea2nHzT8lyRJGqZazz7huhMAALrPVRuzAeAuCwYAQHe/839iVM79l8jKz0ZE5pV5SZKkYdsB0Izy8Z90/QkAAN3lrg3eADBYSEoWDACArjV1QlTO+KfI6mUvyEuSJA13WRa16w53DQoAAF2kPdPfoOF/pZC81oIBANC97/yfEOVTPh+tFYu8GC9JkjRCNZfcGOkBW7oWBQCALhKF5DWvuAEgLSRbWywAALp1+F859QvRevyezq1oJUmSNDJla5ZF6ad/53oUAAC6SKmQTH7FDQD5f7izxQIAoBuVj/tEtJ681/BfkiRppDcAlNdG9aIfuCYFAIDusvOG3AHgkxYKAICu2816xO7RfPTmzmfQSpIkacS3AETj3vOjOHW8a1MAAOgS7dn+htwBYH+LBQBAV13IHvSWaCy5wevukiRJo1hzyY2RHrKr61MAAOge+7/yBoApyY8sFAAAXTP8P3CHqN98glfcJUmSRrnWqkeifMrnXKMCAED3+PcNuQPAcRYKAICuGP4fsGXUrjwwsmrRK+6SJEmjXPuarHrxD12nAgBA9zhyQzYAnGyhAAAYdQMTo/Lz/xPZ2uXtl5u94i5JkjTqOwCyqN10XBRnbOVaFQAAusPJr7gBYLCQ3GShAAAYVVPHR3n+Z6O1crHhvyRJUhfVfPiaKB32HterAADQBQYLyRUbcgeA+y0WAACjqf2icvM313mFXZIkqctqrV0e5ZM+7ZoVAAC6w/0vO/xPC8mf5v/RgxYKAIBRM21S1G892avrkiRJXbkDoBGVc/8ligMTXLcCAMDoe7A943+5d/9Pzi2xUAAAjJbKed+NrF724rokSVKXVr/puEhnbu3aFQAARl97tj/55TYAbJ171EIBADAayifsGa2nH/KquiRJUhfXePiaSA/ayfUrAACMvvZsf+uX2wCwV+5pCwUAwEhL5+wUjUWXRLSaXlWXJEnq4rL0mSgd+i7XsAAAMPpWpIXkIy+3AWDv3EoLBQDAiA7/Z2wVtV/OjqyyzivqkiRJPVDp2I+7jgUAgNHXnu3v/XIbAL6eW2OhAAAYMQMTonzGl6O1+jGvpEuSJPVIlXO/4zoWAABGX3u2//WX2wBQyKUWCgCAEXv3/5ydo7n4Kq+iS5Ik9VDlUz7nWhYAAEZfe7ZfeLkNALNyZQsFAMBIqV02LaJR8yq6JElSD1U68v2uZQEAoAc2AJyVyywUAAAj8u7/uW+NrLzWK+iSJEk9VPujm9KD3+l6FgAARl97tn/miw7/o5C8Kv+XZ1skAABGZPg/Y6to3HehV9AlSZJ6rPqdZ0Q6azvXtAAA0B0WvOgGgHIh+X/zf7nQAgEAMBIq5/xzZKXVXkGXJEnqqel/OSrn/ksUBya6pgUAgO5wUe5PX+z2/0nuagsEAMBwKx26WzQfuTYia3kRXZIkqYdqPX5PlI7+iGtaAADoHu0Zf/J7GwAGC8nk/F9cb4EAABhWAxOjetnUyKqDXkGXJEnqseo3nxDpjK1d0wIAQPe4vj3rf7E7AOyWu98CAQAwrO/+P/rD0Vx6m1fPJUmSeqxs3RNRWfCNkblunDo+itMm5Sb/VnrAmzqbD9KZz8n/f3H65Bf8Ny/Q/j1cfwMAMPa1Z/y7vdgGgPfnfm2BAAAYLumMraJ27aFePZckSeq56X8WjcVXRTrv7cNzrZhfJ5aO+lCUj98zyqd8PioLvtm5a1T1F9N/q37jMdG45+xo/OrnHfVbTojaFTNf8N/81uXTo3LOtzu/12+d+OkoHfuxzkcYlA7fvfOxVKWD3xnpgdtHOmu79ZsGXLMDANB7Hsjt/mIfAfAP+b943AIBADBs7/7/6d9Fa/VjXkCXJEnqtfl/LY3qVXOG5xrxyA9E7eqDo/nEvZEVVw7fz1AZzK9FH43WysXRfOyWaD58TTQfvDzqt54c9VtOjNpVc6N66dSonPfdqJz11Sif+Kn8e3t/pHN2iuLABNfzAAB0q6W5PV/sDgD75lZaIAAAhkvt+iO9ei5JktSDtdYui9Ixewz98P/oj0bjgcsimrXu2exQWRfZuiej9dQD0Xzs5mj8+vKo3/WzqN14TFQXTonK2ftH+YQ9o3TE7q7xAQDoBu0Z/742AAAAMKLSg94SWXmtV88lSZJ6riyai6+K4sDEob0+nLtL1O88K6JR641laNbz69lnIxt8av2dBJ5+KJpLburcQaB6aSHK8/eJ9MAdXPsDANAdGwAGC8n3839Rs0AAAAy5qeOjdsNPvXYuSZLUi7WaUTlzv6G9PhyYGNXz/y2yWmkMrE+js4mh/bO0P2ag+eR9Ub97QVQv+VGUT9o70nlvj3TW9lE8YMvOdbG/HwAAMMRKg4XkOy92B4ApFgcAgOFQOupDkT37uBfPJUmSenG+vWZppO3h9VC++3/OTtF44NK+WL+sXo7mkhujfv2RUVnwjSgf/4koHf6eSGdu4+8KAAAMlSk2AAAAMDIGJkTtuiM6L3xKkiSp96rdcPTQbxA9/L2RrXuiD3dTNPKfe8X6DQE3HRfVi/4zyqd+vrMhYKg/YgEAgD7eAFApJK/J/+GBFgYAgCF/cffID0Rz6W0RWebVc0mSpB4rq6VRPn7PIb9GrCz4psVt16hG65kl0fzN9VG/q/2xAT+J8rEfi/SAN/m7BAAAG+PA9sz/txsA0kLy+vwfHm9hAAAYau0XMbNq0Yu7kiRJPVjzkWsiPWinob1GnDou6necbnFfbMNFeW20Vj0SzcVXRe3qeVE65qP+TgEAwIY4vj3zf/7t//8yd5KFAQBgSN/9f+i7ovngFV7JlSRJ6sVajc4t6ovTJg3tdWL++7XWrbC+L7sTIIto1jt3YGitejhqN/w0yifuFensN6+/O8DU8f6+AQDA87Vn/X/5/A0Af507zcIAADCU7+yqnPHlyIqrvIArSZLUi/P/J+6N0tFD/w708tEfsbibekye+U3Ub5sflbP373zUVjpr2851t79/AAD0vVNyf/X8DQCTcgstDAAAQyWduU3UbzzWq7SSJEm9WNaK+m2nRHrg9kN+nVi78kDru7k169F6/J6o33z8+s0AR7zP30EAAPrbhbnxz98AsHXuagsDAMDQ3f5/t2itfsyLs5IkSb04/0+ficq5/zIs14nNJTda4KE8VoNPR/PRm6J2/VFRnv+5SGdu6+8jAAD9pz3r39oGAAAAhk314h923jkmSZKk3qv56C1ROuzdQ79J9Mj3R/bsExZ4OGrUorVmWWeDRe3y6cNy/AAA6JENAIOFZJf8H9xjYQAAGBJTx0fzsZu9CCtJktSL1ctRu+6IYfls+eqlUyKrDlrj4SzLOpsBsmoxGg9cGpUz91v/UQ7TJvl7CgDA2HVrcUqy4/PvAPCe3KMWBgCAIXln1yG7euFVkiSpV+fHzz4e5eM/OfTXidMmR/2en0e0mhZ5JGtUo7nsjqgu/EmUjv5oFGds5e8sAABjT3vW/x4bAAAAGBa1K2d7oVWSJKk3x//RePjqYXm3eOnw3aO57E5LPIq1nn4watceFpXT9430oDf7uwsAwFjdADBYSD6Y/4OnLQwAAJsrnbF1tB6/26urkiRJPTn/b0X1/O8Ny3Vi5Wdf79xdQKN9jJuRrVkajfsujOqF34/Swe/w9xgAgN73eO59z78DwJ65hoUBAGBzlY/7RGTrnvTCqiRJUi/OhosrI5217dBfJw5MjNo1h0a0Gha5izZ7ZKXV0VqxKKqX/CQ/7tv7+wwAQO+q5T75/A0Ae1sUAAA237ioXXlgZLXUC6qSJEk9WP3OM4bnLlHz3h6NRQstcLfWqEZr5eKoXjYQpUN3i+L0LfzdBgCg9+zdGf5HIfmD/P98xoIAALDZL+z+/+zdB7Rc1Z3oaU3PTK+Z8Ztes16PV/db7816V0iIbLAx4Iyx3c42tts4tG3AptuhsdvtnM1VlhBCgMgiiIyIQmABIoMIIogcJYJAOevWqVzn/KeqZJINSLpS3Xur6vut9b3lZxupvavuubv23ufU5H2ituhWC6iSJEltWFbON5/m1JKnRJ19SKRrnzPI7fA+2Lg0yrdNj/wpn4xkwu4+5wAAtI+vNfb+hxV6e/426e35kQEBAGD7F3a/Gunqp62aSpIktWG1xbdFMuXdLXj8/4gozv5ZZNWiQW6j0pVPRPmWY6NwxhcjN35Xn3cAAIb6zVm9PT9q7P03Hv//trpegwIAwPYqXfO7yIqbrJZKkiS13W5vNUrXjo7cuFE7fiFy0juics9Zxrgda3w1wPJHozz/lMif/rnmV3753AMAMGQ19vzf5gAAAAA7ZmF3wh5RuefsiCyzUCpJktRu+/9rn43CmV9uzTzxuPdHuuwhg9zOVQqRrlkc5dunR/74D/r8AwAwlA8A9PX2/F39X0w1IAAAbI/89I9EbfHtFkclSZLarSyLygMXRXL0u1r0NVFfqf8dNePcCdUqzYMApT/9PpKpBzS/3sFnIQCAIWNc3X9pPAHg7XWXGBAAALZrYfecr0e6calFUUmSpHbb/8+vjeKVP23NPHH08CjferxB7sSzAEsWRPHyH0cydX+fhwAAhobGnv/bHQAAAGD7jRkRxdm/aH53rCRJktpsI/eFeyI//aAWHQDYKWrLHzXInVq1FNWHr4jiRf8ayZR3+VwEAOAAAAAAnSCZuFdU7j7TAqgkSVLbbeAWo3LX6ZEbu3Nr5onHvqf52Hh1cFka2cZlUbn/wijM/Hrkxo3yGQkAwAEAAADa+gDA1P2jtvg2i5+SJEnttnfbtzKKF3y7ZfPExlcLqFsOk5QjXf9ClG+ZFsmEPXxOAgAYxAMA/7PuEQMCAEB/5U/4cGQbl1r0lCRJarNqz98VuTEjW/T4/+FRffJ6g9x1b6pypCsej+KFR0Qyfrfm+8BnJgCAAbEgd1TP/9c4ANBT97gBAQCgvwrnfsNCpyRJUruVpVGc/YuWPiUqXf+ice7Wt1epLyr3nR+FGQe37CsmAAB4ncaef48DAAAAbLfy9eOscEqSJLXbBm1+XSRT3t26x/9f8oPm36HuLl35eJSuGx3JMfv77AQA4AAAAABD3/CoPnSZlU1JkqQ2q/rIla09JHrXjOb3wktZpRDVR+c0nxzWsq+cAADAAQAAAHbMAYDai/db1ZQkSWqziud9q3WP/5+8T1QX3drY+jXQ2lxai3Ttc1G+5dhIpuzrcxQAQAsPAIyoW2JAAADolzEjmot5kiRJap9qz98VyTH7tWyOWDjnXyJds9hA6w3efOWoLbkvCmcdErmxO/s8BQCw4zxdN7xxAGB3gwEAQH/ljz/QIqYkSVI7lVajfMPEyI3btTVzxNHDo3z9uIhy3ljrTcsqxShd8/tIph5Qf8/s5LMVAMCOsbsDAAAAbJfi+YdZvZQkSWqn/f/1S6Jw1pdb+Pj/vaPywMUGWlt1CKDy0OWbnwYwbpTPVwAADgAAADDYSlf/1sqlJElSG1V9+IqWPv4/f8qnovbi/QZaW1etEunyR6N07VGRTNzTZywAAAcAAAAYTOU7T7NoKUmS1CZlxY1RuuZ3LX3keuHCI5p/j7RN7838+qg+fk1LD6cAAHTLAYC9DAQAAP3VuINMkiRJ7VHtpQcif8onWzc/HL9rlG86prGda7DVj1MAtUhXPhHFC78TuXG7+LwFANCfAwBJb89nDQQAAP1VW3KvhUpJkqS22P0vR2XBzMiN3bllc8Pk2PdG7YUFxlrbdw4gWRvlW6ZFvv5+yo0e7nMXAMDWe0/jCQCHGwgAAPorXbPICqUkSVI7bKr2rYrCRUe0dG5YOP3zkRU2GGxt//u1lIvqg5dE/rTP1t9bDgEAAGylwx0AAACg/3d4Tdgj0rXPWZ2UJElqg2ovPhDJpL1bOD8cHqVrfmugteNKq/X37X1ROPdffP4CAHAAAACAVstPPyiyDS9ZmJQkSRrqZWmUrx/b2vnh6J2i+uT1xlo7/hzA6kVRuuZ3kRs7yucwAAAHAAAAaNkBgJM/HtnGpVYkJUmShvr+f6Ww+fvUWzk/HLdLZMVNBluteAdHVkqisuCcSKa9t3nYxOcxAIA3PwDw7wYCAID+KMw4OLJNy61HSpIkDfGqj85p/dzwgm8baLW82rN3ROHsrzS/csJnMgCAv3JE4wDAVAMBAEB/FC89MrL8OquQkiRJQ7m0GsVZ32/53LCyYKax1sC8pVc9FYXzD4/cmJE+lwEAvN4fGwcATjIQAAA4ACBJktSZ1VY8FsnUA1o6L0wm7BHpsocNtgbuEMCaxVG68meRjN/NZzMAgFed5AAAAAAOAEiSJHVw5VuPj1yLN0kLM74QWd9Kg62BK8uaX0dWmjeheQDF5zMAAAcAAABwAECSJKmz90g3rYjCOV9v+bywdOPkyMqJAdfAv8dLfVFZcE4kx77HZzQAAAcAAABwAECSJKlzqz58eSTH7NfaeeG4XaL6+J8istSAa/De649dHfnpB/mcBgA4AFD/fy4zEAAAOAAgSZLUWWWlXJTm/jFyo0e0dE6YP+2zkS5/1IBr8A8BLL49Cmd/NXJjRvi8BgB0qxmNAwD3GggAABwAkCRJ6qxqSx+K/Gmfaf2c8IqfRpZbbcA1BE69pJEueziK5x/mEAAA0K3mOQAAAIADAJIkSZ1WWo3KAxc3H8/fyvlgUv/zK/NPrf99NWOuIfLer0W6/JEonn945MaM9LkNAOg29zoAAACAAwCSJEkdVrZxaRRmfq3l88H89I9EbfHtBlxD7AcgbX5OKV7xk8iN3dlnNwDAAQAAAHAAQJIkqW13P6P6zM0tv/u/oXDONyLduNSQa2j+JFSKUbzsPwbkZwEAwAEAAADaXuHcb0SWW2VlUZIkaSiV1poHNVs+HxwzIkpX/bL5dQPSkD0E0LcqirN/Frnxu/kMBwA4AAAAAG/5yNeTP958vKwkSZKG0P7/qqcjGYDNzmTSO6Jyz9kGXEP9CECk61+M0p/+UH/P7u1zHADgAAAAADgAIEmS1D6Vrh87IHPBZNr7ovbCAgOuNjgDkEWWrInyTVMimbinz3IAgAMAAADwhgcATvpYZBscAJAkSRoqpSsej+S49w/MXPCUT0ZWTgy62qdqKcq3HT8gT8gAAHAAAACAttN47Gu69jkLiZIkSUNi978apWt7Izd21ADMBYdH6apfGXO1ZeWbj/F1AACAAwAAAPBG0jWLrCBKkiQNgWrLH4n8qZ8ZmHng6J2i8sBFBl1tWVbKRen6cZHzJAAAwAEAAAB4vdrzd1tBlCRJGuwNzXIS5RsmRm7cLgN0AGBE1JY+aODVrj8xka5/MYpX/dIhAADAAQAAAHit6iOzrR9KkiQNcrWXHoj8KZ8cuHngmBERlaKBVxufAcgi3fBSFK/4SeTGjfLZDgBwAAAAABoqC2dZPJQkSRrMfczG3f83Hd18LP9AzQHzJ3/CwKsTfnoiy6/ffAhg7M4+3wEADgAAAEBp7lHWDSVJkgax2ksPRjLt/QM7B7z8xwZenXMMoFKM4sXfG9BDNAAADgAAADAkFS890oqhJEnSYFUtRfHKnw74HLB8+4nGXh1VuvLJKJz7zebXW/icBwA4AAAAQNfKn/Ipq4WSJEmDtf+/6NZIxu824HPA6iNXGnx1Vlka6bKHo3DuN3zOAwDa/gBAn4EAAKDfJuxusVCSJGkw9iuLm6Jw3rcGZQ6YLnvEC6DOK61FbfHtkT/54z7nAQBtfQDAQAAA0H+jh0e67nmLhZIkSQO8UVm+ZVokE3YfhPnfTpGufc5roM49BPDs/MhPP8hnPQCgHVUdAAAAYDsNj9rzd1kolCRJGqiyLGovLBi0u5TzJxwY2calXgd1dNXHronkmP183gMA2o4DAAAAbPcBgMqdp1khlCRJGqj9/9zqKF31y8iN3XlQ5n+FM78UWd9KL4Q6vspdMyKZuKfPfACAAwAAAHSX0pxfWx2UJEkaiGqVqD58ZSRT9h20uV9x1vcjy6/zWqjzD9sUNkTp+nGRGzPS5z4AwAEAAAC6R37GwVYHJUmSBmJDcuOyKMz82qDO/YqX/TCy/HovhrrjZ27DS1G8/McOAQAADgAAANBFBwCO/2CkaxZZHZQkSWpltXKUrvld5MaMcABAGrATAFmkKx6LwtlfjdzonXz+AwAcAAAAoPM1HkFbfXyuxUFJkqSWbUKmUX1q3pCY+zXuhm48Gl3qqvM3z94R+VM+Wf8ZGO4zIADgAAAAAB1+AGD8blG+5VirgpIkSS0qXflE5E/77JCY+5WuGxNZKedFUddVfezq5uFnnwEBAAcAAADobKN3iuIVP4lIq1YFJUmSdnBZbnWUZv8icmNHDYm5X/n26RGVohdG3Vet0jz4PFR+FgEAHAAAAKBlCjO/HunGpRYFJUmSdmRpLSoLzo5k8t5DZt7nAIC6+kDOphVRvPRInwEBAAcAAAAYunfv58aOjNz43SKZuGckk94RydHvbD7asjDzq1G86F+jNPePUb51WlTuPS+qz9zcVHt2fqTrl0SWrN2suKm5QC1JkqQdtdOYRu25OyN/0j8Nqflj+dbjIioFr4+69Ocyi3TZw1E444v1z1LDfZ4EABwAAABgEI3bpbmxnz/+Q83vkC2c9eUoXvajKF3bG5WHL4/qolsjXf1MRDlvYU+SJGmQS9c+F4XzvjXk5pTFy34YWX69F0hdXfXpGyN/woH1nwmHAAAABwAAABggjUfFFk77TBTOOzSKV/wkyjdPjeqDl0Tt2Tuaj+vPPLpVkiRpiO4ulqJ0ze+G5BzTAQApIqsWo3L3mUPq6zkAABwAAADotA3/iXtG/rTPbN7sn39KVB+9KtKXHoh03QuRlRKrdJIkSW1SY2MxN3ZnBwCkoXwIoLgxSlf9YvPXqvk8CgA4AAAAwHZv+I/bJQqnfjqKs38WlXvPidqL9zcf4Z/lVkfUKlbkJEmS2rDqE9dGMu19Q3YOWrz43yLLr/NCSY1DAJuWR/6ED/t8CgA4AAAAwDYaMyKSCbtHMnmfKF50RFTuv6D5vbBZcVNklUJEWrX6JkmS1NY7iVnUlj4Y+RkHR2700P1e8fwpn2puekr686Gdp+b5KgAAwAEAAAC2wrhdIpm6fxTO+GKUZv+8+Uj/bNOKiCy1yiZJktRZu/+Rrns+ihceMeTnqPnjPhjZhqVeMunln95yPsq3HBvJ+N18hgUAHAAAAOAN7vQ//oNRuPCIKN84efOmf26NVTVJkqRO3kBM1kTpT3+ozwVHtsWcNV37rBdNek3phhejePH3Ijd6J59pAQAHAAAA6Ilkwh5ROPOfo3zr8VFddEukG5d5rL8kSVJX7BzWojRvfHM+2C5z19qSBV436bVladSenR/5kz7u8y0AMJhWDuvr7SkYCACAQTJ6p+YjVEtX/yaqT92w+U6qSsHimSRJUhdVue+8SCbu0Vbz2Mq953jhpL+sWorKXTMimbS3z7oAwGBZ2HgCwEIDAQAwgMbuHMmkvaJ40b9G5ZGrIutbsXnTP0stmEmSJHVTaTUqC2ZGMmXftpvTluYe5fWT3qCsuCmKF/9b5EYP99kXABgM9zYOANxrIAAABuAR/xP3jPxpn43ytb2RLn+0+ahXSZIkdWnVUlSfuDbyJ3y4Lee2+VM/5TWU3qTGk93y097nczAA4AAAAEBHbvxP3icK5x8WlTtPi3TN4uadXpIkSerm3cFqVJ+5OfInf6J957gTdo/MV1dJb1plwTmRjN/VZ2IAwAEAAICOMHqnSKbuH8UrfxqVhy6LdP0SK2CSJEmql0W69KEonPmlNp/vjoja0oVeTunNftKTNVG89Ic+GwMADgAAALT9Hf8Tdo/SdaOjtmRBZLnVEVlq9UuSJEmbNwXXL4nC6Z9vHhht9wOvjSdcSXqzH/Y0ai/c09ZP+gAAHAAAAOheY0ZGMmXfKF3180hXPB5RKTZWfCx6SZIk6ZXNwHTNoijMODhyo4d3xBy4eMG3HXaV3qpqKcp3nBzJ+N18ZgYAHAAAAGiPjf8RkZ/+kShd/ZuoLXs4Iq1Z5JIkSdLrS6uRLn1w82P/O2TzvyF//IHNQw2S3rxs0/Iozvpe87Ojz9AAgAMAAABDeuP/oM0b/y/cE1GrWNmSJEnSG27+115YEIVz/iVyoztrAzA5+p1RWTjLayxtoeqT8yKZeoDP0QCAAwAAAENyoXPqAVG6dnTUFt8aWSlnNUuSJElvXJZF9akbNj/2vxPv/q3/byrO/nlk1aLXWnqrS0G1FKW5f4zc6J18pgYAHAAAABgyRg+Pwnnfitqzd0RW2NBc0JUkSZLerNrzd0Vy3Ac7eo6cP/NLka562ostbekQQN/KyB/7Hp+rAQAHAAAABt3YnSN/woFRfejyzXf8Z6nVK0mSJL3Fzn85qk9cG8lxH+j8p2NN3DMq957jcKy0FTU+U+bGjPQZGwBopQWNAwC3GQgAgDd6pOnIyE//SJSuHxfZxmVWqyRJkrSFssiKm6Jy14xIpuzbNfPm4qU/jGzTCi+/tKUrRGFDFC/+ns/aAEDrHNVzdeMAwJkGAwDgL+5kmrxPFK/8adSem+87TSVJkrR1m3vJmijffEwkUw/oqrlzftp7o7boVk/KkrZ4kUij+swtkRz7Xp+7AYBWOalxAOAkAwEA8Opd/4WzvhyVhbMiS9ZaoJIkSdLW7esVNkRp7h8jmbBHV86jS3OPiqzU540gbc214k9/rH/2HOHzNwDgAAAAQGvv+t87SteNiXTlkxFp1cqUJEmStm5DL7c6ipf9KHLjd+vauXT+2PdEuvoZbwZpixeMLKrP3hH5Ez/mczgA4AAAAECr7vrPn/a5qD55XUSl8bj/zKKUJEmStlytErUX74/CWYe4m7d3ePMwrbm0tBWl1SjPmxC5cbv4PA4AOAAAALDDjN4pkqn7R+nq30aWX28RSpIkSVtd4zHelfvOi/zxHzKvfvmJWhP3iHTNIm8OaWuuIRuXRmHGwa4dAIADAAAAO8S4UVE4+ytReejyyJp3/UuSJElbuXGXWxWleRMimbyPefVfPAWgePmPI6uWvEmkrajywEXNJ9K5dgAADgAAAGzXnUl7RmnuHyJd8Vjz0YuSJEnS1paueiqKV/40cmN3Nrd+o7n21P2j+szN3ijSVpRVClGY8QXXDgBghx8AmGIgAIBu2vyvLJwVWX6d1SZJkiRtw85/tbmxXZj5tciNdcfumxozIoqzvhfZpuXeM9JWVH3satcNAGBH+lXjAMARBgIA6HhjR0Z+xsFRW/qgu/4lSZK0TWXJmijfcVIkUw+I3OidzK23dOh2/G5Rvv3ECF8FIG3V9aVw7jddOwCAHeXbjQMAhxsIAKBzDY9k8t5Ruua3kW1cZnVJkiRJW1+11PzaqKLNuW2WP+79UX3mpois5n0kvVVpLaqPXRPJhD1cOwCAHeFwBwAAgM5eeDzhwCjfeXrzrgpJkiRpa8tyq6Ny77mRP/Gj5tX9VLjwO5FueNGbSdrS9WbDS1G8+N9cNwAABwAAAN5ywfG0z0b1mVsiqxatKEmSJGnrSmtRW/5IlOb8OpLJ+5hXb48xI6P0pz9E1MreV9JbXneqUXng4kiOfpfrBgDgAAAAwBspzvp+pEsfspAkSZKkbdr8r9w1I/In/VPkxu1iXr0jTNg9yvNP8d6StnT52bgsCucd6poBAOyQAwCHGQgAoDMMb35vYmnuHyPbuCwiy6wiSZIkacvVKpGufjqKF383cuN3Na/ewZJj9ovKAxc2D1hIepPqn18rD1wUydHvdN0AALbHtxoHAD5lIACAjlhYnPb+KN95emSFjRaPJEmStOXSWvM76ht3/SfT3mtO3UKNpypUn74xourrAKQ3PQNQ7IvCWV92zQAA+j/v7u3Zr3EAYHeDAQC0/cTmhA9H9eErmndvSZIkSVvcaCvnovrI7Che9G+RjHPX/4DM2U/9TFSfusGcXXqLKvecFbkxI10zAID+2t0BAACg7RVmfjWqT82zUiRJkqQtl1ajtuTeKF3z20im7Gs+PdCHAE75VFSfudn7UHqTsmRt5Kd/xPUCAHAAAADo0s3/s78StSX3+T5RSZIkbXnvf+OyKN04ufk4+tyYEebTg/n0rufme0NKb1L59umuFQCAAwAAQJcZMyIKM78WtaUPRWSpFSJJkiS9ya5/rfm92pUFM5sbz7lxo8ylh4Bk2vuicv8Fvg5AeqPL1volkZ/6HtcKAGBbZS8fANi1Lm9AAIC2MXZklK74SWS5NVaGJEmS9MbVKpFteCmqj8yOwllfNoceiocApu4f5TtOjqxvhUO90murFKN82/TIjRnpWgEAbLW+3p51daMaBwB66h43KABAe9z5PzKKlx4ZWWLzX5IkSW9UFum656PywEVRuODwSCbsbg49lA8BTNwrilf8JGov3u+tK72mdNnDkT/pY64TAMC2aOz59zgAAAC01eJgae5RzTu5JEmSpL/aMKvPExuPlS+cd2gkk/c2h24j+dM/H9XH5/pKAOnPZcWNUfrTH1wfAAAHAACADt38n7BHlOZN+POd/5nVIEmSJL26Uda3Msp3nBSFM78cydHvNH9u1zn/tPdH+cbJnvYlNS9sWVQfuzqSqQe4PgAA/ToA8KgBAQCGrLGjonjlTy0ESpIk6c8bY2nzO7LT1U9H6fpxkZ9+UOTG7VqfOw43d25340ZF4YwvRPWJayMrbgqHf9XVl7q+VVG88AjXNgBgazX2/P/nsL7env9W/xc3GBAAYGhu/o+M0hU/iSxn81+SJKnrq5YiXfd8VJ+YG6Urfxa58buaL3ew4vmHR23Jgsjy67331bWV7z4jkkl7uSYAAFtjTu6onn9oPAHg7XWXGBAAYMgZMzKKlx7pzn9JkqQurzEfrL2wIMq3T4/CWYdEMs7Gf9d8LcCUfZvfg157/u7IyokfBnVd6ZrFkT/5E64HAMDWaOz5v90BAABg6G7+X/7jSNcvseIjSZLUjVWKzU3/yl2nR/GyH0X+5I+bI3fxZ4P8SR+L0tW/ieojsyMr9fn5UBedAKhGac6vIjd6J9cCAMABAACgjTf/L/uPSNc+G5H5zk9JkqSu2utasygqd58ZxfMPi/z0j0Qycc/Ijfb91/Q0N0CTqftH4bxDo3LfeZFtWu4HRl1R4zBUbuwo1wAAYOsOAPT19vxd/V9MNSAAwFBZ1Cucf1ika5+z+S9JktTRO/21iGqxeTd3c9N/wcwonvvNSKa8O5Lxu9n05y0+Mwxvvkfyx38oSn/6fdSem7/5qQDVUv0zROpnSx15vcyf/nk/+wDAloyr+y+NJwC8ra7XgAAAg2948ztd05VPWOCRJEnqtLI0ssLGSNc9H7UXH4jKwlnNx1o3Hu1uHsz2yp9w4CtfEZCueDyyvlURtYqfO3VMlQcv9TUAAMCWNPb83+YAAAAwdBbtph8UtSX3WtmRJEnqhP3+YmOz/4WovXh/VJ+8rvnI9tLco6Jw5j9HMnkf819a97niuA9E8bIfRXn+qVF96PLmEwLSVU9Flqz1g6m2LV2/pPnUCz/jAMAWDwAUenv+Nunt+ZEBAQAGU3L0O6P66ByrOpIkSW21I1WNbNOKP9/Vf39Un7g2KvecHaUbJkbxiv+MwvmHRv7UT0VyzLsjN2aEeS8Db/yuzYPGhbO/EsVLj4zS9eOaXzfROJRSW3RrpCsea26sZoUNfp41tA9VlZMoXzfGzzQA8Fa+V/e/D4venv+l/i++ZkAAgEHb/J+8T5TvPrP5HbCSJEnawiZQ36pIVz7Zb9VFt0b14SvqLt9mlfmnRGne+Chd87sonPONKMz8ehRmHBz50z4b+RM/Gsmx741k0jts9jN0jd6p/h7dO5Jp72veTZ0/+RORP/1zUTjzy833dHHWD6J07ejmQYHyLcdGdeHFr7z/a8/d+erP0salze9llwbu4p9F7ekbI5mwh59jAODNHDLs5Rr/HwMCAAzK5v/43aJ88zGRFfss6EiStOXV/80bTmm1/6qlzYfu+ikr5yMr5bZDX/N74Psr3fBS1F64J2qLb++X6pPXR3n+KVG+fXr/3Hp889HixYv+tV8K5x8W+RM/Fskx+/fflH2bByj7bdJezQ2k/mjcTZ0bOypyY0aay9KxBwRyY3febNwu9ff97q/+DEx6x6s/R0e/q/7zuF/zZzJ//Aebh2Fe/jkvXfXLV68Zd82I6tM3vnINan4VwcvXtOLG110fo/La6235Ndfu2ubrv7q+dPUzUTjry35OAYCtOgDwxbqyQQEABvZxnLs1765pLH5JkrRV29/Nzee+/kvWRLZxWb81HnPe2Lzpt+WPNh+TXltyb/88d2dUFl7cfHx1f5Wu/k1zc6pfZv88Cud+I/KnfqbfGneImwcB9DQPGLz2+li8/D9evd7OGx+Vu8/cfO2+/8KoPTv/ld8Fjd8lr/xeWb0osg0vbf49tWl5ZPn1r/7Oq//OVIdVKUT5xqM3H1TxMwQAvF5jr/+Lrz0A8NG6pQYGABi4O2uGR+G8Q5sbKZKkrdz8bizm51b1W7r+xUiXP9JvtZcWRm3RLc07Gful8d3gCy+Jyv0X9FvjqTGNxzL3V3H2z6J44RH99J3mXXeN75Lur2TqAR6NDsD2PUXtmP1e/d1y6qfrn6u+tfn31MXf3XzI68+/88o3TXn1d2jjqwwen/vn38k3Re35u1/3O77x1SIvzxd8NdvQrvronOZ7wM8CAPAXGnv9H33tAYAP1z1vYACAAVu0Ova9kS590OqNpG3Y/M5Fuv6FSNf105rFUVt0a79Vn74hKgtnbded183N62t7+6145U+jeMkPojjr+/1SuODbUTjjC/2WP+0zkT/uA/Vr+Hv6Z8q+mx+p7PcgAAysMSM2f21B83fyeyN/0sde9zv+tfOF0pxfvzL3KN909OvmMrUnr391flT/PJeue27zPKvxBAIHBwakdM2iKJz9Fe9pAOAvNfb6P+wAAAAwOJv/43Zp3gEqqYM365O1UV10a5TmTXj1zutL/r356PB+O+uQyJ/+ucif1k+Nx+se/6H+a2x8N753e9Le/db83my/BwCAdjF259fNZfLT3vfq3Oikf6rPsT67eZ414+AozPxqFC/4TpRvmBi15Y+aELeqWiVK1/w+cmNGen8CAG9+AKCvt2f/+r/xkIEBAFp/58nIKN8yLbJyYuFG6rhd/6z5/eqVu89o3lWWTNpr84b3y3xXKQBAZxs9vDnvazyivnTdmOahULXgawAemR3JlHd7vwEAr7Ugd1TPO1/7BIA96m4xMABAa+8eGRXFK34S2ablVmykTnwc6bKHm3fqu94BAND42oHS1b+JLL/eRHlHn7vNrYnCaZ/zHgMAXqux17+HAwAAwADeCbJT8/Hd6bJHrNZIHbn5/0gUTv+8ax0AAK9IJu8TlQcuiqiVTZh3cKVrfusJWwDAWx4A2LluroEBAFq28DP1gKg+eV1EWrNSI3Xa5v/6JVE8/7DNj3x1vQMA4DUKF3w7sr6VJs07uNri2zZ/zZb3GACw2Zy6nV57AOAf6843MABAS4wZEeWbj4molqzSSB23+1+J8k1TIhm/m2sdAAB/fRh84p6RrnravHlHVylEftp7vccAgJedW/cPrz0A8Pa6sw0MANAK+RkHNxcnJHXgnUfLH63/jH/BtQ4AgDdVXXyriXMrvgZgzq+9vwCAlzX2+t/+ygGApLfn7+v/xhkGBgDY4Xd7HLNf1JbcZ2VG6tQbjxZeEsnkvV3vAAB4U5WFsyKyzOR5B1d97BrvLwDgZacnvT3/9ZUDAMXenr+t/5uTDQwAsEM3/yfuGeW7To+oFq3MSB1a+Y6TXO8AAHjrJwA8Oqc+c3QAYEeXrn0+ksn7eI8BAA3jorfnfx322ur/5lEGBgDYYcaMiOKlP4x04zKrMpIDAAAAdKuxO0ftpQdMnFtQll8fhfMO9R4DABqOGvaXOQAAAOxI+ZM/EbXn5kdkqVUZyQEAAAC6VOGML0a2YamJc0u+A6AY5dume58BAG98AKCvt+dX9f+gbHAAgO3V+D7wyt1nRKRVCzJSp685PnJlJFPe7doHAMBffzacsHtUFl4cUfPZsEXPAIjaolsiGb+b9xsAdLd8X2/Pf77REwAOr1ttgACA7TJ6eBQv/m5kxU3WYqQuKF39TBTO/kr953+46x8AAK8at0uU5vw6sr6VJs2tnI+vfDIKMw72fgOA7tbY4z/cAQAAoDV3eEx5d9SW3GsVRuqaFcdqVO48PZJJe7kGAgDwyuZ/8YqfRLrqKfPlVj8DIL8uinN+5T0HAA4AHP5GXwHw1fp/sNQAAQDbozRvghUYqdsWHZM1Ubp+vEePAgAQycS9onzj0ZGuf9FEecAO5J4WubGjvP8AoHstqfvSGz0B4GN1TxogAKC/Cqd9JtK1z1qAkbr0zqPKPWdF/sSPuh4CAHTl0+D2jeIV/xm1Z26OrNhngjyA1Z6+KfLHf8j7EAC61xN1H3mjAwAfqnvMAAEA/VrsmbBHVB+ZHZHWrL5IXbvyWI5s0/KoPv6nKN86Lco3T4nyjZOieNkPo3DeN/vnnK9HfvpBkUx6R/9N3LN5jeqv3Phdm4+x7bexO0duzMh+GhG50Tv5PQMAbL/RwzfPLV6eZzTuGH9lzrLr6+dAE/d6ZS6Vn/a+KJz15c1zs/MPjdLsn22e5/1Z9cnro/bcnZFuXBZZKReRpebFA/0QgLXPRWHm173HAaB7Nfb4P/RGXwEwqv4f3GGAAIBtNmZkFGf/PLK+VVZeJA2xQwmVSNe9EOnyx/qt+uicqDw4q9/Kt50Qpbl/7J8//SGKlxwZhTP/ud/yp38+8id/ov9OODCSae/rv6PftXkToZ9y4zzOFgBeZ/yur/6ubGzST93/ld+7jbvAX/t7vHDGF1+ZExQv+E6Urvnt5jnGdaOjcuepr8xXqo9c+br5T1ZYbx7ZZnPe4pU/23zIw88IAHSjOxp7/W/0BICeulsMEACwrfLTPxK1xbdbdJGkIVhW2Nj8epb+qr2wIKpP39BvlYUXR+Wu0/utfOPkKM35TT/9OoqX/ziKF36n3xp30+VP+2z/nfiRSKYesHlzpj8mvcNiPkCnPkXt6He+cr3PH//ByJ/66c2/O07/fBTO+ZdXfx9d/N3X/X4r3zz11d+V95wV1ceufuX3bu35u173ezyrlkyGuqTyLdMiGb+bny0A6E6NPf6evzoAUOjt+a/1/2CuAQIAtmnRasLuUb5hYmTlxIqLJGmoHX9o/n7KNq3ot3TN4qgtXdh/z94R1SeurZvbPw9dHpV7zm5u8PRH+fYT+/8EioarfhmF8w/rv7MPaR6CaDxJoj8am2LNx1SbcwFD+GlozTvv/3zdKpz+2VevgRd+p3kdffma2jjU9tprdPXRq1653teeuTlqL96/+XfHsoc2b96//Psot9qvdG2xxkGQ5Jj9/EwCQHe6uu7v/uoAQPT2/E39P7jUAAEA23r3f7r6GastkiQNxWrV5lMg+i1ZG+n6Jf23ZnGkyx+NdNkj/VJ76YHm90o3DlL0R/WpG6Jy95lRufP0finPPyWKV/6k/y799yjM+HzkT/lk/0z/sLs5YaBM2D3yJ370lZ+/4gWHv/qzPOfXUb79pFeuDdWHr3j1WtO4Ri198NVr16qnXr0GbnipeR195Zpazvu9pJaVrny8+XvDzzMAdKVLhr1Z9f/wYgMEAGzL3S6NxwxGllptkSRJQ68sa34vctTK/VMtR1bKbYe+yAobIsuv76d1keVWRda3sl8aG5DNgxBPXr/NKg9dFuXbjo/yjZOicN43o3DWP0f+2Pdu/r7xiXtGrnEwYeyoyI3eyZyYIWJ4/T05MnLjdolk/O6RTNgjkqPfFYXTPxfFWd+P0vVjo3zTlKjcf+Er7/N01dOv/sw0ftYaP3Mv//wVN736s9x42lnjUfovXxvSmuurhuAJgGoUZhzsWgAA3Seru+itDgBMqisaKABgq+7+P/njkVUKFlokSZK66VxF42DB4tujfOepUbzsh1E440uRP/FjkRx7QHPTNTd6uLkyrTd2ZCRT9o38CR+O/CmfisI539j8iP2Fs6L2woLmI/Slbqs051cOZgFA90nqet/qAEDvn/9LBgsA2OLd/5UHLrTCIkmS1O0HAkq5SFc+2fwe8/IdJ0Xxiv9sfvVB42kB5s3sSMnkvZub/cWLvxul68dF5cFLo/bi/ZFteMkPolSvcu+5zc/qrhcA4ADAaw8AfL9uvYECALakcMYXI9u03AqLJEmSXn8goNgX6bKHo/rQZVGaNz4KM7/qMAD9f+rY8R+M4kX/GuVbjo3qw1dEbcm9keXW+EGT3qDa0gebX4Ph2gEAXaWxt//9tzoAcEjdagMFALzlnTcT9mguvjW+Y1CSJEl608MAjacDrH02as/Oj9K8CZGf9n7zabb8eWPa+6I4+xdReeDiqC17ePMd/tWSHyhpS1UKkRu/m+sIAHSXxt7+IW91AOCf61YZKADgzQ2P4qwfRLpxqcUVSZIkbe1RgObGVNa3Kip3nxH5Uz8dufG7+q5qNr8Hxu0SycS9onTlT6P65LzIkjWRlRMHjqV+VDjrENcVAOguK5Lenk+/1QGAPeqeN1AAwJvejTNl36g+cqVVFUmSJPX/OEClGNWn5kXx0iMjf9wHzLO78qliu0d++keiePF3o7LwksiStX4wpB1Qed541xgA6C6Nvf093uoAwKi65wwUAPDGd+cMj8L5h0a6folVFUmSJG1/tXLUFt0ShQuPiOTod5pvd8WB4ndFYebXonz79Kgte6R5GETSjqv66BzXGgDoLo29/VFvegAg6e35u/p/4SkDBQC84WLdpHc0H9kaac2qiiRJknZQWWSbVkTl/guicO43fX91JxozIvInfDhKV/0yqg9dHunqRd72UotKlz/mmgMA3eWpxh7/sLeq/l96zEABAG+kcPrnItu03IqKJEmSdny1cqTrno/yXTMif/yHzL875RDx0e+K8m3HR9q427/xmP8s9V6XWli2cXnz8L7rDwB0jceGbam+3p67DRQA8EZ37ZRvPS4iy6yoSJIkqXVVy5GueTYK53wjcmN3Ng9vw68Ny43bJfInfiwqd82IbMNL9de05H0tDdQBgNzqyJ/8CdciAOgSfb09N27xAED9vzjTYAEAf3XnztT3RJZfbzVFkiRJA7OJVdgQ5VuOi/zxH2weRjUnb4PPDJP3icI5X4/qg7Oam5CSBuPauTGKs77vmgQA3WPm1hwAmGGgAIC/VL7lWCspkiRJGtgq+ag+/qconOtpAEN643/CHlE488tRWTAzsuIm71tpMA8AlJMozT3KtQkAusdJWz4AcFTP7w0UAPD6u//3j3Tlk1ZSJEmSNPCltfpc9IkoXvVLc/OhZuyoKJx1SFTuOn3z54W06v0qDXa1SlTuPdf1CQC6xy+35gkARxooAOC1ilf+zJ08kiRJGtSyTSuieMV/mp8PlUPCU/aNyn3nR7pmcUS15A0qDZmLZRbVJ69znQKA7nHkFg8AJL09XzRQAMArC3vjd4vq0zc2FxEkSZKkQd3Xyq2K8g2Tmo+cN1cfBKN3imTy3lGc8+tI1z7XvNNY0tCr9sKCSI7ZzzULALph/b6354tb8wSA/QwWAPDK3f8XfDvS9UusoEiSJGloHAIo5aJ8+4mRHP1O8/WBXFg8+l1RnPWDqC25t/m1DJKGbumyRyJ/0j+5dgFAd9hva54AsIeBAgCaxu8a5TtPc2ePJEmShtYhgOKmKN92QiST9jZnb7UxIyM/4wtRWTgrsnLizSe1wwGA9S9G4cIjXL8AoAvke3tGbfEAQLG3578YLACgOXk4+eNRe+EeqyeSJEkaeocASn1RnjfRvL2Vd/0f+54oXTc2asse9oaT2un6mKyJ4uyfu44BQBeI3p6/HbY19fX2FAwYAHS50TtF8YqfuMtHkiRJQ3eTK7c6Cpf8wNy9BXf9F2Z+LapPzYusuLEx0t5sUjtdG8v5KM2b4FoGAB2usac/bGur/wMPGjQA6PK7fabsG9WHr7ByIkmSpCFduvqZKJx1SORGDzeP3+5DwMMjmbB7VO6eEVlhQ31wa95gUlueAMiiPP8U1zQA6HwPbssBgJsNGAB0t8KMgyPLrbFwIkmSpCFfbcm9za+vcghgOw4AT9wjCmd/JWrPzveGkjqgyl1nNJ/s5/oGAB3t5m05AHCSAQOAbn7k54go3TjZiokkSZLao7QWlQcvjeSY/c3l+/HVX/njPxTlm6ZEun5J885hSe1ftXFNnLS3axwAdLaTtuUAwFEGDAC62LhRUVv2sBUTSZIktU1ZsS9K1/w+cmNHmc9vteFRmPm1qD55fWSlnDeR1EkHAB6dE8kx+7nOAUBnO2pbDgAcYcAAoHvlp38kolq2YiJJkqS2Kl37bORPONCcfisVL/9xpGsWR2Q1bx6pw6oturX+2f7DrnUA0NmO2OoDAElvz8cNGAB0r9ItU62WSJIkqf3Ksqg+dnXkRo8wr3/TR/4Pj+SYd0flrhmR5dd5z0idegDgxfsif+qnXPMAoIM19vS35QkAu9elBg4AuvHx/7tEbdkjVkskSZLUprtelSheeIR5/RsZu3MUzv5q887gSN31L3Vyaf1zfWHGwa57ANC5Gnv5u2/1AYC+3p6d6//ASgMHAN2ncNYhkSVrrZZIkiSpPcuyqD0733df/9Xm/6goXvmzSFc95T0idcOlcNPyKJx/mGsfAHSulY09/W15AkBP3eMGDgC6T/n2EyOqJaslkiRJat+Nr8KGKF3ze/P7lx8NOnmfKF07OrLcGm8OqVuug7lVUbzgO66BANC5Gnv5PdtyAOAf6+YaOADovoXB2uLbmndNSZIkSe2785VG7ZmbI3/cB7p+jp+f9r6oLJjpKV9St9X4OpTLf2ytAwA6V2Mv/x+35QDA2+suNnAA0GWP/z/nXyJd+6yFEkmSJLX/GYDipijN+VXkRg/vzvl9/X93/tRPNw9CRLXsDSF1YcXZP7fWAQCdq7GX//atPgDQ19vzf9f/gUkGDgC6a4GwdN3YyEp9VkkkSZLUEVWfvC7y097ffXP7MSOicM7Xo7bicW8CqYsrXfXL+jVhuPUOAOhMkxp7+lt9ACDp7fk/6//QrwwcAHTR4/8n7RWVhbOskEiSJKljypJ1UTz/8O56CsCYkVG8+LuRrlnsDSB1eeV5EyM3bpQ1DwDoTL9q7Olv9QGAYm/P39T/oUMNHAB0j/zJH4/a83dbIZEkSVJHVbn33Egm7tkdh3rr/zuLV/0y0nUveOElRXn+KV1z/QOALnRoY09/2LbU19vzxfo/WDF4ANAdCucdGtnGZVZIJEmS1FFlfSsjOfa9nb/5P2GPKF0/NrJNK+r/ozMvvCQHAACgc1Uae/nDtrX6P3hQ3YsGEAC6wNhRUb5ubESWWiGRJElSh50AyKI0++edv/l/3ZjIChu83pIcAACAztfYwz+oPwcAPlD3jAEEgC54VOiUd0f1kdlWRyRJktSRVZ+5uXPn8ke/M8o3TYmsWvJCS3IAAAC6w1N179/2AwBH9byj/g/ON4AA0PnyJ3400jWLrY5IkiSpI8uKmyI5Zv/O2/yfun9U7j7TCyzJAQAA6C631O3enycA7Fw31wACQIcbPTwK5x8WkVatjkiSJKkzq1WjeMVPOmvz/9j3ROWeMyMqBa+vJAcAAKC7zKnbqT8HAP6x7nwDCAAdbsyIKN8w0cqIJEmSOrcsjcpDl3XO5v8xm+/8z0o5r62kN6268JJIjn6XdQ8A6Dzn1P3DNh8ASHp7/p/6P3iKAQSADjd2VFSfmmdlRJIkSR1duuLxjtgIS45+Z1TuOTuiWvKiSnrrAwBPXh/J1AOsewBA5zmu0NvztmH9qf4PH2UAAaDDjds1so3LrIxIkiSpo2vMeQvnfau95+7jd4/yTUd7MSVt3QGAp+Y5AAAAnSer+8Ow/lb/h39WVzSQANC5kmnvtyoiSZKkzj8AUNwUpevGtO+8fcIeUbq2153/khwAAIDulvT19vzH9hwAOLxutYEEgM5VvPRIqyKSJEnq/NJqVBac057z9jEjozT3qMjy67yOkhwAAIDutiJ3VM83tucAwKfqnjGQANC5yrefaFVEkiRJ3bEZ9sR1kUx6R9tt/jcO7abrl9T/F2ReREkOAABAd3u67uP9PgCQ9PYcUP8DHjSQANCphkftmZutikiSJKkrqj1/V+RP+HD7zNdHD4/C+YdFuv6FiMzmvyQHAACAngcbe/jb8wSA/1F3k4EEgM6UTN4nsk3LrYpIkiSpK0pXL4rCOf/SNod1C2d9OWorHvfCSXIAAAB4WWPv/n/0+wBAsbfn/6r/AbMNJAB0psLZX/U9opIkSeqasmRNFC//j7aYq+dPODBqSx/0oklyAAAAeK3ZjT38YdtTX2/PWfU/qGYwAaDzFGf/IrJSn1URSZIkdccBgOLG5hy4HZ7UVVl4sRdM0vYdAHj8T5Ecs7/1DwDoHNW6U4dtb/U/ZEJdwYACQOcp3zItolK0KiJJkqTuKK1F6fpxQ3uePnbnKN8+PbJSzuslabuq3HNWJJPeYf0DADpHvm7s9h8AOKrniPoftM6AAkDnqSycFZFWrYpIkiSpayrfOLk+Fx4+NOfoo0dE6erfRpas9UJJ2v7r3fxTIpm4p/UPAOgc6xp79zviCQCfr1tpQAGgw4zbJWqLb7MiIkmSpK6qcv+FkRz9zqE3Px8zMooX/Wuk617wIklyAAAAeCMr6j673QcA+np73ln/g14woADQWfLTD4ra0oesiEiSJMkBgKEwPz/lk1F74R4vkCQHAACAN/Nc3agd8QSAv6972oACQGcpnPmlSFc9bUVEkiRJDgAMsmT87lF58FIvjqQdewDghknNp/9ZAwGAjvFU0tvzd8N2RH29PfcZUADoLMVZ34t041IrIpIkSXIAYLDn5rN/Xv8/LO/FkbRDK131y/o1Zrg1EADoEI09+2E7qvofeL5BBYDOUrrmt5EVNlgRkSRJkgMAg2Z4FGZ8IdJ1L3hhJO3wGoeLrH8AQEc5b8cdADiq52gDCgCdpXzb9Ii0ZkVEkiRJDgAMkvzxB0btuTsjstQLI2nHlmVRvPJn1j8AoLOeAHDUjnwCwOEGFQA6yJiRUbnnLAsikiRJcgBgkCST947y/FMjKydeFEk7fv+/1BfFS35g/QMAOsvhO+wAQNLbc5ABBYDOkUzeJ6oPXW5FRJIkSQ4ADIaxI6N42Y8i61vhBZHUmgMAm5ZH4fzDrIEAQCet6/f2HLTDDgCUenv+W/0PzQwsAHTIROGY/aL66BwrIpIkSXIAYDDm48e9P2pL7vNiSGpZ6folUTj3G9ZAAKBzZI09+x12ACB6e/6m/ofWDCwAdIb8CQdG7ZmbrYhIkiSpCw8AXNB8Itagfh3X7SdGpDUvhqSWVXtpYeRP+6w1EADoHLXGnv2wHVn9D33MwAJAhxwAOPXTUXvxfisikiRJ6rrKt0+P3LhdBm0uXjj7K5FVCl4ISa09ALDkvsif8ilrIADQOe4dtqOr/6FzDSwAdIbCjC9EuvxRKyKSJEnqrrI0SvPGD95B3Gnvi9oL93gdJLX+AMAzNzef/mcNBAA6xtxWHACYamABoEMOAJz3rUg3vGRFRJIkSd21/1/qi9KcXw3ao//Ltx4f4e5/SQNQ9dE5kRyznzUQAOgcU1txAOBIAwsAHXIA4PzDItu03IqIJEmSuusAQLImipf/xyA9+v+rka56qvF/hRdCUsur3H9BJBN2twYCAJ3jyFYcAPiSgQWAzlC84icRac2KiCRJkrqqxgZ8YyN+oOffyeR9mptx5uCSBqYsyneeWr/+DLcGAgAdIunt+XgrDgDsVlc1wADQAQcAZv/ceogkSZK67wDA8kejMOMLA/zo/xFRvOTfI8ut9gJIGpjt/8bXnVw72voHAHSOxh79bjv8AEBfb8+I+h/8ogEGAAcAJEmSpHas9uwdkT/uAwN7p87UA6L69I0GX9LAHQBI1kbxql9Y/wCAzvFiY6++FU8A+O91dxhgAHAAQJIkSWrHqo9dE7nxuw3c3Hv0TlG65reRVYoGX9KAlW54MQoXHWH9AwA6R2OP/r/v8AMASW/P/1v/gy8wwADgAIAkSZLUfrv/xSjffuLA3v0/6R2Rrn3W2Esa2AMAq56Owhlfsv4BAJ3jgsZefSueAPC2ujEGGADa3fAoXfULKyKSJEnqqrLC+ihd/ZsBnXuX5v6x/hdnBl/SgFZb+mDkTzjQ+gcAdI7GHv3bdvgBgGJvz/+W9Pb8mwEGgPaWTNwzyvNPsSIiSZKk7joAsHFpFGZ+beDm3ce+J9I1iw28pIE/APDc/OZnf2sgANAR0qS355vR2/M3w1pR/S/4bF3OQAOAAwCSJElSO5WufiaSY987MPPuMSOifOPkyMp5Ay9pYMtqUX3kSusfANA51vf19nxqWKuq/wXvq3vSQAOAAwCSJElSG+2IRW3xbZEbM3JA5tz5Ez8WtRfv8/h/SQNftRjl206w/gEAnaOxN/++Vh4A2KtuvoEGAAcAJEmSpLYprUX5tuMH6O7/kVG6fnxkpT7jLmnAy0q5KM35tfUPAOgcjb35vVp5AOAf6s410ADgAIAkSZLUNtUqUTj3GwNz9//JH4/a83c1tuGMu6SBPwCQrI3CWYdY/wCAztHYm/+Hlh0AKPb2/B/1v2CKgQYABwAkSZKkttkQK26MZPxuA3D3/4jmnbeNAweSNCjXu75VkT/hQOsfANA5pjT26Ie1svpf8su6ssEGAAcAJEmSpHao9uwdAzPXnnpA1J6aZ8AlDVrp6mesfQBA5yjW/WxYq8sd1XNY/S9aZcABwAEASZIkqR0q3zx1AObaw6NwztcjK2ww4JIGrepT11v7AIDOsbTuq60/ANDb84m6pw04ADgAIEmSJLVDhbO/MiCP/6/cf6HBljSolW893toHAHSOJ+s+1vIDAH29PbvX/6K7DDgAtOkBgAl7RPmOk6yKSJIkqStK1yyK5Nj3tH6efcy7IypFAy5pUCte/F1rHwDQOe5q7M23/ABA0tvz9/W/bK4BB4A2NXqnKF3zO6sikiRJ6ooqC2dFMnGvls+zy7dNN9iSBrcsjfxx77fuAQCdY25jb37YQFT/y86pSw06ALSn4uyfWxiRJElSV9Q4/Jobu3Nr7/4/+l2RrnjCYEsa3P3/vpWRG7+rdQ8A6Ay1ujOHDVT1v2xyXdHAA4ADAJIkSdKQ3QwrbIjCOV9v/fz60iObf5ckDWbVp2+I3NhR1j0AoDMkuaN6/jiQBwC+XbfOwANAmx4AuOyHkVUKVkckSZLU0dWevzvyJ360tfPrsTtH9eErItKaAZc0qFXmnxK5MSOtewBAZ1hbd+iAHQBIensOqv+FSw08ALSnwgWHR9a3wuqIJEmSOnszbMHMSCa9o7Vz6zO+GOnKJw22pEGveMkPIjd6uHUPAOgMSxt78gP5BICd6hYbeABo0wMA5x8W2ablVkckSZLUsTWeeFW65vetnVuPGRnlW4+LqJYMuKTBveYVNkb+lE9Z8wCAztHYi99p2EBW/wvvNfAA0KYHAM7+aqRrFlshkSRJUseWrn0uCucd2tJ5df6ED0d10S0GW9Kg1/zKk+M+YM0DADrHvcMGuvpfepmBB4D2lD/101F78X4rJJIkSerczbDn7oz8CQe2bl49eqcozvp+ZPl1BlvSoFe599xIJu9jzQMAOsdlA38A4KiesQYeABwAkCRJkoZcaTUq918QubGjWjanTibtHZUFM421pCFR6U9/jNyYEdY8AKBz/HbADwAkvT2H1f/izOADQPtJpr4nqo///+zde7RkVX0n8NsNjY3QKKBGBcettmJEIoIRCY7ECYlhdAVHEzNRRwMTI4MhyZjHzMIJtQHBJ0ZRUVFicEQxmlHHCIhRUJIYAvhATZAmqA1teElD1bm3um/fe8/8NnQyit1NP27dOufU57vWZ/EnVWc/bq/67tp1sU9IRERERKSTWZhZX2/4q9eN9lDtub9Uz9/zAw9bRMa/5/VvrWcuPN7nHQDQHQtVTi8axwGAQxwAAICWHgB4y+H1pus+5VMSEREREelk5u/6Xj1z3q+M9Pr/DRef6kGLSCMyd/O19fR7n+/zDgDo1gGAQ5b8AECd08r4n280AADQQq8/qJ696gKfkoiIiIhIZ8uw6qyDR3eg9syn1HPrvuFBi0gjsukbn6yrNx/msw4A6I6NpYufGkfif36jAQCAdtp45bvremHeJyUiIiIi0q3Ev3Fnr/7wSP8tPXP+i+p6btazFpHxZ3am3viFt9x7M4nPOgCgM26cGlfif/5hAwAA7bTh0tPrhQ0DH5aIiIiISLcyN1sPP3biSP8tPXvNRzxnEWlE5tffXA8vepXPOQCgWz48tgMAVU6vMwAA0E7DT/1BvVDd4dMSEREREelWZmfq6k2Hju76/7c/u56/a63nLCKNyNwtX6un3/lcn3MAQLf8/jhvADjWAABAO8186GX1/J03+bRERERERLpVhq29erQ3aX3hrfXC7IwHLSLjz8JCvenbF/uMAwC659hxHgB4UlhvEACgfabf+x/r+X/5lg9MRERERKRTKQX9yL79f9bB9abv/PW9pZuIyNj7/41VveGS03zGAQDdUrr3J43zAMCB4SoDAQAtdNZT6k03XF4+MvCpiYiIiIh0owwb3F5Pv+fY0R2ifcdz6rm113rQItKIzK+/2fX/ANA9pXs/cJwHAB4ePmYgAKCdNnzu9fXCxmmfmoiIiIhIJ7Lxb8+rq7OeMrobAN5yeD333a940CLSiMz+zbn14PQn+HwDALqldO8PH+cBgL3C6QYCANqpesth9dzNX/WpiYiIiIi0Owvz9abrL9v8TdjHje7f0Kc9vt74N++t601Dz1xExrvn3XhFXb3pUJ9tAED3nFY6+LEdAKhzWl7l9NJ4EXMGAwDaafpdv1DP33Z9Xc/P+RBFRERERNrXg22s6k3XfbKePufopTlEe/YR9aYbvlDXszMevogsbeY31Qv9W+vZay6sq7f+rM80AKB7Suf+oqlxp5/TMfFCfmBAAKClTntcPf3+F9abvv1X9cLgtrpeWPChioiIiIi0ovifv/mr9cYvnl1XZz9zaW/SetuR9cYvv7Oeu/FL9fy6b9Tzt/4jwOisu66eW3NFPXv1/66HH/2tunrDIT7LAIBu+kHp3sd+AGDQS0+PF/MPBgQA2n0IoHyTafiJ36k3Xvnue79NMPfPVwIAQLOsuaLe9I1P1rNfOb/ecPGp9cz7nl8PznjieP4NffrquvrTn6tnzvuVeubPfhVgdN5/XF297Vnj2+8AgKXyD6V7b8INAI+NF/N/DAgAdMSZP11Xb376vb+fCgAAjXLO0XX11mfW1RueWg9Oe7x/uwMAAF1yUThg7AcAZnLaO17IOwwIAAAAAAAAAOyUt5fufaoJ6ef02nhBQ4MCAAAAAAAAADtkWDr3qaYkXtBLwi0GBgAAAAAAAAB2yNrw4uYcAOilo+IFfcPAAAAAAAAAAMAO+Wo4okk3AKwOXzYwAAAAAAAAALBDvljl9NgmHQDYPXzcwAAAAAAAAADADvmLKqfdppqUeFFnhGmDAwAAAAAAAADbpXTsZ0w1Lf2cTogX9kMDBAAAAAAAAADb5c7wisYdAIgX9ZxwswECAAAAAAAAgO2ytsrpyMYdABjm9LB4cdcbIAAAAAAAAADYLteXrr1xBwDqnJb1c/prAwQAAAAAAAAAD6x07KVrn2pi4gW+yyABAAAAAAAAwHbopTdPNTXxAl8WFgwUAAAAAAAAAGxT6dZf1tgDAFVOhzgAAAAAAAAAAAAPfACgdOyNPQAwzGllP6dpAwUAAAAAAAAAW9fP6c7SsU81OYNe+rLBAgAAAAAAAIBt6KUrppqeeKFvMlgAAAAAAAAAsE1vavwBgCqnFxooAAAAAAAAANim5zf+AMB0TgfHC73LYAEAAAAAAADAFpVO/YmNPwDQz+nAeKFXGTAAAAAAAAAA2KKrSrfehp8A2D9e7IcMGAAAAAAAAABs0YdKt974AwDxQleGPzZgAAAAAAAAALBFJ1c57THVhsSLfUEYGDQAAAAAAAAA+DGlS3/BVFsSL/aIcJ2BAwAAAAAAAIAfU7r0I1pzAKDKaXW84IsNHAAAAAAAAAD8mItLp96mAwD7xot+n4EDAAAAAAAAgB9zzkxOq6balH5Or40XPjR4AAAAAAAAAHCvYenSp9qWeOEvDmsNIAAAAAAAAADcq3ToL27jAYDDw9UGEAAAAAAAAADu9ffhaa07AFDl9FPxwi81gAAAAAAAAABwr88Mc3pI6w4AxIte3s/pPfEGZg0iAAAAAAAAABNutnTodU7LptqYQS/9bryJuw0kAAAAAAAAABNu/aCXfmeqrYk38IthnYEEAAAAAAAAYMLdXOV0dJsPADwsXG8gAQAAAAAAAJhwpTt/2FSbE2/gUgMJAAAAAAAAwIS7dKrt6ef0pngjCwYTAAAAAAAAgAm10M/pja0/AFDl9CIHAAAAAAAAAACY5AMAVU6/3IUDAI+KN7PRgAIAAAAAAAAwoTaW7nyqC4k3820DCgAAAAAAAMCE+vZUVxJv5s8NKAAAAAAAAAAT6j1dOgDwWwYUAAAAAAAAgAl1QpcOABwUhgYVAAAAAAAAgAlTuvKDunQA4IDwtwYWAAAAAAAAgAlTuvIDunQA4KHhvQYWAAAAAAAAgAnzzvCQzhwAmMlpjyqn1xhYAAAAAAAAACZJldOJw5xWdOYAQJ1TuQXgeeF2AwwAAAAAAADAhCgd+fNKZ96pDHrp4HhjVxhgAAAAAAAAACbEFaUrn+pa4o09PPyZAQYAAAAAAABgQrw/7N+5AwDlNw3ijf1J2GiQAQAAAAAAAOi40o2fUue0fKqL6ef0G/EG1xloAAAAAAAAADpuXenIp7qaKqfD401eY6ABAAAAAAAA6LirS0fe5QMA+8eb/CsDDQAAAAAAAEDHfXKY06qpLqef05/GG91gsAEAAAAAAADoqA2lG5/qega99Ip4s3cYcAAAAAAAAAA66o7SjXf+AECV0yHxZm8y4AAAAAAAAAB01E2lG5+EAwAr4s1+04ADAAAAAAAA0EX9nP6+dONTk5B4w+8OCwYeAAAAAAAAgI4pXfi7pyYl8WZ/3QEAAAAAAAAAADp6AODXJ+kAwKPCvIEHAAAAAAAAoGNKF/6oqUlKvOG1Bh4AAAAAAACAjvnO1KRl0EsfNfAAAAAAAAAAdEovXTh5BwByOt7gAwAAAAAAANAxx0/cAYDpnJ4Wb7wy+AAAAAAAAAB0RFW68Em8AeDAcJUJAAAAAAAAAEBHXBkePXkHAHppn3jjf2oCAAAAAAAAANARbw2rJvEGgGXhN8KCSQAAAAAAAABAyy1s7sCXTU1i4o3/XPgnEwEAAAAAAACAlvvGoJd+dmpSU+X0mHgIHzcRAAAAAAAAAGi5j5cOfJIPADwoHsKZYc5kAAAAAAAAAKClSud9ZunApyY5g176zXgQd5gQAAAAAAAAALTUHaX7npr0VDkdNSi/hWBCAAAAAAAAANBO11Q5PWPiDwAMc1oVD+Mvw4JJAQAAAAAAAEDLlK77L0v3PSVTU/2czowHMmNiAAAAAAAAANAyM6Xz1vxvTjyQF4fbTAwAAAAAAAAAWqZ03S/W/G/OdE6PjweyxsQAAAAAAAAAoGVuGOZ0gOZ/c+Jh7BYP5dMmBgAAAAAAAAAt8+k6p+Wa/x/9GYBeOjkezILJAQAAAAAAAEBLLJSuW+N//wMAOT0tzJsgAAAAAAAAALRE6bifpvG/X+qc9ogHc5sJAgAAAAAAAEBLrC1dt8Z/y7cAXGSCAAAAAAAAANASH9b0b/0AwKtMEAAAAAAAAABa4lWa/q0fAHhSGJokAAAAAAAAADTcdOm4Nf1bPwDw6PAlEwUAAAAAAACAhrts0EuP1PRvJVVOe8dDeqOJAgAAAAAAAEDDvbF03Jr+rR8AWB4P6aVh1mQBAAAAAAAAoKFKp/3S0nFr+rf1MwC99Ox4UGtMGAAAAAAAAAAaak3ptjX8D3wLwAHxsC4yYQAAAAAAAABoqItKt63hf4AMc3pQPKwcNpo0AAAAAAAAADRM6bJz6bY1/NvzMwA5vSTcYuIAAAAAAAAA0DDfDy/S7G/vAYBeemo8sL8zcQAAAAAAAABomC+F1Zr97b8BYEU/pw/Ff+dNHgAAAAAAAAAaYr6f0wVVTrtr9nfsFoCT4uGtN4EAAAAAAAAAaIg7+zmdoNHfwUzndEg8vJtMIAAAAAAAAAAa4qbSZWv0dzB1Tivi4V1uAgEAAAAAAADQEJeXLlujvzM/A5DTqWHBJAIAAAAAAABgzEp3faomfydT5fT0eIDzJhIAAAAAAAAAYzZfOmxN/i6kn9MtJhIAAAAAAAAA49TP6Tsa/F3/GYD3m0wAAAAAAAAAjPkAwLka/F3/GYCXmEwAAAAAAAAAjFOV03Ea/F0/APCkeJhrTSgAAAAAAAAAxmRt6a41+Lt+AGD/eJgfMaEAAAAAAAAAGJOPlO5ag7/rBwD2iIf5mjBnUgEAAAAAAACwxEpX/ZrSXWvwFyH9nJ4bD/QWEwsAAAAAAACAJfb9fk5Ha+4X7wDAk+KhXmZiAQAAAAAAALDELh700mrN/SJlJqe946G+3cQCAAAAAAAAYIm9uZ/TSs39IqXOadmgl/5LPNhbTS4AAAAAAAAAlsitg156udZ+kVPldGg83KtMMAAAAAAAAACWyFWlq9bYL3KGOT04Hu5FYd4kAwAAAAAAAGDESjd9UemqNfYjSD+n/xkPuG+iAQAAAAAAADBi/dJRa+pHdwDgP8RDvsVEAwAAAAAAAGDEbikdtaZ+dAcAVoarTDQAAAAAAAAARql006Wj1tSP9hDAKfGwF0w4AAAAAAAAAEZkwfX/S5DpnJ4VD3vehAMAAAAAAABgREonfaiGfsSpc9ojHvQaEw4AAAAAAACAEVlTumkN/RIkHvbZJhwAAAAAAAAAI3K2Zn7pfgbgaBMOAAAAAAAAgFEonbRmfuluAPh34VsmHgAAAAAAAACL7OpwoGZ+iVLltCq8xcQDAAAAAAAAYDGVLrp00pr5Jcowp+XxwH8tHv7ABAQAAAAAAABgkQxKF106ac380v4MwGGbr14wCQEAAAAAAABYDH9X5fQzGvml/xmA/ePhv98EBAAAAAAAAGCRnFe6aI38GNLP6dUxAOtNQgAAAAAAAAB20frSQWvix/UzAL30zBiEa01EAAAAAAAAAHbRtaWD1sSP72cA9o5BuDDMmYwAAAAAAAAA7KTSOV9YOmhN/Hh/BuCPYyD6JiQAAAAAAAAAO+nuQS/9ngZ+/AcAnh2DsdaEBAAAAAAAAGAnfb+f01Ea+GYcArjMhAQAAAAAAABgZ5TOWfPenAMAJ8egLJiYAAAAAAAAAOyghdI5a94bkiqng2JQ5kxMAAAAAAAAAHbQXD+npHlvSOqcdo9B+bqJCQAAAAAAAMAO+rrWvXm3AJxuYgIAAAAAAACwI0rXrHFvWGZyOjQGZ8YEBQAAAAAAAGA7zZSuWePesAx66ZExOJ83QQEAAAAAAADYTpcMeumnNO4Ny3ROe/kZAAAAAAAAAAC2V5XTn0zn9GCNe8MyzGl5DNBxYb2JCgAAAAAAAMADKN3ycaVr1rg3MFVOPx0D9AUTFQAAAAAAAIAHcEmV02pNe3NvAdgzBumMMGuyAgAAAAAAALAVs1VO/6vOaXdNe4Mz6KVjY7BuMGEBAAAAAAAA2IobSresYW94ZnI6IAbrMhMWAAAAAAAAgK24rHTLGvaGp85pt0EvnRUDNm3SAgAAAAAAAHA/06VTLt2yhr0FqXJ6XgzaOhMXAAAAAAAAgPtZVzplzXp7bgHYMwbtKhMXAAAAAAAAgPv5u9Ipa9ZblEEvnRIDt2DyAgAAAAAAALDZfD+nkzXq7fsZgINi8GZMYAAAAAAAAAA2m+nn9DiNegsTA/dlExgAAAAAAACAonTImvT2HgD4I5MYAAAAAAAAgM0HAP5Ik97eAwBPCHeayAAAAAAAAAATX/7fWTpkTXp7DwA8LHzCZAYAAAAAAACY+AMAnygdsia9vQcA9ggnxWBuMqEBAAAAAAAAJtawn9OJpUPWpLc4g156VgzmP5rQAAAAAAAAABPrW4NeeqYGveWpcnpYDOb5JjQAAAAAAADAxDq/cv1/Z34K4LdjQO82qQEAAAAAAAAmzt2lM9acd+dnAJ4Zg3qtiQ0AAAAAAAAwca51/X+3fgZg7xjUC8OcyQ0AAAAAAAAwMUpHfGHpjDXn3boF4PcGfgYAAAAAAAAAYJLcXbpijXn3bgF4SgzujSY4AAAAAAAAwMS4YTqnx2nMu3cAYCoG9/ywYJIDAAAAAAAAdF7phs8f5qQw7+ghgF+KAZ430QEAAAAAAAA6b750xJryjmaY06oY5FtNdAAAAAAAAIDO+37piDXlHU4M8rkmOgAAAAAAAEDnnaMh73imczraRAcAAAAAAADorn5OM9M5/XsNeccTA/2I8FmTHgAAAAAAAKCzBwA+W7phDXn3DwCsDK+NQZ818QEAAAAAAAA6Z7Z0wqUb1pBPxiGAo2LQ15j4AAAAAAAAAJ2zpnTCmvEJSdVLj4hB/6CJDwAAAAAAANA5HyydsGZ8QjLMaXkM+mvCPSY/AAAAAAAAQGeUDvg1pRPWjE/SLQA5PTkG/koLAAAAAAAAAKAzrixdsEZ8wlLntCIG/31h1iIAAAAAAAAAaL2N4d2lC9aIT2AGvfSrMQFutRAAAAAAAAAAWu8H/Zx+RRM+oYnB3y9cayEAAAAAAAAAtFs/p78tHbAmfLJvATgjJsO8BQEAAAAAAADQWvODXjpNAz7hqXJ6XEyGaQsCAAAAAAAAoLWmS/erAZepmAyfsyAAAAAAAAAAWutzmm/511sAXm5BAAAAAAAAALRT6Xw133JvpnvpCTEp1lgYAAAAAAAAAK2zpnS+mm/51xsA9o1J8QELAwAAAAAAAKB13tnP6SGab/nXAwBTMSF+OSbGPRYHAAAAAAAAQGusL11vUHzL/09MiINicnzeAgEAAAAAAABojc8Oemm1xlvufwvAypgcOcxaJAAAAAAAAACNV7rdXLpejbf8RGJyHBtusFAAAAAAAAAAGq90u8dqumWLmcnpETFBLrZQAAAAAAAAABrv4tLxarplixnmNDXopZNiotxlsQAAAAAAAAA01l2DXvpvpeMV2WqqnJ4Sk+V6CwYAAAAAAACgsa7r5/QEDbc8YGKinB8TZsGiAQAAAAAAAGichX5Ob9dsy/bdAtBLR8akmbNwAAAAAAAAABpnrsrpZzXbsl0Z5rQiJs3XLBwAAAAAAACAhumlvymdrmZbtv8WgJxOiskzbwEBAAAAAAAANOfb//2cXqHRlh1KTJrHxuT5rgUEAAAAAAAA0Bjf6uf0GI227NgNAL20KibP2RYQAAAAAAAAQGO8scppb4227FCGOS2PyfP8cLtFBAAAAAAAADB2twx66ZdLl6vRlh2/BSCn1TGJPmshAQAAAAAAAIzdX5afctdky84eAJiKCXRyTKTKYgIAAAAAAAAYm/X9nF4VFNmy8xn00jNiMl1tQQEAAAAAAACMzVfC0zTYsksZ5rQyJtJ7wkaLCgAAAAAAAGDJbQjnlO5Wgy27fgtATr8abrWwAAAAAAAAAJbcukEvHau5lkVJldNe/ZyusrAAAAAAAAAAllY/py+GPTXXsni3APTSiTG55i0wAAAAAAAAgCUzX7pajbUsaoY57ReT63YLDAAAAAAAAGDJ3F66Wo21LP4tADl90AIDAAAAAAAAWDIf1FTLqA4A/HzYYJEBAAAAAAAAjFzpZn9eUy2jOQDQS4+MCXa5hQYAAAAAAAAwcpeXjlZTLSPJMKfdq5yOj4k2a7EBAAAAAAAAjMxs6WZLR6upllH+DMDh4asWHAAAAAAAAMDIlE72cA21jDRVTg+JifaOMGfRAQAAAAAAACy60sW+o3SzGmoZ/S0AvfRrMeFusfAAAAAAAAAAFt33wgs107Ikmc7pUTHhLrHwAAAAAAAAABbdxdM5PVIzLUuSYU7lFoATY+L90OIDAAAAAAAAWDR39HN6ZelkRZbuZwByOjB83QIEAAAAAAAAWDRXly5WIy3jOATw+jBvEQIAAAAAAADsstK9/okmWsb1UwCr+zkNLEQAAAAAAACAXVO61yqnAzTRMpbUOS0f9NInLEYAAAAAAACAXXaBFlrGmiqnZ8dEHFqMAAAAAAAAADttusrpKA20jDWDXnp4TMZPWZAAAAAAAAAAO+1j/Zz210DLeA8A5LQinOAWAAAAAAAAAICdMgivLN2rBlqacAjgqeFKCxMAAAAAAABgh30pPEXzLI3IxpweHBPy9WGTxQkAAAAAAACw3Tb1czq18u1/aUrqnKYGvfScmJzXWaAAAAAAAAAA2+2r4QitszQqw/tuAfhAmLVIAQAAAAAAAB7QxvC+0rVqnKVxGfTScTFBf2ChAgAAAAAAADygdf2cjtU0SzMPAOS0T0zQKy1UAAAAAAAAgG1aCJ8vHaumWZp8COD4MGfBAgAAAAAAAGzVXJXTKzXM0ugs5LR3P6e1FiwAAAAAAADAlvVz+m6V0zINszT/FoBeyhYtAAAAAAAAwFb9D82ytCJVTofEhF1n0QIAAAAAAAD8hPLt/6dqlqUtNwA8JCbteyxcAAAAAAAAgJ/wzn5O+2iWpR0HAHJaHhP2hfHfvsULAAAAAAAA8G/uCC8onapmWdr0MwAHxKT9SFiwiAEAAAAAAADu7U4vrHJ6tEZZWpU6p91i8p4YfmghAwAAAAAAAKQf9nM6QZssbb0F4KCYxF+2kAEAAAAAAADS5VVOT9AkSyszzGlFTOLTwsBiBgAAAAAAACZY6Ux75SZ1TbK0+RaA1TGRv2NBAwAAAAAAABPsO6U71SBL228BmBr00hkxoectagAAAAAAAGACzZfOtHSnIq3P4L5bAG63sAEAAAAAAIAJVLpS3/6XTh0C+DMLGwAAAAAAAJhA79UYS9cOADwn3GNxAwAAAAAAABPknn5OR2qMpWsHAPYNH7LAAQAAAAAAgAlSOtJ9NcbSqVQ5TfVzel5M7vUWOQAAAAAAADAB1peOtHSlIl08BPCYmOQXhXmLHQAAAAAAAOiw0oleVDpSTbF0MnVOu8Ukf1W404IHAAAAAAAAOuy2cHzpSDXF0tnEJH9iuMKCBwAAAAAAADrsi1UvPV5DLJ3OMKfd+jn9UUz4uy16AAAAAAAAoIPuLp3o0Lf/ZYJuAbjOwgcAAAAAAAA66GtVTgdqhmWSDgG8Lsxb/AAAAAAAAECHlA70dRphmbQDAAeEu2wAAAAAAAAAQIeUDvQAjbBM4iGA82wAAAAAAAAAQIecpwmWST0AcGjfLQAAAAAAAABAB2zuPg/VBMukHgB4aDg/LNgQAAAAAAAAgBYrnee7qpz20QTLRKbOaXksgOfFQlhnQwAAAAAAAABabF3pPksHqgmWiU0sgkfFYviwDQEAAAAAAABosQ+X7lMDLBOdYU67x2I4IdxmUwAAAAAAAABaqHSdJ5TuUwMsbgHI6YBYEJfaGAAAAAAAAIAWurR0nppfkftuAZiKRfHfw902BwAAAAAAAKBF7ujn9Jul8xSRzYmFcWD4ig0CAAAAAAAAaJHScR6o8RX5yUMAJ4U5mwQAAAAAAADQAqXbPEnTK7LlAwD7h+ttFAAAAAAAAEALlG5zf02vyNYPAfyujQIAAAAAAABogd/V8IpsI/2cHhtuslkAAAAAAAAADXZ1OEDDK7KNVDntGQvllDBr0wAAAAAAAAAaqHSZp5RuU8Mr8sA/A3BY+JqNAwAAAAAAAGig0mUeptkV2b5bAPaKBXN62GDzAAAAAAAAABqkdJinl05Tsyuy/bcAHOkWAAAAAAAAAKCB3/4/UqMrsmO3ACzr5/TGWDxDmwgAAAAAAADQADP9nM4qXaZGV2THDwE8OxbRjTYSAAAAAAAAoAG+WeV0sCZXZCdS57Sin9P7YiHN20wAAAAAAACAMSqd5Zu1uCK7kOmcfqafU9+GAgAAAAAAAIxL6SxncvppDa7Irt0CsFssqAtsKgAAAAAAAMAYXVC6Sw2uyOLcAnC7TQUAAAAAAAAYw7f/by+dpeZWZBFS5bQqFtbbBvf9roZNBgAAAAAAAFgqpaN8W+ksNbcii/MzAMtiUR0d1thgAAAAAAAAgCVUOsqjS2epuRVZvJ8B2DcW1jlhziYDAAAAAAAALIHSTZ5TukqNrcji3wJwbPiOjQYAAAAAAABYAqWbPNa3/0VGkLmcVsYCOzdstNkAAAAAAAAAI1Q6yXNLR6mpFRlRqpyeHQvtRhsOAAAAAAAAMEI3lm5SQysy2p8CWNHP6X2x4OZtOgAAAAAAAMAIzJdOsnSTGlqREWc6p5+JBde38QAAAAAAAACLrXSRpZPUzIoszS0Au8XCu8DmAwAAAAAAAIzABaWT1MyKLO0tALfbfAAAAAAAAIBF/Pb/TTM5HayRFVnCxOLbO7wpzNqIAAAAAAAAgEVQusdTqpz21MiKLP0hgMPC12xEAAAAAAAAwCIo3eNhmliRMaTKaa9YgKeHDTYjAAAAAAAAYBeUzvH00kFqYkXGdwvAkW4BAAAAAAAAABbh2/9HamBFxnsLwLJ+TmfFYpyxKQEAAAAAAAA7YaZ0jqV71MCKjP8QwMGxKL9pYwIAAAAAAAB2wjdL56h5FWnOTwG8PszZnAAAAAAAAIAdUDrG12tcRZp1C8CB/ZxutUEBAAAAAAAAO+B7pWvUuIo07xaAP7BBAQAAAAAAADvg9zWtIs08APDocJVNCgAAAAAAANgOpVt8tKZVpJkHAPYIrw7TNisAAAAAAABgG6Y3d4t7aFpFmnsI4MnhizYsAAAAAAAAYBtKp/hkDatIsw8APCicHH5o0wIAAAAAAAC24LZwYukWNawiDc90Lz0mFuvnbFwAAAAAAADAFlxS5XSAZlWkBRnmtKyf0yti4d5u8wIAAAAAAAB+xO2lSyydomZVpD2HAPaJxfv5sGATAwAAAAAAADZ3h5eULlGjKtKyxOJ9fqhsZAAAAAAAAEDpDqteOkaTKtLC1DmtiEX8KRsZAAAAAAAAULrD0iFqUkVamumcntvPaWgzAwAAAAAAgMlVOsPSHWpQRdr9MwAPDR8I8zY2AAAAAAAAmEilK3xnldM+GlSRlqef07NiQd9gYwMAAAAAAICJdEPpDDWnIh1Idd8tAGeGyuYGAAAAAAAAE6V0hGeWzlBzKtKdnwJ4RrjaBgcAAAAAAAATpXSEz9CYinTrAMAe4Q1h2iYHAAAAAAAAE2F6c0e4h8ZUpGOZyenhsbivstEBAAAAAADARLiqdISaUpHu3gTwijC02QEAAAAAAECnlU7wFRpSkQ6nzulB/ZyusOEBAAAAAABAd5VOsHSDGlKRjqfK6T/Fot9g4wMAAAAAAIBO2lA6Qc2oyARkOqeHxaK/0MYHAAAAAAAAnXRh6QQ1oyKTcQPAVD+nn4+Ff4vNDwAAAAAAADplXT+n55ZOUEQmJLHw9wlvGPgpAAAAAAAAAOiK0v2d3c9pX42oyOQdAnhOuM5GCAAAAAAAAJ1Qur/naEJFJvMAwF7hzDCwGQIAAAAAAECrDTZ3f3tpQkUmNFVOT4xN4HobIgAAAAAAALTa9aX704CKTHCGOS2LzeCVYaNNEQAAAAAAAFpp46CXTirdnwZUZMJT57RnP6ev2RgBAAAAAACgfUrXVzo/zaeI3JvYGF4apm2QAAAAAAAA0CrTVU6/qfEUkR89ALB/+LQNEgAAAAAAAFrl09M5PVLjKSL/liqn3WJzeEG4xSYJAAAAAAAArXBHOK50fRpPEbn/LQD7hXeFOZslAAAAAAAANNqmcE7YX9MpIls7BHBM+CcbJgAAAAAAADTWQrimn9ORGk4R2WqGOa2MzeKMMLBxAgAAAAAAQCP1w6ml29Nwisg2M53TE2PD+LqNEwAAAAAAABr57f+/L52eZlNEHjB1Tstj03jV4L7fDbGJAgAAAAAAQHOUDu+/lk5Psyki25Uqp91i47jEBgoAAAAAAACN8tnS5Wk0RWSHEpvHMeFOmygAAAAAAAA0QunujtJkisjOHABYFd468FMAAAAAAAAAMG6bNnd3qzSZIrLDqXNaFhvIEeE6GyoAAAAAAACMVensjigdniZTRHb2FoCV/ZxOif/O2FQBAAAAAABgLGY2d3YrNZgisquHAB4TPhPmba4AAAAAAACwpEpHd2k/pydoLkVksQ4BvDzcZoMFAAAAAACAJXV7eKXGUkQWLcOc9oqN5aNuAQAAAAAAAIAl/fb/RVVOD9VYisiiZrqXDu/ndI+NFgAAAAAAAEavdHOlo9NUisiip85pt9ho3mKzBQAAAAAAgCVxbunoNJUiMpLEJvOY8E2bLQAAAAAAAIz02/83hsdqKEVklAcA9gi/Fe628QIAAAAAAMBITIdXl25OQykioz4E8O/CX4Q5my8AAAAAAAAsuovDas2kiIw8w5x2jw3nJeF7Nl8AAAAAAABYVGvDfy6dnGZSRJbqFoBV/Zw+EP+dtQkDAAAAAADAoijd258Pc9pPIykiS5p+TofGBvRtGzEAAAAAAAAsim/3c3p6nZMyUkTGchPAH4ZNNmMAAAAAAADYJaVz+0MNpIiMLcOc9omN6BobMgAAAAAAAOySa0r3poEUkbGm6qWXxIa0waYMAAAAAAAAO+Weqpd+TfMoIuM/AJDTfv2cPmBjBgAAAAAAgB3Xz+m8Kqd9NY8iMvbEhjQVG9MR4Vs2aAAAAAAAANhuC5s7tiNK5yYi0ogMc3pQbEyvDX0bNQAAAAAAAGyXu8LJpWvTOIpIoxKbUwr/N8zZrAEAAAAAAGCb5jZ3a776LyKN/TmA42KTWmfDBgAAAAAAgG1aV7o1DaOINPkWgD0HvfSB+O+8TRsAAAAAAAC2/O3/fk7nlG5Nwygijc5sTvvGhnWTjRsAAAAAAAB+UunSSqemWRSRVqTK6YTYvGZs4AAAAAAAAPBj+lVOx2sURaRNPwWwX/i4DRwAAAAAAAB+zIXhoRpFEWnTDQDLY+M6JtxgEwcAAAAAAIB7le7smNKlaRRFpFWZ6aVVsYGdPvBTAAAAAAAAAFA6s9NLh6ZJFJHWpc5pqp/T6tjILg3zNnUAAAAAAAAmVOnKLi3dWenQRERam9jMXh7W2dgBAAAAAACYUKUre7nmUERan2FOe/VzOs8tAAAAAAAAAEzit/9LV1Y6M82hiHTlFoCDwr/Y4AEAAAAAAJgw3y1dmcZQRLp2COAPbPAAAAAAAABMmN/XFIpI59LP6RGxwX0mLNjoAQAAAAAA6LjSiX2mdGSaQhHpXOqcllU5HRMb3c02fAAAAAAAADru+1VOv1A6Mk2hiHQyscntF5vdm0Nl0wcAAAAAAKCjShd2ZpXTQzWEItLpxGZ3aPiKjR8AAAAAAICOKl3YoZpBEZmEWwBWDHrp5Nj0fmjzBwAAAAAAoGPuCL9dOjHNoIhMRDbltKqf08di85v3RwAAAAAAAICOmC8d2Kac9tYIisik/RTA6vDP/hAAAAAAAADQEaX7Wq0JFJHJ/DmAXjoxNsFZfwwAAAAAAABouemql16tARSRic10Tj/Vz+mT/iAAAAAAAADQZv2cPj6d0yM0gCIysYmNcPmgl34xNsWb/GEAAAAAAACgpW4qnVfpvjSAIjLRmc3pQbEpvjYM/HEAAAAAAACgZUrH9drSeWn+RETuuwng0bEx/kXY5I8EAAAAAAAALTEbPlq6Lo2fiMiPJDbH5w/8FAAAAAAAAADtsabqpedq+kRE7pdhTitjkzzDLQAAAAAAAAC0QOm0Tqtz2l3TJyKyhVQ57R8b5bX+YAAAAAAAANBw15ZuS8MnIrLtQwBH9XO6wx8NAAAAAAAAmqh0WaXT0uyJiDzwAYAHx8aZwwZ/QAAAAAAAAGiY6XBq6bQ0eyIi25HYNJ8cLvcHBAAAAAAAgIa5LDxRoycisv23AKyIjfNlYa0/IgAAAAAAADRE6a5eVrosjZ6IyP9j7368LS/rQo8zc+YHMyMy/DKglM8VuGAiV83ggnZNxbK65DIFc6WomVousBtcvSbhfiJILxWXlSyUNEO7LqqbktdLhiVluiQyRH6IijKtwAlnEGS++3vOmTNzztn388iORPkxP86P/eP1Xuu19vwF8zzP53n2Prv3KwD7pXenaYsJAAAAAAAAy2y6f3e1n5s8SdqzXwKI/E/082neogIAAAAAAMAyqXdV19e7Kzd4krQ3vwTQidPzP9TGwgIAAAAAAMAy2daWONXNnSTtZb0Sa5sSV1hYAAAAAAAAWA71rqreWbm5k6SF+BWAEselGy0wAAAAAAAALLF6R3WcGztJWqCmOrGmLfG6rj8FAAAAAAAAwNJp6h1VvatyYydJC/dnAPZpShya/8m+L+202AAAAAAAALDI6p3UpengelclSVrgmhIn5n+y16U5iw4AAAAAAACLpN5FXVfvptzQSdLi/RLAqu4Dfwpgq4UHAAAAAACARVLvol5X76bc0EnSIpb/2W5Ml6dZiw8AAAAAAAALbLZ/F7XRzZwkLUFTnTiyKXGnBQgAAAAAAIAF9pV6F+VGTpKWqF6JFfmf70+nSYsQAAAAAAAAC6TePf1UvYtyIydJS1j+57shvStttxgBAAAAAACwl7b37542uImTpOV5BHBs+lsLEgAAAAAAAHthNv1NvXtyAydJy1RbYnX+R/zytMnCBAAAAAAAwB76enpZvXtyAydJy/sIoP4pgIu6D/xNFgsUAAAAAAAAu6PeMV3U+ul/SRqMpkoc2pT46/zPed4iBQAAAAAAwC6ar3dM9a7JjZskDdYvAfx4/ie9xUIFAAAAAADALtpc75jctEnSAJb/Sb8j7bBYAQAAAAAA8Bh2dDvxVjdskjSgTZb4gabEVRYsAAAAAAAAHk29U6p3S27YJGlAy/+oV3Y78cL8T3uThQsAAAAAAIBHsKneKdW7JTdskjTA7SixNv/TPjt1LV4AAAAAAAB8j3vTmfVOyc2aJA1B+Z/2IekP04xFDAAAAAAAgL6Z/h3SIW7UJGmIajtxQv7nfVOat5gBAAAAAACMvXpndFO9Q3KTJklDVq/EqqbE6/0KAAAAAAAAAP07ozPqHZKbNEkawvI/8Q3pQxY0AAAAAACAsfehtsQ6N2iSNNyPAJ6UbrGoAQAAAAAAjK16V/QkN2eSNOS1JVblf+gvT1stbgAAAAAAAGOn3hG9vPXT/5I0Mo8ADsz/2C9KkxY5AAAAAACAsVHvhi6qd0VuzCRptB4BHJP/wV+T5ix2AAAAAAAAI6/eCV1T74jclEnSiNUrsbIp8dP5H/2dFjwAAAAAAICR98/p+fWOyE2ZJI1gTYmJbifO7PpTAAAAAAAAAKNssn8n5PJfkka9/M/+yjRr8QMAAAAAABg59Q7oSjdikjQ+DwCOS9dZAAEAAAAAAEZOvQM6zo2YJI1JbYnV+R//6WmzRRAAAAAAAGBk1Luf0+tdkBsxSRqjpjqxfy4AF6YpiyEAAAAAAMDQq3c+F9Y7IDdhkjRm9UrUPwVwRLqq+8DfgrEwAgAAAAAADKd61/NnbYnD6h2QJGlMy8Xg5HRjmrc4AgAAAAAADJ35/l3PyW6+JEn1EcBrUtcCCQAAAAAAMHTqHc9r3HhJkr7TdIn1TYn3WCABAAAAAACGS73jqXc9brwkSQ+Wi8PRuUh83kIJAAAAAAAwNP4+HeWmS5L0kGZKTLQlXpSLxCaLJQAAAAAAwMDbNFniRTtKTLjpkiR9X22J9blYvCXdb9EEAAAAAAAYWPUu5y2tn/6XJD3GI4An5oLx4TRj8QQAAAAAABg429MH652Omy1J0q48AvjRXDhutYACAAAAAAAMnJvbTjzDjZYkaZfqlViZi8dL+y/ILKQAAAAAAACD8+3/l9a7HDdakqRdLhePiW4nLsnPWYspAAAAAADAspvt391MuMmSJO3JI4CD0rVpzqIKAAAAAACwbOpdzSfr3Y0bLEnSHtXWXwEo8RPpVgsrAAAAAADAsrkp/di0n/6XJO3lI4ANuaC8OW2xuAIAAAAAACy5zekNTYl1bq4kSXvdZIkn5MLyB2naIgsAAAAAALBk6t3Mpd1O7O/GSpK0IPVK1F8CeHJT4lO5yMxbbAEAAAAAABbdXFPimqkSh7mtkiQteG2JE3Ox+RcLLgAAAAAAwKL7alPieDdUkqRFKxebs9L9Fl0AAAAAAIBFc096uZspSdKiNl3iwFxwLks7LL4AAAAAAAALrt7BXNCWWO9mSpK0qOVisyIXnaelT1qAAQAAAAAAFtxH2hLRK+FiSpK0JI8AVjYlXpQL0JfSvIUYAAAAAABgr82lf0gnpxVupCRJS1avxOq2xC/nAnS3BRkAAAAAAGCvbep24ufcQkmSlqXpEhuaEhflgrTTogwAAAAAALDHdjQl3torscYNlCRp2crF6LBclP7GwgwAAAAAALDH/rwtsb+bJ0nSstftxI/mwrTZ4gwAAAAAALDbbk3HuXGSJA1EMyUm2hIvzcXpPos0AAAAAADALpmvX7BsS5xa71rcOEmSBudXAErsl85N91uwAQAAAAAAHtM96c1tifVumiRJA1cuUE/MheqKtN2iDQAAAAAA8Iim0uVtiUPdMEmSBvcRQCeekQvWZ/o/W2MBBwAAAAAAeKh6h/LptsTT3CxJkga6XomVuWCd0pS41wIOAAAAAADwUPUOpd6l1DsVN0uSpMH/FYASE7mAnZWmLeQAAAAAAAAPqncnZ9W7FDdKkqShqduJx6VLchHbbjEHAAAAAACI7d+5O+nE49wkSZKG8ZcAjszF7Oo0Z1EHAAAAAADGWL0rubrenbhBkiQNZfVv1+Ri9uPpJgs7AAAAAAAwxm5Iz6l3J26QJElDWy5ma9sSr87Puy3uAAAAAADAGPpGW+L0tNrNkSRp6KsLWlPi13OBm7LIAwAAAAAAY2SqKfG2tsQqN0aSpJGpV2JdLnJXplmLPQAAAAAAMAbqncgVbokkSSNZLnI/3JT4jAUfAAAAAAAYA9dMlTjMDZEkaSRrSqzKxe6/ptst+gAAAAAAwAj7fFvi2WmlGyJJ0uj+CkAn1uei96vpWxZ/AAAAAABgBN2VzmhLrHEzJEka+WZKPC4Xvt9K22wCAAAAAACAEXJ/OrcpsdqNkCRpbGpLPCEXvw/lIjhrMwAAAAAAAIyAnU2J9/RKrHUTJEkau3IRPCoXw8/ZEAAAAAAAACPgk22JQ9wASZLGtlwMX5DusCkAAAAAAACG2G3pRDc/kqSxbqoTa9oSv5SL4j02BwAAAAAAwBCqdxyvaEqscvMjSRrreiX2aUtszEXxt3Jx7NokAAAAAAAAQ6TebZwzU2Jftz6SJPXLxfGQ9N40bbMAAAAAAAAMgal0Sf2io5seSZK+p1wgj8mF8uo0Z9MAAAAAAAAMsHqX8fG2xJPd8EiS9MiPAE7OBXOTjQMAAAAAADDA7mhK/IibHUmSHqVeiYm2xCsafwoAAAAAAAAYQPUOoy3xYrc6kiTt2q8ArM8F9K1djwAAAAAAAIDBUu8uzpwssdaNjiRJu/4I4OBcQC9OkzYTAAAAAADAAKh3FhfXOww3OZIk7WZNiafkQvrxtNOmAgAAAAAAWEYz6ap6d+EGR5KkPf8lgJNzQb0hzdtcAAAAAAAAy2AufbYtcYKbG0mS9qJeiZW5qP5kU+JbNhgAAAAAAMBSq3cUbYlT6p2FmxtJkvb+VwAmcnF9bS6yUzYaAAAAAADAEppMp9e7Cjc2kiQt3COAdbnA/kbaZrMBAAAAAAAsgXoncU5bYl83NZIkLXBNicNyoX1fmrbpAAAAAAAAFvmb/++tdxNuaCRJWrxfAvjhXHCvTjttPgAAAAAAgEUwkz7SljjGzYwkSYtYr8TKXHRPakrclJ/zNiEAAAAAAMACmm9KfLEtcUK9k3AzI0nS4v8KwMpcfF+Qi/BWGxEAAAAAAGABfbN+EbF1+S9J0pI/BDgjF+F7bUYAAAAAAIAFcG9b4mVuYCRJWoaaEuvTBbkgtzYlAAAAAADAXri/KXF+vXtwAyNJ0vL9CsDhuShf7hEAAAAAAACwh+odw2VtiUPdvEiStIz1SqzIBfkpTYm/zMV51iYFAAAAAADYDfVu4WOTJY6sdw5uXiRJWv5fAViZi/PR6R/SvM0KAAAAAACwC+aaEtfWO4Zpl/+SJA3cQ4ATc5H+qg0LAAAAAACwC26rdwtuWCRJGtBysT4t3WnTAgAAAAAAPIo72xKnulmRJGmAa0qszUX7zel+mxcAAAAAAOBhbE1n1jsFNyuSJA14kyUOaEtckIv3NpsYAAAAAADgu2xrS5w/WWKjGxVJkoagXol9cvE+vCnxgVzIt9vMAAAAAAAA9c6gKXH5VImD612CJEkaotoST8jF/KNpzqYGAAAAAADGWr0r+Gi9O3CDIknS8D4CeGou6J+zsQEAAAAAgLH26Xpn4OZEkqQhLxf156XbbG4AAAAAAGAs1TuC57gxkSRpBGpKrMqF/bT0DZscAAAAAAAYK5vSz9W7AjcmkiSNSDMl9m1LvCEX+bttdgAAAAAAYOTNp39tS7x+phP7uimRJGnE6pVYnYv9r6f7bHwAAAAAAGCk3ZN+rd4NuCGRJGlEa0sc0JR4Zy76MzY/AAAAAAAwkmaaEufXOwE3I5IkjXi58B+c/tgGCAAAAAAARtIftyX2dyMiSdL4/BLA0bkBuMYmCAAAAAAARsrH2hJHugmRJGm8fgVgRVPiGfn5mTRrQwQAAAAAAEOtzvo/05R4eltihZsQSZLG8SFAJ56dG4LrPQIAAAAAAIChvvz/bFPiBDcfkiSNcb0Sq9oSL8mNwS1p3iYJAAAAAACGSp3t31Jn/XXm7+ZDkiSPAOojgJfmBuE+GyUAAAAAABgq99UZv8t/SZL0YNMl1uQm4U1NiWmbJQAAAAAAGHz9mf6b6ozfTYckSXpIuUnYkP5H2m7jBAAAAAAAA63O8s9qS6x3wyFJkh623CgclBuGd6Zv2zwBAAAAAMBAqjP8d9aZvpsNSZL0WI8ADs2Nw3vTlE0UAAAAAAAMlDq7f2+d5bvRkCRJu1RT4tj0p7mJ2GkzBQAAAAAAA2Fnnd3XGb6bDEmStLuPAI7IzcStNlQAAAAAADAQ/rHO7t1gSJKkPWqqxPG5obglzdlYAQAAAADAsqgz+lumSjzNzYUkSdrjeiVWTJZ4Vm4sPpdmbbIAAAAAAGBJ7UifrbP6OrN3cyFJkvb2EcBEbi5+Mt2c5m22AAAAAABgSdSZ/BfaEi+os3o3FpIkaUHKzcW63GSc1pT4mkcAAAAAAACw+Jf//Zn8aXVG76ZCkiQt9COAtbnRODU3HPfYeAEAAAAAwOLpz+JPrbN5NxSSJGmxHgFM5KbjtbnpmLIBAwAAAACARVFn8Ke3fvZfkiQtwSOAtelXc/OxxSYMAAAAAAAW1JY6g/fNf0mStJSPAPbPTchb0t02YwAAAAAAsCA2p7PrDN5NhCRJWupHAAfnRuR3UmNTBgAAAAAAe6XO2t/VljjADYQkSVqWmhKHpvfkpmSHzRkAAAAAAOyRHXXWXmfubh4kSdJyPwLYkN6fG5RZmzQAAAAAANgtO5sS76uzdjcOkiRpIMoNysb0ibTdZg0AAAAAAHZJnal/NO3vpkGSJA1MvRIrpko8JTcpV6VpmzYAAAAAAHhUdZZ+VZ2t1xm7mwZJkjRojwBWTpY4PjcsV9efLLJ5AwAAAACAhzVTL//rTL3O1t0wSJKkgX0EkJuWk5oSX8zPeZs4AAAAAAB4iPmmxI1tiRNd/kuSpIEvNy0TuYF5em5gbvcIAAAAAAAAHnL5X2fnT6+zdDcKkiRpaMoNzDNzI/NlGzoAAAAAAIheU+LWOjt3gyBJkoau3Miszo3Mad0HXjPa3AEAAAAAMM7qrPxn0yo3CJIkaShrS2xIr/IIAAAAAACAcb78r7PyOjN3cyBJkkbhEcArc4Nzl00eAAAAAABj5q46I3f5L0mSRukRwOr0ktzobLXZAwAAAABgTGyts/E6I3dTIEmSRvEhQH0EcKdNHwAAAAAAI+7OOhN3MyBJkkb5AcDq/p8DuN3mDwAAAACAEXV7/2f/ffNfkiSN/COADbn5+ZW02SYQAAAAAIARs6kt8do6C3cjIEmSxqJuJzY2Jc7LjdB9NoMAAAAAAIyIOvN+e1vicW4CJEnSWNWUWJfOzc1QY1MIAAAAAMCQa+rMu86+3QBIkqRxfghwrl8CAAAAAABgmL/5X2fdJv6SJMkDgAd+CeAduUHaYpMIAAAAAMCQ2VJn3L75L0mS9O+PAA5M53kEAAAAAADAkF3+n1dn3Cb9kiRJ3/8IoNP15wAAAAAAABh89Wf/Oy7/JUmSHvkRQP1zAOfmxqmxeQQAAAAAYEA1dZbtZ/8lSZJ27SHAb+QGqrWJBAAAAABgAL/5f65JviRJ0i7WltiQm6jLPAIAAAAAAGCA1Jn1u9J6k3xJkqRdrFdixVSJI3ITdblHAAAAAAAADMjl/+V1dl1n2Cb5kiRJe/YI4ANp2uYSAAAAAIBlUmfUH3D5L0mStJePALaXODg3Vn+UtttkAgAAAACwxOps+o/qrNrlvyRJ0sI8BFjXfwTglwAAAAAAAFjKb/7/UZ1Rm9RLkiQtYP1fAqh/DqC16QQAAAAAYJHVWfQH6mzahF6SJGmBqz+tVP++Um64LvcIAAAAAACARb78v7zOpP3svyRJ0mI/AujE/8rN1zabUAAAAAAAFth9TYkL2hKHu/yXJElagkcAbSfW5wbsN3Ij1tiMAgAAAACwQJqmxLlpnWm8JEnSElc3YvU1pk0pAAAAAAAL8M3/c03eJUmSlu8BwLrUyY3ZFptTAAAAAAD20JY6a/bNf0mSpOV/BHBgOs8jAAAAAAAA9vDy/7w6azZxlyRJGpxHAO/o+nMAAAAAAADsuvqz/+9w+S9JkjR4jwDqnwM4NzdsjU0rAAAAAACPoakzZT/7L0mSNNgPAc71SwAAAAAAADzGN//PNVGXJEka/AcA9ZcAzssN3GabWAAAAAAAvsftTYm3+ea/JEnSkNTtxMbcxP1K3cjZzAIAAAAA8G+X/22JV6UNJumSJElDVN3ApVfmhu5Om1oAAAAAgLF3Z50Zu/yXJEka3kcAq9NLcmO31eYWAAAAAGBsba2z4jozNjmXJEka/ocA9RHAXTa5AAAAAABj5646IzYplyRJGp0HAKv7fw7gdptdAAAAAICxcXv/Z/9981+SJGnEHgFsSK/yCAAAAAAAYGwu/19VZ8Mm5JIkSSP6CCA3fac1Jb6cn/M2wAAAAAAAI2e+KXFrfv6sy39JkqQRLzd+q3Pj98zmgV8C8AgAAAAAAGC0Lv/r7PeZaZWJuCRJ0piUm7+n50bwi/m506YYAAAAAGDozTQlbqyzXxNwSZKkMastMZEbwZPS1Wna5hgAAAAAYGjVGe9VbYkT6+zXBFySJGkM65VYOVni+LoxTNttkgEAAAAAhk6d7V5VZ7115mvyLUmSNOaPAKZKPCU3iJ9IszbLAAAAAABDo/6J14/WGa/Lf0mSJP3bI4AVuUnc2JR4f37usGkGAAAAABh4O5oS78vP/euM16RbkiRJDyk3ixvSe3LD2Ng8AwAAAAAMrKbOcutM12RbkiRJj/YI4NDcPP5OutsmGgAAAABg4GxO76qzXBNtSZIkPWZtiYNzA/mWtMVmGgAAAABgYNSZ7dltiQNMsiVJkrQ7jwD2T7+am8kpm2oAAAAAgGU3VWe2dXZrgi1JkqQ9eQSwtinx2nRPbi7nbbABAAAAAJbcfH9Ge3qd2ZpcS5IkaW8eAUzkxvLU3GB+zSMAAAAAAIAlv/yvs9lT66zWxFqSJEkL8QhgbW4wT0s3p1mbbgAAAACARbcjfaHOZn3zX5IkSQv9CGBdbjR/Mn0uzdl8AwAAAAAsmjqD/Wxb4gV1NmtCLUmSpAWvV2JissSzcuN5iw04AAAAAMCiuaXOYnt+9l+SJEmL/AhgxVSJp+UG9B/TThtxAAAAAIAFU2eu/1hnsHUWayItSZKkJakpcURuRK9MrU05AAAAAMBem2pK/GmdvZpAS5IkacnrduKo3JRemr5tcw4AAAAAsMfqjPW9TYljTZ4lSZK0bLUlDs2N6TvTNpt0AAAAAIDdtr3OWOus1cRZkiRJg/AI4KDcoL6pKTFtsw4AAAAAsGv6M9Wz6ozVpFmSJEmD9AhgfW5UX5c2pXmbdwAAAACAR1RnqPfVL1bV2aoJsyRJkgauXomJ3Kz+TG5av5B22MQDAAAAAHyf2XRLW+Kl0yXWmCxLkiRpkB8BrGo78fzcwH6qv5G1oQcAAAAA+PfL/+vbEi+ps1QTZUmSJA1FTYln5Ub2/9nQAwAAAAA86DPdTjzb5b8kSZKGrtzMHpv+xKYeAAAAACA+1pR4usmxJEmShrK2xIrc1P5gbmovzs/WBh8AAAAAGEMz6Y/bEkfWmanJsSRJkob9IcD+TYlObnLvTvM2/AAAAADAGKiz0HuaEufXGalJsSRJkkam6RIbcpP7y7nh3WzjDwAAAACMgX9Nv9aWOMCEWJIkSSNXr8Tq3Oz+Um56v2zzDwAAAACMsE1tidfXmajJsCRJkka2mRJrmxIvzg3wbQ4BAAAAAMAIqrPPn5vpxL4mwpIkSRr5mhKrcgN8QvrrNOdAAAAAAACMgDrr/HR6Tp2BmgRLkiRprGpLPDU3wx9N2x0OAAAAAIAhVmecH60zT5NfSZIkjfMjgCc0JT6Qm+NtDgkAAAAAwBDaVmecddZp4itJkiSPAEocns7PjfJWhwUAAAAAYIhsrbPNOuM06ZUkSZKyXol9JktszM3ymelOhwYAAAAAYAjUWeaZdbZZZ5ySJEmSvqumxNq2xKm5af5SmnOAAAAAAAAGUJ1d3lZnmXWmabIrSZIkPfpDgOPTp3ITvcNhAgAAAAAYILNNiWvbEiea5EqSJEm7WG6gj8zN9IdT61ABAAAAAAyAOqv8WDraBFeSJEnajXolVkyVeFJupi9OWxwuAAAAAIBldH+6bLLEkdMlVpjgSpIkSXvwCKAtcUhurH8t3e2QAQAAAAAsg3ubEue3JQ7tufyXJEmS9q7cYO+bm+uX5Sb7jvz3vAMHAAAAALAE6izym/3Z5HqTWkmSJGlhHwIcnxvtL+TnjMMHAAAAALCIZpoSX8zPk0xmJUmSpEVousTKyRL/KTfdf5YahxAAAAAAYBFMpo+0JU5IK01mJUmSpEWqlxvuthNHdTtxSW7Cv+0wAgAAAAAsoG3pvW2JY3ou/yVJkqSlqduJH8iN+Nn917gOJgAAAADAQnzz/5ymxGEmsJIkSdIS15bYNzfkP5Mb8m/l55wDCgAAAACwB+b6M8bT68zR5FWSJElavkcAE+mU3Jx/Ns04rAAAAAAAu6HOFD9bZ4x11mjiKkmSJC1z9W9x5eb8hNyoX+VPAgAAAAAAu/GT/1fV2WKdMZq0SpIkSQNUU+IpuWG/OE07vAAAAAAAj6LOEC+uM0WTVUmSJGlAa0scnBv3MxuPAAAAAACAh9GfHZ5ZZ4kmqpIkSdKAN1libW7eX5yb+DvSnEMNAAAAANCfFd5RZ4d1hmiSKkmSJA1RTYkfyQ39x9OUww0AAAAAjLU6I/x4nRmanEqSJElDWlviybmxvyR1HXIAAAAAYCzV2eAldVZoYipJkiQN/yOAjbnBPyfd47ADAAAAAGOlzgTPqTNCk1JJkiRpRJopsS43+a/Nzf5tDj0AAAAAMBbqLPAVMyX2NSGVJEmSRqheiX0mS6zJDf9z0t+lWQcgAAAAABhJO9Mn04lNiVWmo5IkSdIIlxv/J+bG//35uc1hCAAAAABGyv1Nife0JQ4xCZUkSZLGpOkSj89DwG/mgeAuhyIAAAAAGAl11ndur8RaE1BJkiRpzJopsSEPBK9JX3Q4AgAAAICh9vl0RlNitcmnJEmSNKa1JdbmweD5eTC4Nj9nHZQAAAAAYKjUmd41bYlnpzUmnpIkSdKYlweEiTwcPDk//3eacmgCAAAAgKFQZ3lXTJU4rC2x0qRTkiRJ0oP1SqxrSvx6HhrudngCAAAAgIH2jabE20w1JUmSJD1ibYnV6dV5gLgpzTlIAQAAAMBAqTO7G9oSp6dVJpqSJEmSHrU8QKxNp6S/StsdqgAAAABgINRZ3dXpOfWLPCaZkiRJknap6RKr8iBxdFPico8AAAAAAGDZTXc7cUlb4sheiZUmmJIkSZJ2u6bEfnm4OCs/783PeQctAAAAAFhS8/3Z3FndTjzOxFKSJEnSXtWWmGgf+JMAn05TDl0AAAAAsCTqLO7TdTZXZ3QmlZIkSZIWpPqzYnnIeFr3gT8J8G2HLwAAAABYvG/9p3vqLK7O5PzkvyRJkqRFKQ8ch+bB45z0rw5iAAAAALAoNqc311mciaQkSZKkxX4EsD6dmoeQWx3GAAAAAGBB3Vpnb3UGZxIpSZIkaUmaKTGRh5Hj0p+nHQ5mAAAAALBXdvRnbcfV2ZsJpCRJkqQlry2xf1PivDyYfKP/t8kc1gAAAABg19WZ2r80Jd5aZ20mjpIkSZKWtV6JNXlIeUW63oENAAAAAHZLnam9os7YTBolSZIkDUx5UDk5fcSfBAAAAACAXfrJ/zpLO9lkUZIkSdIgPgBY0ZaI/Lwg3eMQBwAAAAAPq87OLujP0laYLEqSJEkayHol9smDy/puJ16dh5c70pwDHQAAAAB8R52VfTW9vM7Q6ixNkiRJkoaipsTx6Zo80Ew73AEAAAAw5qbrrKzOzEwOJUmSJA1lUyUOy8PNpWmzQx4AAAAAY6rOxi6tszITQ0mSJElDXbcT++cB503pVn8SAAAAAIAx+8n/m9Ib6ozMpFCSJEnSSNSW2JAHnZ9I16ZZhz8AAAAARlydgX0y/VhTYp0JoSRJkqRRewQwkQeeg7qduCQ/tzsEAgAAADCitvdnYAdNl1hpMihJkiRpZGtKrEqvygPQl9NOB0IAAAAARubiv8TN6aVpwiRQkiRJ0lg0XWJ1W+K5eRD6SGocDgEAAAAYcvenD7adeEbPt/4lSZIkjWN5KPoP6bx0r0MiAAAAAENqU3pLW+KJJn6SJEmSxv0RwH55OHpJft7qsAgAAADAkPn7yRIvakusN+mTJEmSpGxHiYk8LD0t/XmaSfMOjwAAAAAMqDq76jYl3pOfR9XZlgmfJEmSJH1PbYn989D05nRbmnOYBAAAAGDAzKYb02umfetfkiRJkh69Xok13U6ckoeov0w7HSoBAAAAGBBT6ap0simeJEmSJO1GTYn/mIep30tbHS4BAAAAWGab04XpCJM7SZIkSdrNeiX2mSqxMQ9VZ6SbHTIBAAAAWKaf/L8unT7Vif3rzEqSJEmStIe1JVan4/OQ9Sdp0qETAAAAgCVSZ1FXpuPqjMqkTpIkSZIWsG4nzswD1z+nOQdQAAAAABbJ3HdmUJ0400ROkiRJkhbrAUCJlen56ROpcRgFAAAAYBG+9X9Nfwa10kROkiRJkhaxXh682k4clQew307fSPMOpgAAAAAsgK3porbEMT2X/5IkSZK0dOVB7MA8kL0s3eJwCgAAAMBeqjOml9eZk8mbJEmSJC3PI4BVeTB7UvpQmvFrAAAAAADshvn+TKnOlp5UZ00mbpIkSZK0zOUBbUNT4vX5+aW0w+EVAAAAgMdQL/5vSme0JdaZsEmSJEnSANUrsartxPPz0HZl6jrEAgAAAPAI7k1/2HbihJ5v/UuSJEnS4NaUODwPcOekbzjMAgAAAPA9NqUz0yEmaZIkSZI0BM2UWJuHuJ9Nn/InAQAAAACoM6KmxFXdTrxwR4m1JmiSJEmSNES1JSbSk/Jwd0HakuYddAEAAADGTp0Jbe524q2TJX6gKbHS5EySJEmShvsxwI/n4e7aPOxNO/QCAAAAjI3JpsRf19mQCZkkSZIkjdYjgMhD37vTnQ6/AAAAACNtNn09XTRV4lCTMUmSJEkawfLQt1/6hfS3abvDMAAAAMDIqTOfv0kva0tsMBGTJEmSpBEuD36r8wB4bHpX/Rk4h2IAAACA0fnJ//7M59g6AzIJkyRJkqQxKQ+CG9JpzQN/EmDWARkAAABgqH/y/yvpp7q+9S9JkiRJ41mvxIqpThyZB8PL09Y058AMAAAAMDTm+jOdy+uMp856TLwkSZIkaczLQ+LG9Lp0Xdrp8AwAAAAw8Hb2Zzl1prPRhEuSJEmS9GC9EquaEifmgfHS1DhEAwAAAAysOru5tM5y6kzHZEuSJEmS9LDl4fHg9oGX4zc6TAMAAAAMnBv7s5uDTbIkSZIkSY9ar8Q+U51Yk4fI45oSV/RflM87XAMAAAAsmzqb2daf1RxXZzd1hiNJkiRJ0u48Bljb7cTpebD8fJp22AYAAABYcnUmc31b4tQ6qzGxkiRJkiTtVXnAjDxovjvd6dANAAAAsGTqLObddTZjQiVJkiRJWrDysLlf+oX0t2m7AzgAAADAoplMn+zPYvYzmZIkSZIkLXhtidV56Dw2labEPQ7jAAAAAAurP3N5Rzq6zmJMpCRJkiRJi/0QYH16dh5Eb0g7Hc4BAAAA9lqdsdxQZy519mICJUmSJEla6ocAB+XB9LfS19MOB3UAAACA3VZnKl9Lv1lnLSZOkiRJkqRla7rEvm0nfiIPqVemrkM7AAAAwC6rs5Qr2048r1dilUmTJEmSJGkgakocngfWs9Mmh3cAAACAx1RnKGfXmYrJkiRJkiRp4NpRYm23Ey/Mg+v/yQPspIM8AAAAwPeZ/M7spBMvrLMUEyVJkiRJ0sCWB9iVkyWe0HbijXmgvSPNOdgDAAAAfGdGckedmdTZSZ2hmCRJkiRJkoamPNQelYfZP83Pex3yAQAAgDF2T39GcpSJkSRJkiRpaNtZYr9uJ87KA+51qXXgBwAAAMZI25+JvGFniceZFEmSJEmShr62xOo86D49XZTuSvMGAAAAAMAIq7OPf0kX1plInY2YEEmSJEmSRu0hwIHplDz4ftwgAAAAABhhH29LvCBtNBGSJEmSJI1svRIrmhJPyIPwOenuNGcoAAAAAIyAOuP45/Tf6uyjzkBMgiRJkiRJY1MeiI/JA/Ef5OdmDwEAAACAIb7439yfcRxj4iNJkiRJGtumS2zIw/Er01+lKUMDAAAAYIhM9Wcar6wzDpMeSZIkSZKypsRReVg+P91ueAAAAAAMgTrDOL/ONEx2JEmSJEn6rnol9pnqxH55cD4lfTg1BgkAAADAAGr6s4tT6iyjzjQkSZIkSdLD1JZYmQfojfn52qbEpvz3rMECAAAAMABm66yiziz6s4uVJjmSJEmSJO1iO0ockAfr389D9WYPAQAAAIDluvivs4k6o6izChMbSZIkSZL2sDxgr8sD9ovz8//6swAAAADAEppP99WZRH82sc6kRpIkSZKkhXkIEOnsdKsBBAAAALAE6gzirDqTMJmRJEmSJGmBmy6xNg/dJzYl3p+f2w0iAAAAgEWwrSnxB3UGUWcRJjKSJEmSJC1SeQDfpy1xYNuJ0/MgfkPaaTABAAAALIA6Y/inthOntSUOqDMISZIkSZK0ROVh/JA8mL8tfSXtMKgAAAAA9kCdKXwp/ffpEo83cZEkSZIkaXkfApyUh/Qr0p2GFgAAAMBuqLOEK5oSzzBhkSRJkiRpAOqV2Ge6xIF5YP/59Jdp0gADAAAAeBST/RnCz9eZQs/P/UuSJEmSNFjlgX1VHtyPSm9sSnzdMAMAAAD4Xv2ZwRvrDKHOEkxUJEmSJEka4PIAvyYP80fk52X5uS0/5ww4AAAAYKzN9WcEl/VnBmtMUCRJkiRJGqJ6JSYmO/Ejeaj/k7TVQwAAAAAYv4v/tCVdWWcEdVZgYiJJkiRJ0hDXltiYB/1Xp79KU4YfAAAAMBam+rOAV06X2GBCIkmSJEnSCNWUODK9PQ/+N6edBiEAAAAwkuqZ/+Y6A6izABMRSZIkSZJGtG6JfdOJ6XfTtwxFAAAAYKR8q3/mr2f/fU1CJEmSJEka8XolVnRL7JdOSZ/ofzNg3pAEAAAAhtJ8/2x/dXp2PfPXs78JiCRJkiRJY1ZbYqJb4nXpH1LjIQAAAAAM1cV/0z/Tv66e8U06JEmSJEka83olVk6WOLpb4h3pi/1vDRikAAAAwOCqZ/d/qmf5eqavZ3sTDkmSJEmS9GDTJfbtduK53RLvTvcYpgAAAMBAqmf2329KnFTP8iYakiRJkiTpEeuWOCi9OH0sTRqsAAAAwECY7J/V65n9IBMMSZIkSZK0S9W/GzhZ4tD8fE1T4sZuiRmDFgAAAFgWM/VsXs/o/bP6hMmFJEmSJEnao3ol1nU78aZuia/6RQAAAABYMt30lXomr2dzEwpJkiRJkrQgTZdYMdmJY7qd+J1uiZvTdoMYAAAAWBTb+2fvC9sSR9czucmEJEmSJEla8LolNqT/kn4vbTaUAQAAgAW1uX/mrmfvDSYRkiRJkiRp0WtKHJCe1y3xYb8GAAAAAAvyrf8P17N2PXObPEiSJEmSpCWtLbHPZImD8/MlTYm/65aYNrABAACA3TJdz9T1bN0/Yxs4SJIkSZKk5W26xOObEr/YLXF9mjTAAQAAgEc12T9Dn9ErsdZkQZIkSZIkDVxTJQ7plnhn+nxqDXQAAADgIdr+mfmd9QxtkiBJkiRJkga6bok16VnpwnR7mjPgAQAAYMzN9c/IF/bPzGtMECRJkiRJ0tDUltjYlPjP3RLvz89pwx4AAADGUf9M/O56Rq5nZRMDSZIkSZI0tHVLbJws8bz8/Iv+Tx3OGwABAAAw4ub7Z+C/qGfitsTjTQgkSZIkSdLI1Cuxui3xY02JP+uW+KZhEAAAACNqa/pE24lT6lnYRECSJEmSJI1s0yUe35Q4ow5D0haDIQAAAEZEPeN+op55p33jX5IkSZIkjUvTJVa0JX6wW+IX00fS/QZFAAAADKnJdG365XrWrWdeJ39JkiRJkjR2TZdY1S1xRHplus7QCAAAgCFzfXpjOjatddKXJEmSJEljX1tidbfE4enN6ctpNs0bJAEAADCAZpsS38zPc/pn2TVO9pIkSZIkSQ9Tt8RB6U39XwRoDJYAAAAYEFPplnRBW+KHnOAlSZIkSZJ2sW6JJ6a3pxvTdoMmAAAAlkk9k97YlPjttsRTndglSZIkSZL2oLbEim6Jk9L5/YcAOwyeAAAAWCI7+mfReiY9qZ5RndQlSZIkSZL2srbEhm6JZ9ZfBGhKbDKEAgAAYDH1z571V+meWc+kTuaSJEmSJEkLXFtiXVMiuiU+mJ9Nfs4ZTAEAALBA5vpnzQ9OlXhqPYM6iUuSJEmSJC1yvRITkyWOb0pc3i3x9TRjUAUAAMAeqmfKr9czZj1r1jOnk7ckSZIkSdIS1yuxui3xnG6Jy9JX06zBFQAAALtotn+WvKyeLesZ00lbkiRJkiRpmZstsW+3xE+l3003ph0GWQAAADzST/2nr6Xfr2fJeqZ0spYkSZIkSRqgeiVWTJd4fLfEM9PbmxKbDLUAAAD4bnlW3JqfF6fnTpY4oJ4lnaglSZIkSZIGuLbEuqbEEd0S/zM/t/S/3WHYBQAAMKbf+M+zYZOfH5wscXyeGfdz8S9JkiRJkjSEtSV+qFvignRLmjL4AgAAGBv1DHhLU+KSevHfKzHhlCxJkiRJkjQCtSWe2pT47W6JG9I2gzAAAICRtT3dWM+A9SzoRCxJkiRJkjSCtSVWpBO6Jc5O16ZJgzHg/7d3P8CWlnUBx2FhV3QB0wUBdx1/CkJChGaGSmmmI1JMmYr9cwgxEiWqsUnLgvMk2mBlGWapZShJkdZYOJJBhkmlK5lpqIAFiZgICHie9+5hl7339nvufaht20TY3bv3z+cz8533quM4cs85z+9533veV5IkScumLe3Cf/ba7KmD2/wDAAAALH+1xIOyb85eln3MSTJJkiRJWvJdnb0m+7ahxFo7XwAAAIAVppZYkz0y++ns2myrk2aSJEmStGTa2vdybU+3fijxYDtdAAAAANofA6zLXpF9NLvNiTRJkiRJWrTd1vdubQ+3zo4WAAAAgB2qJTaMS5yWxw9mX3FiTZIkSZIWTW2P9sG+Z9tgBwsAAADAfZqU2Gsosb6WOD17d/albMbJNkmSJEla8Gb6nqztzU5ve7W2ZwMAAACA+2VSYt+hxGHZibXEO8Yl7nDyTZIkSZIWpr4H+522J2t7s7ZHs1MFAAAAYKfMllhVS3xT9oTs7XX+JNS0E3KSJEmStMub7nuutvd6wlDiwLYnszMFAAAAYLeo848H+KXsk9ldTtBJkiRJ0k53V99jtb3WejtPAAAAABbUUGLDuMTP1xIfzm53VwBJkiRJut/f9m97qQ+3vVXbY9lpAgAAALDHTErsU0s8LjsjuyS700k8SZIkSbrP7ux7qLaXelzbW9lhAgAAALAozJbYZyjxqHGJE2uJi7KvOaEnSZIkSf+ntle6qO2d2h5q1oV/AAAAABarocRetcTDsqdnf5jd6tEAkiRJktzqf25v9NZxiae2PVPbOwEAAADAklJLHFFHcV4er8uqE3+SJEmSVlB1bi80vyc6wg4RAAAAgCVvUqLdGeCIWuJXso9kX81mnAyUJEmStAyb6XueK7NR2wtNfNsfAAAAgOVmUmL1UOKocYnTa4mLs9ucHJQkSZK0jGp7nIvbnif3PofPltjHThAAAACAZW8o8cha4uTszdmNThRKkiRJWsLd2Pc2J7e9jh0fAAAAACtOLbFqXOLAocS35M+vHs+fNNvq8QCSJEmSlsBt/rf2Pcyr256m7W3aHsdODwAAAAD2mrsrwN7Zj9cSV2RfyjY7sShJkiRpEbW571WuaHuXtoexkwMAAACAr6OWOHBc4qQ8vi375+weJxolSZIk7cHu6XuTt/W9yoF2bgAAAABwP0xKPKSWOH5c4tw8/l1WnXiUJEmStIC1Pcjf9T3J8W2PYqcGAAAAADthKLG6lji6zj8e4E+zKSciJUmSJO3Gpvreo+1Bjm57EjszAAAAANiFaonV4xLrhhIn5M/vGs9/G2fayUlJkiRJu6Dpvsd4V9tztL1HdeEfAAAAABbGUGJ9LXFOdnX2VScsJUmSJD2Abut7inPaHsNOCwAAAAD2oFpiQx3FmXn8q+zmbKuTmJIkSZK+Tm3P8B/ZZeP52/xvsLMCAAAAgEViUmKvqRKH1VGcUkv8dvbP2RYnNiVJkiRt05a+V2h7huflHuLQtpcAAAAAABapocRDa4knZa/IrszudqJTkiRJWtG1PcGVuVd4SdsrtD2DnRMAAAAALCFDiTV1FIfWEt+dXZjdmk07+SlJkiStiKb7HuDCuT3BaO7b/vvaKQEAAADAMjAp8fA6ijPHJTbWErdkm50UlSRJkpbdN/2/PDfz5+zf9gB2QgAAAACwjA0l1tYSL8x+L7s6G5wolSRJkpZ0d2YfzS7Ief95bea38wEAAACAFWRSYr86im8flzi7lvhAvz2ok6eSJEnS0unm7M9zpj8jj8e1Gd9OBwAAAABWsKFE64ha4vuyN2Y39ueFOqEqSZIkLb62Ztdk59dRPHdc4tGZjQ0AAAAA8D8mJVYNozign0A8tY7i7/vJxRknWSVJkqQ92szcbJ4zepvVs0cNJfZvM7ydDAAAAABwnyYlVg8lnjwu8aZa4tPZHU68SpIkSQtam8E/3WbyNpu3Gd1OBQAAAADYKeMSh9dRvLyW+KvshmyLk7GSJEnSbqnN2tdnl7UZvM3idiQAAAAAwC41KbHXVIlDa4nvz0p2RfY1J2glSZKkXdKd2Qf6rH3SphKPaDM4AAAAAMBuNZTYb1ziqOy5tcQfZJ93wlaSJEl6QLVZ+s1zs/Uojmizth0HAAAAALDghhKth2XfnL20lvhINsmmnciVJEmSdliblaeyv84Z+sVTozh8XOKhY9/2BwAAAAAWm6HEY+oozhuX+EQtcUt/hqkTvZIkSVrJbc7+c25Gzlm5zcx2DgAAAADAkjEu8fA6ihfWEm/LPpZ9zYlfSZIkrbDaDHxV9pacj7+/zch2CgAAAADAkjVbYvVQ4rha4qzswv6MU3cFkCRJ0nJtS5952+x7VntcVpuJ7QwAAAAAgGVjUmLVMIpHjEuckL0y+4CTw5IkSVou5Xy7qc24fdY9oc2+bQa2EwAAAAAAlrVxif2yR0yVeEYtcUH2hWw6m3HyWJIkSUukmT7Dtln2gpxtv6vNuG3WNfEDAAAAACvWpMQBQ4nn1BLvyK7P7sq2OqksSZKkRdbWPqu2mfUdbYZts6yJHgAAAABgO5MSe02VeEwdxc/UEhdnn+gnWJ1sliRJ0p7srj6bXtxm1TazttkVAAAAAIBvwFBi/zqK7xiX+Ml+Z4DPZvc4+SxJkqQFapJd02bRuZk0Z9M2o5rUAQAAAAB2wlDioDqKp4xLvCL7s+x2J6QlSZK0O2qzZp85z+wX/Q8ykQMAAAAA7GLjEmuyg7LDs5/PPlJLbMpmnKyWJEnSA6zNkpvabNlnzMP7zLnGBA4AAAAAsIDGJR5TR/GqWmJj9qVsyklsSZIk3UdTfXbc2GbJNlOarAEAAAAAFonZEg8eSpxYR/GrtcTl2fXZFie3JUmS1NvSZ8TL28zYZsc2Q5qkAQAAAAAWqdkS+2wqsb6O4qShxC/XEh/K7nTCW5IkacXWZsEPzc2GOSO2WbHNjCZnAAAAAIAlZLbEvkOJx9cSP5DH1+bxivZ8VyfBJUmSln1t5ruiz4BtFnx8mw1NyAAAAAAAS9ykxKqpEmvrKA7dVOIJ/UTwv2RbsxknyCVJkpZ8M322+5c267WZr81+bQZss6CJGAAAAABgmRuXiOzscXsObImbsnE/cewkuiRJ0uKuzWx3ZV9os1yf6cKECwAAAABA+2OA78xeVUtcnH2iPyvWyXVJkqTF1Z19Vru4juJncn47wSQLAAAAAMAODSX2r6P4jnGJl9USb8/+MatOtkuSJO2xap/J3j43o+Ws1mY2kysAAAAAAN+wocS67FuzU7JfryWudgJekiRpwbq6zWB9Fmsz2ToTKgAAAAAAO2VSYtVQ4oBaYsNUiWfk8Y3Z57PpbMbJeUmSpJ1ups9WbcZ6Y5+5NrQZrM1iJlIAAAAAAHab2RJrpko8ZVziNdnGWuLmbNxPXDuJL0mS9PWb7rPTzW2WajNVm63ajGXSBAAAAABgjxmX2C/7nuwXaolL6vwfBNzixL4kSdL/6ZY+K13SZqc+Q+1nogQAAAAAYNGZlHjIUOIJdRQvriV+Lbu83x1gqxP+kiRpBba1z0KXz81GOSO1WanNTCZHAAAAAACWjH5ngCOzZ9YSZ2V/nN3kQoAkSVoB3dRnn7PaLNRnIt/0BwAAAABg6RtKrMnWZUdmPzAu8bvj+W/DteffzrhIIEmSlnBtlpnO2ea6NuO0WafPPG32WWMSBAAAAABgRRhKPLGWODe7Mrshu73/UYCLCZIkabE23WeWG/oMc26baUx2AAAAAACQZkusnipx7LjE6dm7aomr+vNyN7vIIEmSFkGb+2xyVZtV2szSZpc2w5jkAAAAAADg/zGU2LeO4qha4kVZyS7JPp9tcfFBkiQtYFv6DHJJn0le1GaUNquY2AAAAAAA4H6alHjQUGJ9HcV31hI/mp2fXZ5NuSghSZJ2Q1N91jh/bvbIGaTNIm0mMZkBAAAAAMAuMpRYle1fR3FoLXFkdkb27uym/izeGRctJEnS/WimzxA39ZnijLkZI2eNNnO02cMEBgAAAAAAC2i2xJpa4rg6irPz+JfZ9dlXsk3+KECSJG1zsX9TnxGun5sZ5meH49osYaICAAAAAIBFZrbEqkl7ZECJF4xLvD6Pf559Krst2+rihyRJK6qtfQb4pzYT9NngBW1WmPXtfgAAAAAAWFomJQ4YSpxQR3FanT/p/97sc+4MIEnSsv6m/+f6mv/6NgPkLPDtbSYwGQEAAAAAwDIxlHhQ9qha4mnZj2S/kV2VDS6WSJK0pBv6mv4bfY1/Wlvz29pvAgIAAAAAgGWultg7OyB75FSJ4/L4kuzt2XXZdP/2oLsESJK0+L7dP9PX6uvqKC5ua3hfyx/Z1/a9TToAAAAAAMCcWuKw7Ieyt4xLfCyPN/TnB9/twoskSQva3X0Nbmvxv7a1ua/Rh5lYAAAAAACA+2UosTo7to7i1HGJ36ol3pddnX0p2+zCjCRJu7TNfY1ta+375tbeXIPbWtzWZJMJAAAAAACwy0xKHDCUeNJ4/vnC52R/mH04u9VFG0mSHlC39rX097PXtDW2rbVtzTV5AAAAAAAAC2JSYnUtcXAdxTF5PHEocWYe35z9QzZxQUeSpB026Wvlm/vaeWJfS9fNllhlwgAAAAAAAPao2RL3/kHAQ7P12VHZT2TvzD7Tb2k803PxR5K0Erp33dvc18Lfy07va2RbKx/a1s62hgIAAAAAACwZQ4nDsueOS5xfS3wwuzb7YnZntsVFIknSEm9LX9O+2Ne4D7Y1r619bQ00CQAAAAAAAMtWLXHQUOIZdRQ/NZ7/RuT7s49lN3l8gCRpidzGv61ZV2cfmFvLck2bW9tyjbPSAwAAAAAAK9Jsib0n848OOC57wbjEK/N4QXZZ9umsutAkSdrD1b4mtbXpgr5WvSB70qYSD2trmRUdAAAAAABgBzaVOGAocUQtcXx2cnZ2dlG2MbvDhShJ0m7ujr7mXNTXoLYWHd/WprZGWakBAAAAAAAeoKHEmmzduMSGqRLH5M/PqyXeUEfx4fz3bs+fZ3ouWkmS7k9z68fcWpJrSltb2hrT1pq25rS1p61BVmIAAAAAAIAFMCmx31Di2Frix7LfGZf4aB6vzb7Yv8F5twtckrTim6rzfzB2U1sjcq34m7ZmtLWjrSFtLbGiAgAAAAAALDLtOcyTEgfVEk+vo3j5uMRv5s/vy67KPpt9JdvqYpgkLdsm2c3Zp7K/zd6TnZedOpR4alsj2lphxQQAAAAAAFiCtpRYW0sclT2rXQDKXpO9M7ss+3S/U8C0i2aStORqf9D1n9nHs0uyN41LvDKPL6qjOGEo8ehsHyshAAAAAADAMlZLPGIocUQejx+XOCl//on8+XXZ+7NrsurCmiQtuu7MNmZ/mv1K9vz8DH92HcUT8+f1m0rsb4UDAAAAAABY4SYl9q0l9s8OyR7d7xjwwqHEL+fx3dm/ZZuzmZ4LcZK0e7r3c3Zz/+xtn8E/m52UHZltyA7O1lq9AAAAAAAAeEBmS+w3lDg2+/E6ivPGJS7tz5j+9+zL/VECd/sDAUm6z9v2D9nt2c39In+7hf+ftUe05Gfs89tnbfvMtfIAAAAAAACwYGZLPKg9SiA7uY7i5eMSv9lvTX1F9sns+n7L6ntc9JO0Apv0i/yfy/4xuyx7R35enpvHU/Oz85l5fKzVBAAAAAAAgEVptsTqocT67Cn9ltUvy34xe2v2nn4R7PNZdXFQ0jJput8FpV3o//vsouzXs5/Lfih79rjE0fm5uM4qAQAAAAAAwJJXSzxsPP/s6uPqKL4rjycPJc7I42uzi7OrspvcLUDSIu+e/ll1Vf/sem1+lr14PP8HT0/Ljs0OmbiFPwAAAAAAACvJpMS+tcTaocRBeVw/LnF4Hh+f//o5eTwre2O/ZfbH+3OzZ1x8lLQAzfTPnI/3z6D2WXRW/2x6fP+sWt8/u9bOlljlEx0AAAAAAAC+Qe0C290lDuvPzD5tXGKUxz/K49V5vC67Mfty9tVsyp0EJO3gm/tT/TOifVbckF3bP0P+qH+mnNY+Y9pnjYv6AAAAAAAAsAfUEuuyY9pjBeooXprH87K3Zn+RfSj7ZP8jgXbRb3AnAWlZf3N/6O/16/p7/0P9s+Ctc58N858RJ2dHDiUO9AkKAAAAAAAAS8CkxENqiQ1DieNru3X3KH5sXOKn8+dzsjdl78ouza5s3wTuz/Xe4iKqtKjb0t+r1/b37qX9vdze0+fMvcfzvd7e8/29v6F9FvhEBAAAAAAAgGVqU4m1tcQh2WOzo7MTsmeOS/xgHk/NXp2dn13SnwH+meyWbNoFWGm3Nt3fa5/p771L+nuxvSdP7e/RZ/b37NH9PXxIe0/7ZAMAAAAAAAD+l0mJVUOJB49LHFBLHJwdmkX+68e1C45Du5tAmbuNeHtm+Fuyv223Gs//fJOLt9J9198rn+zvnbf099JL+3vr6P5ei/7eO7i9F9t7sr03fUIBAAAAAAAAC2K2xJqpEkfWEk8e5r+pfFb2qn6R853jEh/N4zX99uU3ZDf255Xfmt3Rn18+9GeZu1isxdTMNq/PO/pr9sv9NXxDf01f01/j7+yv+fbaP6u/F57c3hvtPeKTAgAAAAAAAFg2hhIH1vk/FDgmf/7ePJ6SnZmV3p9k7+23QG/POb+q/+HAZ7Mv9IuvrSkXprWTTW3zevpCf41d019zV/bX4Hv7a/Le12d7rZ7SX7vHtNdye017ZwMAAAAAAADswGyJVZtKPLw/fqD9scDTs+/Jnp+d1sp//2f77dNbb8j+ILswuyi7tF/AbW3s39Ru3ZxtduF72bW5/27v/T1v3Ob3f2l/TVzYXyNvuPd1019Dp/We319jT++vuWivwVm33gcAAAAAAABYOJMSa4YS69oz07NDssf2b2cfU0fxxDx+d+9Zdf6W7O2uAz+c/52zt/lm9+uy92xXu5D8me26zgX3XX+L/XGJr273z/lf+8X7bX8fr9vm9/Wy/ns8pf9On/Xfv+f53/kxvcf218TB7TUycRt+AAAAAAAAgOVltsTem0qsqSXW9vbvf0DwP43iUe2b4Nv1mOzo7fqWqflvj5+2XS/Nzu3PhN+2388uzz6+k92ziy7A35V96n78727Mfzbv38H/r217dfaSHfwzOXUo8Yzt/xne+637bXp0/m8cst3vZP9tfl+rvYoBAABgr73+C+S4h+9blhn6AAAAJXRFWHRkYXRlOmNyZWF0ZQAyMDIxLTAxLTMxVDAxOjMxOjEzKzAwOjAwZ1CGxgAAACV0RVh0ZGF0ZTptb2RpZnkAMjAyMS0wMS0zMVQwMTozMToxMyswMDowMBYNPnoAAAAASUVORK5CYII=;" parent="1" vertex="1">
                    <mxGeometry x="-680" y="-1040" width="40" height="40" as="geometry"/>
                </mxCell>
                <mxCell id="Y93IXhU7RU3gVVPv7BcZ-3" value="Sveltekit" style="shape=image;verticalLabelPosition=bottom;labelBackgroundColor=default;verticalAlign=top;aspect=fixed;imageAspect=0;image=data:image/png,iVBORw0KGgoAAAANSUhEUgAAAgAAAAIACAYAAAGDf+RsAAAACXBIWXMAAAsSAAALEgHS3X78AAAgAElEQVR4nO2dO2wd17X+11yki/+IVNm3igQotcnexkidnRSmgNguTUatfSl1dmzAEmAn7kzGbhVRpR+AqcKPzhzYvcg6AiJWN64s4ib1/PFxzpiHR+cxj/1Ye6/vBxB2Yolnzszstddej28VdV2LZf7L9LfnDRD5lYJraCiLTRG5t/TPVHXh+mPj24CyGHYBjm5GvBsw9IvPMvJGhL8Brr74eSqp6qtD/mLYG+Dny58x4G0IcwN8f/Fpet4Ev9tgWVwN+uWl/8329wYM+eLVir9Sdn64nW2C+xtQFk9E5De9/s6qL/70Z3T5nZ3ultsl0Dx1v1++/TtX1rpcy0rcvAE+Xvcu/OGiyL+fLPuMlW/B+Deg75ffuu3my4Ovf17+3ztc2/CzQKynPu93djeOTzHsBvT98j6+uCP6L4EQXx5PdPrn01vDP2PF9fYzgmVxSUT+2enPDn3qi17nMT7CEmPY9w3w9+XbJ77sv3uguw3o8uq7fuoBcBcRGvrUh/x5h0a12xIoi5tL/3vfC/rxwbinvmq59KDrG/Cxk08Tx687ftfdQ5EbK9ziJXTbBZat/65Pf5Xb6osV7nCYqHBEI7cKvzfgoy2Rb/e6//nnLol8Nmen9XgDx92AtRUxh65fftUymv7vfW6G99Pg+qBA7Hn67iCOzxV+jeBy93T15y6/puX/PUpE6OmLePr/e3HDzVNcfTbo9CH+dwFcKByffz0W+eO2+9890kCOXwKLLHcolt+AXanqpV5styWwbD3hybrmvevd3d3lS2HlK+dmCeBCXVnn2S/t8nfPoY8RvL/0v451VpY9cY+OUJ8b8MbKPzH0QiO6yl2Pw93fQXyZ7Wvd/2zkc4KfbfDw4OyLTe8Sj46GHV092gD/fgB2iaFPGU7TB1+5vqJzrL4BodPbLV2fOrbMEYx7A9qLdLmOv3ki8use+dUf9pf9161Vf93NWcDVGsXv6fPlVx+IVp7H3R2GcPH4eXlz+N/tw411J5e9+izg4yjc9XeM+d0dj8PxKkWVJFH8xQO+WRABRhjNR+psmh6VYv7eABgz3ITfXzj7/4Z88b7OU88yuS424FBEnl/ygX0+rx99X/cBhZKrl0BVD0+7DOX1y0G+PHBRIzT6Vzz1+/oGWUYUTHcvkFi2HaJk7e7DodfQ/v7+f8dBybybXeDRYZP7G0r/L78bp1/AdZFEpKc+jfttsEsRwzC7cVGq2nl6uX+laIzjsYdeoZZhpbKhboLHL94yzAgGuLAgnzG6WLos4CSN3P9mCPTFW8Ztg1V96PCC74T+8sBtw8Qw23BLqnrH3UX0w2/T1KIbEuFJL4Ld4wquISp8AxRcQ1TM3wBN+gGr1uJ9qeoBSYflxLUBw88Uzm5GnBvg7jC1sghqFXnoBwSJCY5FoXYA8H8DygKZkRUtno5QJ6CQQPTIzw0oi71OVWXTvHpT5M0VnTkecoM+9AP89xSrTI+HbKZ2UCTd4sYV7vvlkUkam1RVUS4fu4XewZsw/A3o++XR3xe6jd6bgIIm/YDgAgp9vryrOiAl5fL+v/yiOiAVfYNdv3xiLfRuI0K+q78WsaqBcwlu+gWeudD/y//npN8Xb28UqsZmQXn+QNx4gqv0fOZ9maG0JXOfPxZ59rejL338Eujz5NtuMBe8dsnJ7+rSL3Do5IJ9GbmRv7fLEhhXJBm3J+hk1R/wGxbvX+z49P/303Hzug+hqi+s+lv+bkC/Pv/F/w2GzkdnyoS4iZGh2gFqBRWneWdJt8oQv2Ga4DpCQ3hpQUgQF9/Xb1j0exzQ5QYsroFd3bTU/LRNEiHjAU4lNV3oCPlioIpci75yeZny+1fpCDqg6w0YUQreg9mT4Rc7q28wNEpH4KZfQDyrwngSUwTu2udxEf9Z6XnO/3urnvJh1f/3dsTtNogOsa424bv73f/sWjnqspbR5TTYXyVl+ovtHpx9ARyHlzc7P82QVtwejGud9c3Y02aQbdAHH+4H8y/G6we49gP6RphGsvwGlMXiTbbdf10dVYc88b72ZA7LbcAQF3hYJ1j/v+NITc59PKDfmX3YZzhcdquM4JwgvAOGxgO664t1vkPLb8CyxmlI5A1haDyg+1Pf7fNr/UloyMxFv7UzTE/Qcxe535jgmL18747IvZ4nvQF1gmNLZPw4LP2N3EmXEPg8Vt8A3NVQ7nCEZmo9EaH+v+fYRfdZ/IBI5BZ6d4chfJG+W2P/L3/Ndc+hewEFWSGpMVxT0EuWVb9+gOcu0/5LIGTba4DPGl4t7vNNCHiThxtBPxd5ErqxOt60uVkidZTH1w+I3Ervc+Qm4lWvzPkvUIoYl89yCLvHFVxDVMy/AdYxvwKso0c+QTsYIi4y25ZwIFU9vFJfAdwC5PTh4iH6K8FQpBo1i80XIGbBRwOCuQPL391i4wUoiw0R8TumYwwRLUS+L8Dig7hukoyFaaEsIDjcYzqJYpJQk9VA/P3cL55fhDRfgJAPvU9FD+ZB+Jg7KZpSorEI8dC7aFj1xWUBsYeXQPcLEOKhOxIf6ISbl8GpnqiuF6CJtn3v/XNi9zf2ncT/NM7iCPFfgLLY6TITeTSxH/o8xlkEJ5YglpAuEuLve/8cjQ99li93RT4ZqAUctDTUBSH29BQe+ixohd0eKH818iUI8wL4fPDTk6xDMM9su3jphm8H18ZkJH3rKPuJzPk4ri0CDfC/79h6gdbJzRE729CXQKWUuutVDwnWK4s1vJwyZl8eM2oywgvgpyDE1cMPuZ9vXxulwvgLj0Yo7UFbyMU19ECHkPo0aKF1oSrVBcxE/bfzgZUNL26IfNAzA538FjD24YdY8TG1HFf5CEm/AGMevu8HH1fAczHT37uPszmLOh+gD74evtaHPo2ba1wf85fdvABDV/9bDkeKjllBKYMBtyOI2x03dvWPiaDlgINQcLp9Ab5M/NiXMpwl2nLxS+J1Bo0R/HT58CFq2Or6uvBHfv2b87/v1VFDHxeBDtNR+eSWeFvAmBj+2BfgmyfNgwqNixc3qkzIImL4AC7GE8RivLyiOqGcAZLBMkxpuKWLyXZp2l0ydmtoimicED8QlGL+3iURon/TuHQCh0lIphCw8cndgcd4Rwk3PbmAWI7ZKroc63xODlj+uQpLwlJICK0Con/vbvT/eyGd2obRgkP6XoCW0C/CkMEGs4R/AUZbAbeRQJdVQNM3xNfL4LMeIBHiDpbv/rvP/++hL4TP3r3dNJVi4mYDh39e0I9bigvrhHK0YdwZ+9HjfQDf+joacb0lRTwFuIgDDHv4uIkvDvC0Y+ErqhjZmrmwAG4igD735yGEKE4d8/AdRQLHDs4YFsaat4pmM4MxVgbKsnf9Nyc7+G6DnYZZxjqB/jo15r0kmKz6hcMyMplMfV40+Ng1bl7qyqU45bgtIIU08DxChp3dvrTOpcbHWoA7Qdq8XRAysujDn1GrERTDCnRV2Ag7vt3f7/aoFJbmCzALkjfoyRvTmTsE346q6rE501gqBglxOgmoFuoqF3AySAfA1/xF14Q5kl6Uqg6emdLRGyjKrMFPxyKvBRDzViAjr6s7+OVNkbfvObucXgwZWTsEZbMDbBeE3FgfJ+jQFXMDI8oC80EH6qTMwWXgJlSIWfFDn8a3SJTfZYzYPVrM1qYSkijiROQthDk/z+BB3jFJXyYuLg+kqhPKaT9NfkKR/hmly6eNWFKxqb0IUc7oIdAgFq3zZUjEiRuLvnkB8V4INaPcQpLGxBD3L0XyzpsrODnUOBwebRy+AMbhFmAcWgDj8AUwDl8A4/AFME66UrEhKQukeTGj78Lkp80L7I8Va44NTwGzlAU6OsbOkr0sVa2o03UxfAGa1e2zDXhXqtqLYLAL7L4AMYQtFGYY7b0AGhRNFL0Idl6AskCqN+CI0Q5k1xegFd0VSEdS1WuxPjzvOACmlOsvP3s+5jXmawHSLEBdDx1XyO8FaHSLAg0Z9kLQLSGvFyCf/oNgTSZ5vAC5Np4kIxARC41HO7d4twTpngKaVZ/zw5dT0Q2H84HmkZ4FKAvE1T8O9nld29S/uy/y101f16BYJCokofb6sdoEQyeOLEOtTFwIQh3tXItSuJaa8fAS6PcBmlXv9+G342Nd8+xvm9/7nKOXoBHecIpeC5CKue9DtqNjXRLqaJfu/GCnTay6toAQRzvMAcCqjzWjcLzFGVuudg4dFiDU0S6fAdLOrEB8C9Cser8PH6NpNA6QHo4zKxCvLDxUaZZmKVpsR0PnFpbFVRdaRflqBH24L/LCK94/ZjSR5waF3wJCPHys+hQevsQfOBnOApQFYqNfef0MrRPIVzHcCoyWrAtjAcpi0+vDj320G8vWYFXT0SPO/FuA5uH7kwAP6eTNGwAFE77mwJeNND3Ut1awv7arUDP+WlY9oLEvYhbj45/Gz8PXGL8fO/0EL/RheIfQnw/gw9vHkMdQD/+w6r8qxxzphlozxANG4McCNEEet+QyAs498CAHvwS+LIC7CB+OdqEePpy8tB6+jL3X7i2AS9PPVe8dnRIxIQM62sbWB8btC+Bi9ae+6tvfmUhUUpcFCPXwQ5j730/6ORCl/NqnAs043DmBKQyOfHQUfq9HuhefuepzMexqGNWYy9NhAYbHwrujwclrr2Heyz68fHzUzdNRE+hz6jcmgmrz8HE9aB6ZZmhhyMhsoKvp4U8GDY8Wz6Y/haNd+/0TzwXocndTOtrhwb/sqaewA64swLBf4mP1WwvoKM8GhsNmJG997C8Y7wSOzEaNBg2YRsO4LgSlXFiAYccQF8WQVh+8Q1y8AMOyUWPLqHw/fNQevPRGtz/70ZbIt3t+r+dpLrr4JeOdwBgOoK+Hj4DU2JhEqBOIoy5hDowQRw++5bNJb6vfF+GOq19EC+A7B+HDWjnUCEhPJexwVO7jjM8fh0lAuVQIabjm8pel9wK4qMHHQ3nWaZv9crAtvOPISXTQEDqNCx+gij6AoSsxO4XbE4UvKbmBuLAAAXK5M6Dztw9X1nS0ieMliBj3n0e8XMDYSpk/XOyWQtWoD6BEHUSi+gBD898teHneWqKiiqOdVnEIJeogklU2EDX9OHd/4LcD3RnjRCQvSlWPXEENcV8A5QWT3omsDiLOtoChFzN2G0gdBVtU/DgAQqYkGvFfgJRKt2Z/XPDiQFVxTERzgFuBiDG9AVo99lUPGmHez0aKm0YqCBVVoeA/OElvu6NrpREs2I3RlVnRcP0CDE9UwCHE1A0N4MH3OaI9CjrqzyluX4CxiQrEyWO+BGOaSBItT9PXHYyXAFo5b/sTFptLzAcYSR9I1KaDUV8X6oFg/469etfjFVbr6Q6e/zvHdM12+/0J798u0F8T2PbZuzwm+ljxYwo+HsbTC46bCxjCqzdF3hwwXsD1BK9ZYtQ4OogDpPcCzLKootfnIMdZElUJFUdVwf5VwLWCSqO7D8dfXMQXwIUPYPPha55E0oN0h0fHwnWlUeQjKDuD+qBr1d9y8UvGWYCyGH72ScmE3j30c717Izq8qtrJWPmxW0DH9tkZ2tJo3NRnLoy8BM/gGq94Gl18L3xF/SzjTgEui0G1JVO09wyqqgl0AW64q/apMaDAw/fDHxvedtgcqscCTBMyiDNNKlK12XcHo4UKDyPUAwnZRDJ+q3NaMKHTAiz+vGF/bxmpqZM7XP0SxQKsxRUV+wVfR7t5uJOrdSSOcEb4QJCGZpBUZxJUtfPVE/4FiFmAEfLBb19zXeblpYMmrVzANwOtR4ij3TRY9a5r/KraSwdNWrmAISNYQj74rpoFfXHs+E2TXjaw6wNF5VCoh4/ADlZ9Yg9fHFgATD3oP6gfgZ6uKpzzwINd5lzlM27Oe8tRmjqB02D1YaI3jpcuFMS6gokf7w5s7OzGllS199h4+i9ADPwnroI8fInqA6TYSvXe9RDXvR7q4YujU8AWMtsOfo9uQrywnh2+ecQvC9e+Ffg62s0S4eGLimOglpbwWXwe7c5zMdbDF6cKITlZgVD+ScQH36IjEKTFIcTRLtRer+DhiyqNIIlsCcK8hJWPjN4YdIWCY1iCMEe7dtWrevjiQSJm/J2cN1fXF/isH3oqj/fnlhZzPw+3W4Cc3tTHzgSNfW0JmR/t+uB+C3AoZX66Ql3Kx+HIGeZodzmFhy9eLECLD80AzPkZMuol1IqXNFb9ND5fgDWIn/j55RPmiUNgqBRarkKrbiX24Fv8vQBy+hKgANBTY50ajqSq11K9eL8vgJy+BLC9A2q5EiDRVT+N/zhAVStv/x3EnRwevgSxAC25WIJMHnxLuEhgYwmczbyNQDJHuz6EswDTxJSVG0KGD74lzgsgibwEGT/4lnjJoObmap20cGTh4UtUCzCNpniBkQffouMFaHGZSOqLsQffousFaAkpP2v0wbfofAGmKYubIjJAHnwpl31126aG/hdglv7W4VhENqSqbU+GWEB6LwBxCsWijcMXwDh8AYzDF8A4dAIJMQx3AEIMQwNAiGFoAAgxDA0AIYbh0FDSj6bfF+UYmx4r9yAOsidV7V24wzrMApDzlAWkPXYG6b+H5ZarwbmWoQGwjJ9K29hcp+fQHRoAS8RsuInHsVPBssygAciZsoCLvG39NsyQtJSTa2gAcsOGHptL1i33itEA5EDO+nthMWcMaABSpCygsvaz9dvgFcoCEVU06bl/8qEEB0Kwt3P9cjQAmikLTBX63vptUMJJjkrXNADaKAvsNu+nddHGyOh4QAOggbLYT6DyjpwnC4+ABiAWTNflAkdEkY5YSNetXRVZv9r883drIr9e8nUx0A/D/B4ehB/q554kU4g0AD7JMV33zAWR3QORK4Gcl5+ORf68IfIokbXFMbHGyS1d986eyEtvKLiQKf5zIvLapXCzn/uTjDdAA+CCnNJ12OG/Tsxp+fGByLsbCi7kHEk0IdEADCWnVtorayJ3/c70D4Y2Y6D8SEAD0Iecuute3BD5IMwEtmj84aKOY4JiI0ADsIqyQHi61H2RHdm6LbJpsMbooy2Rb/fiXoNSI0ADMI+chDM+3Bd5gTVGp9xYj5tNUGgEaABayiKfG3H3MFyaLkXKiOtQmRGwawByy9F/82R50Q05z3f3Rf66GeemKDICtgxATos+xXSdRuJ4A2r6CGwYgFxKcJ+7JPIZJQGcE8cIbElVR45M5mwAmgEW6Se3UVO/S0kA78QwAgqOAvkZgLLAwe6egisZjtV0XWzCG4HonYT5GIDUF37u6bq2808mlYfoGNQYtAxtBCJ7AekbgJRd/VzTdV/uinxys//f05DJCJ8deCBVHa12OW0DkGLuPtd03ae3RL5wNKrv5U2RtyM6c4a8gDQNQEo1+Tmn67av+RXyiGUsQzcU0QD0IIVdP+d03euXRf71ONznxTICYb2AaNLj6RgA7UIbOafrYnfVVRHe0bAGIFo24FcxPrQ3WqWyX70p8mZu07Uniju/z04Cvx/IVIRrHIoWCdZvALS14+aao390JHKDQ3N/4RkbBlD3EUDT4o/hhvomZkNMH2J4WkYyAXoNQFmgTjquGmWOEfy9OyL3Mhl15zNdSAMQEQ0imznt+L7TdZpwpWJsJAj4XzE+tAPxFj/STjksfqTr8BLjx8riBzjStN8bPzjm9AVeUlj2Y90ufR5AzDx/6gtfiwimVrrWZxiqBNSVBWgaesKTqkIu03X9QAFTu7gXxXcgIGoIXR5AjN0/tbQe03Xumd4AwrcE35eqjpaK0WMAYgzaSGXn1zn5hriA7cATYuz+ms/8OaXryCIqqeqrMe9OGqXAPtC4+N+7LvJDtIAwCU3kxS9qDEBT6x+Otej3/YzYwypILK5ruPM6jgCh3f/Yu7+GUVUuQSzlhY2mgaaLwlErD4Z7ELK1WA9qJgfTAIQEL/62Iu+jK8if/+1A5NmA09JcKgxpg4NBZghpAGL17afSeCMOy2ldk0NJs7LRYPaCgOuRdmDNiz+Vpqdpw51iEZTC4aB2swAhgeuvDZzX7yY8NwUyYe1RLgVjoHQ8uNZmIH88jOBCrinRM0GwDosGPykv/llaY4CflxV6WkoXvzAIGJBYI6mtThnSEXOJWubbBS0GIKzmX6wsQCgjkPuUoT7ENwTXpKrVRi5tlgLH3BV9Ff58/jhsmi414rZKX5SqVtmnbbcXIHYxkAt9/VynDPkiZrCQQcCVhJVheS9yJSaEKdrA1asd5+hNB/Hww8Xfj+nMQWiUDrSxrQeQ63BOsprQE44aog4CnYe2NOBu0E+jsIZd4IE9F7wcX11klpqAkqnmP+lGjOAgewGWUBaI0oSvS2UU3T1f7ja1+//3ROR3a00fhsb0ZPgaDTVZAa1zAeKM/8511l8IhioYvbUj8sfIk97DZwdOpKpV1C5rngyECE2cLZlHgm64VDCK3ZAU+iig5BigtxcgpmACXEJj8tCdQSFTO3TDpXwZFh9+JwRQYxDa+DTTr6KjezioKMifau2ND0no3THWPQ8bC4guCCo0AD2wZAg0tNfGOIaFrg1QcAzQewSAi6SpeqqdOYeXJEd+Oj5z7TX01sfQUNDYSuwZnQag6Q6MOx14Ee14KfxAty5lsMja7/KaCo3KM7RoKGSOxjqAsK3Brug6eDI2qQwciXEECK05qOAIoK0XAD7YPQVXMh4YhL8fxm/YSXHCUO56DS00AFPEqgAMDc6Z0CNwXXUI4Qss9JR19nFv3o5o/w0aAE2ioPkvfoBhGDkNBXHB7kH8M3/4oKMKpVgtkmBIMrO53RLaei/C9wOokAqL7wGUxRoXvxG0Khh9GbYL/RQlOoHxPQClSinEAakMHAm/+x9JVasQo4hbB9Ds/mExWOwRFGQ/WskyLv75KFn8Et0DiC3+8eiIqkAugFbhB1+ld91xZjWoaQUWcwZg2RkUXWjvqpJr003qA0diDWrhcNAJodshcR5dFoCCUk3rHaAuXltprAZyGDgStzBKXe14PA+gLBAFDZf8HROBTrGazhU5KSfH2vVbFM4GiGkA0h0EgtjB9tWYk2b8ktvAkbhTgRqUDgahAXAFeujRMuxSJScUqaTr+qJh4Yvu6cCaSoH9sRYg3IAdczYSHtvlXEYq3Yt90SBmMo3ixS9mDABpgCHc1SmzMBqNxlb54hczBiBkj7c2cpU617bTz5LA4pfIBqAKmgWIwZU1P6PAV6FBa98HaRRuqRD77ErMIODVoLJfuYtMaGip9QF0Dv6aTPn2ZanqpAQZ7FQCxjz/+qojyC1d1wKtxS92dFxLN1SV9/bBVilw7Ik/Ll7sXKcWhdbjc4eaOX9DiG0Awh4DRNECggLNdoejYs7zCuPM6HfFllR18tJO9vQAUm9iSR0txTnDyWLht2gwAOG9gFwDZhrRnq7rznWp6gTLPJejRRMw/EXQCPgjJ52FRPL5Q9ExGSjGTcb5O4YWXK5AT6GdMpT+4r9z+k5mvvhF2VyA8EcBybgRJgR5tUknVcDjCm2TgRBciTOCN9f0mmveu55mx+N8dqWqb2q8sFBonA2IvFAcwXh6A/O5sR6npNkPt6Sqk6oy8ok+AyCRjYAoGFGlgfTTddOoGMKhEZ0GQBQYAZk089x9GPUSgpFPuq4lubr8GOg1ABI5JjBLjjGC3MRPDUTtXaPbAMgvw0P0bMOpK+l0LUFOg2SbcLSg3wC0aB0hpm3I5TzS665bhpqxWjmQjgGQCFLiQ9CgnZ/Xggf3pao5080DaRmAltQGiuLYgCaklxyHM1DJ+Em2aWym6wKQpgGQUyOAlyND3SvTMF0XmHQNQEtZIFmdoSyOGZiui0j6BqAltWOBbZJW0cmJfAxACz0CjTBdp5T8DEBLWaB4PZOplknCdF0C5GsAWrQVEuXNA6nqDes3ISXyNwDTpFBHkB4QzzA6Oz19bBmAaXhEGEOW+ngWsWsApmFNQReYrssQGoB5aGhFjo9JiSxr0AB0QVNbsj+44A1CAzCUtI8NmMy8wWIcQgPgmrKAwsZtBR7D8el1ZDTFhriHBiA2TZ0CquRWud/YrQ9Pf7hzE0fQABBiGB2TgQghUaABIMQwNACEGIYGgBDDMAhIiGHoARBiGBoAQgxDA0CIYWgACDEMDQAhhqEBIMQwNACEGIYGgBDD0AAQYphf8eETZ5RFq2mwStvg8FTfgINAo8NSYNKPssCc/k2P8xWORASS43tUIfYPDQBZDOXNsocGgJynLG6KyMfK78rRqRdS1YcKriVpaABI69bfS/ROHE8UjmkMBkADYJWyuDAJxuU0AIXDSXtCA2CNJlL/vYFvfY1ZhtXQAFghbTd/DFsMHi6GBiB37Oz4q6AhmAMNQK40Z/yfrd+GOfBoMAUNQI6UxYHHQp1cuMgJSzQAeUF3vy/mJyLTAORCWTzOLKUXErPHAnYDpg4q98qi5uIfxfdSFiYLiegBpEyz8IlbTMUG6AGkSFnscPF742cpi9uZfrenoAeQEkztheRYqvpS7l+SHkAqNKk9Lv5w/NaCl0UPQDtlsSYiD63fhshkGxegB6CZJrXHxR+fnyeGODtoADSCxh2m9rTxUMoiu1ZjHgG0URZwNX9j/TYoJqumInoAWjhL7XHx6+bepLU6C+gBxIapvVRZz0GGjB5ATJjaS5mHOQQG6QHEgKm9nEg6RcjJQKFh115uwIMrUv1O9ABC0aSQvsr+e764IbJ2VeTKmsjaEk2Sw0rkX49FDg9EftgX+XfSdTYnUtUXFFxHb2gAQpBrag+LffO2yJXn3f3On45F7t0W+Ta5TFuS4iI0AD5pusrez+o7vbwp8nZAceEvd0U+uRnu88ZxXap6P5WLFRoAT+SW2nvmgsjfD0WejRy62L7WHBk0U9VJxQNoAFyTkyDnc5dEPvungguZYe9Oc0zQSkJGgAbAFbml9r55IvJr5WGLj7a0xgp2paqTOLfQALggp9TeO3siL8WeBt6T1y83GQVdJFEfQAMwhpxSe+lzhIAAACAASURBVFrd/a4grbitLAifwFGABmAoOaX27h66TeXF5A8XNdUU3JKq3lFwHQthL0BfkNrLpWsPBTtVnc/iB1//LPKqmuP3xwquYSn0ALqSW2ovhSDfGB4didxQ0aujukCIHkAXymI/m8WP3RG7fs6LH8Cr+UbFUUB1SpgewDJyS+1VRp91GT0Wp1ZinB7AInIS5Hxrx+7iFxWGT22KmB7ALEzt5cl/TkR+H7VhT6UXQA9gmia1l8fi3z3g4p8GMY+7URW8VHoBNACSaWpvWS++VRAYfCdi6XDTJ6IK20eA3FJ7nz+O37GXAjfWRR5F8gaUVQfa9QByTO1x8XfjbsTYblmoahKy5wGUBQIx+RyOLUf3xxAzKKjIC7DlATS7fh6L33pqbywICr4YadJXc/RUgR0PIJdRz1Dn+ZqjBJwRp0jogVS1ijmD+XsAZXE1m8WP1B4Xv1t2owTmX4nxofPI2wMoC+R8ElO3mAMktmMGrnInjhegQjAkXw+gLA6zWPxI7XHx++XzKGpCKrTM8jQATUVf2k3ukN9mai8Mce6ximNAfgYgh4o+tLGG1N4ncSsEI5KXAUg92Nem9nLv1ddIDCHUpvEsKvkMB0158VtI7f344Kz8Fv0KGnsVUBfwQ9DBPhhuEHWSUB5ZgJQXP9JQOTbuYMbfn9ZWC3SGHjW2jBjVgZGrAtM3AKmq8+ac2huizIvd9wMFndihU4KRDUDaMYAm1Zfe4s81tYeRXVhAQ2S54XrHl+5qDLMh0jUAzeTdtFJ92OVyTO3BdcbidTGvL7YReCuwjH/k7sA0jwApdvTlKsP93nU/gbOYjU5hjVBU2fBUPYB0Fv/W7TxTewjyYaH4ippj3p8NokaA00sDNkE//eSc2guhqINhnzAyrIT0SloeQHNe0r+V5tq1h1w+dv1QclqvRRLRRWrSCKl5ALpnrTG1lwcoVPrWRmlwOh6AdtefqT0/fHc//GcaSgWmYQCammmdrj9Te36JsRPnNC15BakcAXQO62Bqzz+H6qT0s0K/B9Co+uiCqT3iEsjWRSIFD0CXqk+uSrwxh2UsY03taP0s0O0BaBql1I7cyo3DKmxqry//T42CdpZo9wB09MlCLSaGYIRvUkjt/eOwMVKcdegFvR6AlrM/Jsrmtvhjp/b6gIrA7avN9eInRlowY/Q2A2kQ+cDizyklFH9GvjtQao2KSx/PBx7HdsDYQ0RNAJ0egIYBirkt/o+28ln8AN7LjbXGK8B3c4mh1KNODyD27p+TTBdSe7Fq6kPz3CWRzxw0im5fC2sE6AFMEXtwIkZt57L4kdqzsvhlEi+AR4DgJo47QzHkAWg8AsS7+zhXvqm736gT2lN7vsHxAMcdO5oCg9GYBox38M6hhddS194qWo9Ai+CoQnR5AI3UVxzuJr5bfrmbTmovNK3gKDyjVeA+GkJXELBR+Q3vAbgKHsUgp9ReCFYpNYUXJaUm4BRx3P9UF/+nt7j4+wIPCYsc6kY6iFrwls9osKFsRe53H4Kl1J4v3t14WsEphlGo6qgGQM8RoCn+CR+CT63BJ3SO2gKtrkOMAConA/1C+K04JfHHNrXHxe8eHKPQH2EwgKrJAwh/Ians/kzt5UrUAKAkPxtwDM8lcIZmai93ogegdAQBY0gi/U25K61hUCbxS1VHfwm1eAAbwT9Rq4ovUntc/CQQWtKAYaNxGnXfWdBjDRUlh1o8gLDyuqFHQK8CqT0ufltUdXzNC7OFQFrafUMrzxAyAysBY4FWVXSrEYuo6TiyZwA0pP9yCvIhnoJ2W8imd/Gs4PVApwAdelaLmpS4/6KmEChkERBq/zffD/ZxT5H64kf1JO6h6ywK1H4/uWmj5iFy+e808T2A0DUAMSfNpLr4QxhNSK+38uuPjppmnTyPSNcUXMMv2DsCxAoApiY0gb55jDyPMf8Qasxtizbu2ydqPObxKCj+mUZDGtBGGDyVlxgxEvRIQDRDw/DTP24317ObRbzgjoJrOIfdXoCQoH8/BdAWq1UcBZ5b6oagqtWJT9AAhED77o/Zh6mMO28NQUqt3A3qdn9RkQUoC1jFcGH5GC3AWoN/KWshSmLl04oi/9PQA7AKVJBTXvwAHgsM+ovhe8l6ckvrhWkwAEanV0QCaVAsmpzmHkLzX7Ose1Uraz45Q0MakGoXoWi173IEBg2GTd9xS/V4Ig0eQP4F8bEDVph3mEqQbyy6ZN6OpapVv9/2SoFj7IIxZbxTUz12hQZPQGngbxp7QcCHEfLIMdSHoHlgdfGLEsMXQ+quJ/YMwHeR5jCEGkDSVvKhgs468Y3A99qfgL0jgER8MXy7paiS0yJ2oom4x4HLmuMArAMIyTeeEh5tao+Lfz6+7ns3VBdbaDEAaiY1egXBR9f5anTs7ar3NOOC+65NB1IJWgxA2IN5zNZc5KtdGIE2tadV3lwbiIk8E6lsuCzUdjDZHQ2mIUo8dOSX5ej+WGLFA9gLQJ4CPfdw4bvuTAjycfGP48P9OJ9bFiobFux6AGiBbSWotAAprB/3z2oV1q92F9sk3YkzbPVEqlpd66ImA4AoTdjkNXdTm8RqI1Z4DNB0BAivloIXgdgDWYEY8vAKjwF6PACJcAxIXRCDjCN8QFDdMUBbEDDslszJPLYJ7wWoa8fUZgDC982+rrpdm/jk7xFERMqCHsBCqjp8jgZeAGMBNomjj6BKGVhXDEBOLeST4K4S8vDIyRN3YAYgZv9NpzRf2NAnRYaRZH8N7HgqygZoNACIlH4V/HNRIPLCK8E/Niu6jjuHwYX7raWMOXQwkAZgBaGzAS2sCxjOkEWkxfMybAC0lgJXUT4VFWKkH5/eGr6AUI2Hv4sKyJiE7hRUVA+g0wOQiF4AXgaq6azGdTUdOiRjxgfCegEPpKpVGAEagHnkLJ/tgu1rTYDPNTHvu9FjgOZuwHgJ+lTGTYUGQT4sFB+LX3jfY6DXAMTWUdM6zy8WKJjqEuEfy16kGZr6x4t5QbsewLWon04j0Kgn4T6EKpu+F6lO5qXkpg07QW8MoCVmLKCFwzXCApGU0DUCoVuEGQPoQFno6Nax5gmMSe25IIYXEDr4WBaRRkWdR3MW4JI6SeXcPQFN8/Zj3OuwRu+aVHV0sVDNHoC+Rn0NRSu+QGqPUXhz6DQAZXFTwVXM58aayHvXNV7ZMGDQfKb2yCJUzA38lYJrmMfH+i5pih/2m0WTesEQUnsURTGNPg+gLFT1Sy8FLvNHW4ovcAFogQ2Z2uuL0Zx8DDQeAd5XcA3d+XZv4kLH6V/qBYJ8uNbQ/e994RivYOgyACnt/rOgSk6zIYC7n0qQj+POgqHNA0hr959Hawhizh9swY6PFmfN7v4sdnZ/FVFXPQagLFRERZ3xyc1m4WHnDZ06RD09Phs7fvgJOOOI1YqdwhHOA5qyAHnOuMbOi9ShTBRwsMO5Hkn203FTPfdt2CHLzolZaBU6DaqgCEhMzwbUAmb/Iep9Za3bDMBWbBOpyEcRZK19EbvKMnRKVEkvgA4DEGMuINGBlulMRgVBtBwBuPgtgnHnnHwcFe16ACRHcOyBy69l8RsNAIoKD6Bx/4kVNJZPfxK89UTNKCoNHgDdfwu8erPZ9TX2ToQPpqpJ12htBiI5oVlHASnU8ISfgbmAuB5AbsU/5DyoedAuovI/EV5BJTUAosADSLf2nywmpWGrxtuhY8cAwoeBt2hzvILUXiqLP04rt6pZ9LbSgNiZNt9vItHELdpSe12IUzqtageyZQDemTxwRKLxsl5Zi31FeQAZ793EWjliDSCpalVp73gGoCzCq1K88Mr5/333ociHagKy6dGm9lLs3481gEQZMYOAOmRpYBTwEqNvPrXW2ZikrIf4erSxk+okpWMeAcIeFlcJTSBwtUtl3JW0qb1UFz+0GeJF/tWJHcbrBgzd/tsnHw3Z7x94NDhHSqm9ZcSceKSkA3AaNgPN44OvGoPxnIrpTfFJKbW3DBzz4qFyogwNwDLQp46z7jNGJ+YgS5Jaam8RmHcYN8ajsurVRi/A2oh7j7Nuu/tZGqQRY0KvL9Du+0Xk7FtVq4ww2/AA1h0ZX3gE2BFfzniWPL5bqqm9eSDotx19870V+wIWYSMI6Et5pn25ckkfpj7qbBY8nxsKir0UBv9a4ngAobsAfZ1hrzzfHA+wY76TsCIv+iNSTu3NQ8viF7mv4BoWEscDaAxAuNrR0C2pOHNi/Jb2eEEuqb1ZMPtQy/gzxbu/UBDEE/A4frem2wDkKsi5fU3TqHP1YoM0AL74P6VxAaT20AORIzGLfOZR1eoFb1gH4As9u9AZSO3luPjbUWi6UH32b7GRBYghS6XphcTkIVQ35gaGn2qdeKz87N/CI4AvUHykwQvILbXXortf45qCa+iEjSNA6Om8IvGLhXJM7clExRfeld7Ff6JJ9HMVRgxAhCGaricAdwWpPSx8SJ/lxo11kdeUN2hVdVKNIzYMgMaAnA+gbpRjXh91Fdj19U9DVlvyuwjqAfgE7mqIHSvn1F46Sk0nqe3+wjSgZ9BQ41tTIPfUXip9FgkufolsAGyMZPU1+x6pvZy69lqQ2sPCT0u0M5rI4FhiGoCwYdyYI6BdHz+Q2ssxr49BHVrz+ou5I1WdrEhEvBiABI4DaDgnjy0OQmovx+h+qFiJe46kqpMeLmHHAIiSKbVDClhy7dqTSWpPf3R/HkkG/WaxFQT8j4KxbK3gaJdCISx8BPmY2tNHBotfFHgAePrPB/s8rTXxWAxtrQKOKrMTjHIj9SEsidT5dyG2AcCghLArUvu8+pz5clfkk5tpf8GMFr9ENwASIQ4A6a5YZbpW0dy114fMFr+YLATSIhVlhTRTe7Oc5Lj4RYkBeBD8E5F2Iv7vMYJ8cWbwu+Qol4DfPDQcAXBzw4e5GQvwhy5dvjHcl6rO2mWM7wHEmpgSszIwV9rUXh6Lfz33xS8qPAA59QJQGRM+90UvwB2pp/amyfS8Pw8tQcA4lhZVeWQcSO2l1LW3nAeWFr+o8QAkQjqwJVfNvBDoU+Idw+WUm3qGoikNGEdNJYf8dGgwajufxd/s+gYXv6jyACSiF5Czoo5L0u3aW8RFrWO7Q6GtEChOaB4NKd8lMcchHkjt5bP470x2fdOLX9R5ABLRCwB3D5uJv+QMpPbiz9d3RRYtvC7RaABwFounc8Wg4BmvX9Y/4bg716Wq1Q4TiIU+AyCRvQBhfUAWXXtnJK/a4xOto8GOo3oBiHBbNQJ5pfZQzZeo4kgYdHYDVnX8aBMWggYFoVDkmdrj4l+BziOAnC5AFJSX0a8j98BgLr36Z5hP7fVBrx5AVesIPd9Ya3bHHEFqL5/Fz9TeAPR6AHLqBSAS9bGCK8lLmRfTkm9kExdjam8Eug2AKMgIzLJ7ILIW/2QyGKb2yBQpGIA4giHLwLw/XyO/fIFKx3zk0I5VBIozQL8BkFMjsIMTq4IrOQ+0/d++p+mKnia/IB9Tew5JwwCIwqPANFpHduXl7ldqAsMZkY4BEOVGAKxdFdn9Pu41oGPvT2v5qPM0MLXnidRkwXVL+EALD8U0+EE5bUggv43PRcdePoufqT3PpOUBiKICoT4gVoBjgstZ/kjl7d3uP2g0DZjaC0R6BkASOAqsAjUFmFOIIwMyCsvSimjHhV4BvIs8F/ssTO0FJE0DIBkYATILU3sRSHk02EUF10DcsM7FH4d0PQA59QJQz0oxv3Rhai8yaRsAoRFIGKb2FJD+dOCmKmxLwZWQbuwytaeH9D2AlrJAobvyulzTMLWnkPQ9gJaq3lNfKGSXLS5+neTjAbQwJqAJpvaUk58BEKUtxPZg114C5GkAWlgsFAOm9hIibwMgCgaN2IKpvcTIJwi4iOYMekfnxWUDU3uJkr8H0MK4gB+w8Emy5O8BtGB3al7WIx0XlDy3uPjTx44HME1ZIEgVWbonWZjaywibBqAlRXGRuFyTqj6wfANyw7YBEMYGOsLUXqbQALTwWLAIpvYyhgZgFjYVtdDdNwANwCLsGoKtSWMVMQANwCrsHA244xuEBqAPZQG12lfSueCVHGOcCc/4dqEBGELTcryfcI8B3XxyCg3AWBpjgMX0vPIrReXejoLrIIqgAXBNEzy8rcA7uH96HVWdzXRQ4h4aAN+UBcpmYRQ2PHoJ1akXQree9IQGIDZNluHCaTBuOU2EnpF64hAaAEIMY6cdmBDyFDQAhBiGBoAQw9AAEGIYGgBCDEMDQIhhaAAIMQwNACGGoQEgxDCsBCSEEEIMwhMAIYQQYhA6AIQQQohB6AAQQgghBqEDQAghhBiEDgAhhBBiEDoAhBBCiEHoABBCCCEGoQNACCGEGIQOACGEEGKQX/GhE0KCc34Y/vRQ/DLC1RyLyGMReSIih1P/fCxV/ZgvB8kVSgETQtxQFpdE5OpkM1+LtJmH4mTiJBz88s+qfsI3iaQEHQBCSDfK4sJkg9+Y/PO3vHNLOZ44CPjZp4NAtEEHgBBynuYkj01+U0Se593xwvGpUyCyJ1V9mOH3IwlAB4AQyzS5eGz0b/A9UMHRqVPQRAxYf0C8QgeAECs0J/vbk9P9b/jck+F44hTs0SkgLqEDQEiulMXm5HSfczGeVaqJQ7Bn/UaQ4dABICQXygIn+x0W55nk+DS6Q4eA9IAOACGp0oT0seG/wmdIZqBDQFZCB4CQlGjC+jvM4ZOeVKfpINYQkCnoABCinbJA4d77fE7EERAxusnoAKEDQIg2GsEdbPrbfDYkAHekqm/zRtuDDgAhGmg2/T3m80lk6AwYgg4AIbFoivj22KZHlHJLqnqHDydf6AAQEpJGeW+HErskIU5OxaOq+oAPLS/oABDiG/bnk3yoJs4ABxtlAB0AQnxQFjcnhXxs1yM5wk6CDKADQIgr2K5HbHJ/4gwwKpAYdAAIGQrb9QiZ5mgiNsTxxolAB4CQPrBdj5BVID1wlY6AfugAELIKtusRMpQt1gnohQ4AIfMoi7XJps92PULGQ0dAIXQACGlpevT32K5HiDeuS1Xv8/bqgA4AsQ2n6xESGtYIKIEOALFH0653k5s+IVE5mjgCbB+MBB0Akj9s1yNEM/elqjf5hMJDB4DkSbPpI7T/Bp+wAa6siTxzYf73PKSEfSKwUDAwdABIPrBdL23WroqsX20289+tiTwboRbzPyci/zhsnIZHh82//+txVrdZOagPuMS0QBjoAJC0YbteOjx3qdngX9gQeSFhHaVHR42D8O1e4yQQH+xKVd/knfULHQCSHmzX08+LGyIvbaa90fflp+PGKcAPowYuQDRgTaqaN9MTdABIGjQjdfdYua8QnOxf3hR59abIr/l4zgGn4N7txikgQ7kjVX2bd889dACIXjhSVycotsNmv8nBh71BjcEXO83Pv5nm7sHxJBrAm+YQOgBED03l/k2O1FUICvT+vBenMC9nUE/wyU12KnTnmlQ1b5Yj6ACQuLBHXy/I47+zx7B+KBAdQLoA0QGyDKYEHEEHgISnadfb4UhdhSC0v3Wbm35s6AysopKqvqr7EvVDB4CEoWnX22GPvkKw4TOfrxc4A3/eYJrgaagZMBI6AMQfbNfTCYr4sOn/kVmX5PjuflMzwALCadY5WGgYdACIW9iupxO06r21Y6svP2fQXoioAIWIWlgcOAA6AGQ8bNfTCSR1semvMeuSLUgPICJAnQHhLIH+0AEgw2hG6jJxrA2269nloy06AnQCekEHgHSD7Xp6YbsemWb7mvWCQToBHaEDQBbTbPp7bNdTCNv1yDKQGvifq5ZrBOgEdIAOADkPR+rqhe16pC9QGryxZvW2XZeq3ldwHWqhA0Dadr0djtRVBtv1iCvs1gewRXAJdACs0rTr7bBHXxnY9JHPZ7secQ1aB/+0ZlFD4CLFguZDB8ASbNfTCXr0semzXY+E4L3rIj+YiowfS1VfUnAd6qADkDvc9HWCdj306F9h1oVE4McHIu9uWLrz96WqNxVchyroAORIk9Pf56avDLTrYdNnjz7RADoFXrtkKSXAzoAZ6ADkQtOyt8/qfWWwXY9o5/XLIv96bOUxsR5gCjoAqVMWCGvds34bVMF2PZIadsSDHkhVm8p9LIMOQIo0p/0Dtu0pge16JAfstAoyFTCBDkBKNDP1D5jbVwDb9UiO2OgQOJGqxiHKPHQAUoBhfh2wXY9YwEY6YFeq+qaC64gKHQDNcOOPD0bqYtNnux6xhI3CQPMFgXQANMKNPy4cqUusA9XA17LXzjEfBaADoAlu/PF4ebPp0We7XlpA0Abh6ocH3SffIZWzfrVx9KDNwGc+n+/ui/w1c+2cqi4UXEU06ABooCnue2j9NgQHlfvo0+cGkAYQrvnkpr9KdTgEeCdY43FG/kWBd6Sqbyu4jijQAYhJ0853yIE8gUDlPjZ89uinA0LRf9kMX5TGLo8GOF2/z7pg3vScADoAsSgLHGPesPnlAwJDjtD+S7zVyXBYNSf9riF93yA99LbhzNzeHZF7WR+Sr0lVm1BBmoUOQGiaMbxf2frSgWG7Xnogl49NX3PluWVHoMw6VW42DUAHICRlcUj1Pk+wXS89vtxtTpapDaPZPbDnXOYdBTCbBqADEAKe+v3Adr30yGUjQS3Jmx8ruJBA5N8WuC5VrSTnFI5fWfmi0SiLA07ocwjatnDSZ+V+GqCIDBv+Fzt5fS98H0QurKQE4GTD4c5XIXBtUpBtCjoAviiLS5MXijvVWDhSNy2w6aN/PHdNebQjIvVkZQjUevYOgDnoAPigLKAuZSg+6AGO1E2LWO16sUHhIqJSFtJQiADki0kHgDUArikLHHs4Iq4vHKmbHo+OmpO+lna9WFiqB8i5G8CgKiAjAC4pi8cU9ekB2vXQo29dbCUl0KOPTT//QTHdeWiyhZxkACMALmgU/R4z398B5Eyx6bNHPx2gCY9Qd2rteiGpjNjRvEcFmxMEYgRgLE2x3z/T/hKeYY9+eqBdr610J4RkCR2AMZQFqmK+T/cLeAQ5/Q/3edJPhVzb9UKQd3EcyRg6AEPh5j8f67rpKWGlXc8363QASJqwBmAI3PzPw9N+Olht1wsF1gLaAhEVwD9z067IeyaAuRoAOgB9Yc7/DBg76KIzt68btuvpAA7BCxvpTqakHHB20AHoA6v9G7jx64ftemmAVljoCCB1pj1agImN724ouBBPGNQBoAPQB+t9/tz4dQMDjU2flftpg/QBnAJt+hif3sq7SJQOAFlIWeyJSKKxOwegjS/V0GXOpDpSl3RHS5TgDxdzfs8qqWpz1Zx0ALpQFpsiYrO0HaeRXdY7qgGV+ziF5TubnawCkTiIaYV0yJFS2s56f7wjVW1uUdEBWIXloj+E+1nZHx9s+lDiw/Q5QmaBk445Gj7X6nvXc28X3ZKqNrfA6ACsoixQFWor6Q3lvrsPFVyIYdiuR4aA6ADSBS4naaKL5Eb2w/IuS1Wbq5ilA7AMi2N9OYY3HmzXI65B3QDSBWNqB/LW/wdHUtUcB0ymsBj6Z8g/PGzXI6GADgGKefs4A7m3/jWYzP8LHYAlWJvr//ljkWc5yTgIbNcjsUGaANG+Vc5A3pX/LeYEgFroAMyjLBAOspEER84Qm39ukqXaYLse0QjWPxyBP24/fXEfbVkoPDUb/hc6AAsoCyS88o+Fc/P3C0bqsl2PpAL0BjDTA0JfNkL/4JZUtdkRmHQAZrF0+mfY3y0cqUtIWhhU/5uG44Cf5qa2C/ICCv64+Y8H7Xro0edIXUJS4471J8YIwCxlkf8NYavfONCuh02fPfqEpIvx078wAjBD0/efNxD54ebfH7brEZITt/g06QDMkn/Vy18Yqu4M2/UIyZFjy4V/09ABaGlm/edd+Y/QP/P+y2G7HiG5Y6POqwN0AM7IexQkWv4Y+p8P2/UIscJ9qWqGQSfQATgjbwfgVTq9v8B2PUIsciJVvcknfwYdgDPyVoOiAyDy6S1u+ikCgRr89AEDlZjGIefJ+5A3ADoAZ+Sb/8cQEMtqf/lPM0sHbOTrV5tuFPzEHD6FSNA/Dpt3Aw4D/p1dHrlyy6re/zLoAMhpAWDenuELJiQ9n4a5/ThgY4fTifcOsrJagVMMB2SZEwLNh+/2GqEnOgepcp9V//OhEJD84gB8r+BK/PDNE3sRgNcv02CHAPPmX9q0N0YauhBwDPIflpM6pof9rIIOgPwiAPSxgitxD0Kun/0zt2+1HBsjTMODdwmtpC+9Ye2bdwO6EagxYbpJC+j371k8YgumABouaLgIL/QtnkqdG+vc/F2xbFQseZoXXml+WhAlQAqKDkEMTrIv7HYAHYDcWTdU+AoRn0es8xnF2lWRP+9RMMoFSIvsTmUWKTIVCmz+l6SqeaNX8F+qr46QPrDFbxgo2EOdSFU3GxY3fz8gkvL1z5P7fGAvOhcGbv49YASA5AHG8rLorzvQhUB433J7aEwQHWhrczhoyhXc/HtCB4Dkwf/SeC4F+Xxs+pSD1se0M4A0wScU7RoAC/4GwBRAQ75VOg+NFCD9N9f+U2DTf2unCTkj9MzNXz9IE+B5ISVzhTVsHam4+Q+DDgDJA+StaTCbvPKH+2ebPiv40wSpmbsPm+e4RTGrJdyRqqbE70CoA9BSFvneiMrIM/7ufpNLtQYcH5z0rYnxWMPq+72Ya1LV7LEcASMAZxxruRDnoMjIAhCosRIFQLve548b5w4nRW7++YP3G8/7HaoPTsL+3PxHQgfgjHwbyC0JkWAzfCZTXSe26xGhIzChlLKgAzASOgBn5PsyWdMrR+47lx5rVO63m/4HX7Ftj5zROgJ2R33DCdhXcB3JQgfgjHxfJPQXW0kDtKCt6uVE86Uo+oJhx8+bH3PTJ8vBO2K3a+AVKQvmRAbCIsBpygJpAMXzS0eA8DFOkNbAONftq7rlV6m5T1yB9/2GSUcA3QBsl+gJIwDnyTcKgHnmMA7WwDx6pATuMojMsAAAD+tJREFUHuqqDcC1sF2PuAbvO94pOPy2eF/Kgi0SPWEEYJqyQOI439m5CBGiSM4y/zlpWql+iODroS4BhVus2CchQNpv21yL/GWpasqCdoQOwCxNZWm+FhobEOe5N8AZgOyqzyJJTtcjMcE7/qc1S3MGKAncAzoAs5QFYmd5J8tRMMTCsvn8+EDkx/0mQtC3bgCbPUKv+OGGTzTx3vU4Ua843JeqZjqgA3QA5pFzMaAwFUCISfbuiNwzUye3JVXN7oAVsAhwPnmvkkeHIh9tKbgQQkgwMAzKjnjQPSmLTBXB3EEHYB5VjVhZ3iXzyHtj9CghxA6o/7HjBOwouAbV0AFYTP7yWiiAw4ARQogd7DgBb0hZcFLgEugALKIZNJH/7oiWODoBhNgCTsBbJg7IjAIsgQ7AcmyIbNMJIMQeEJ9KVS67O89POrvIHOgALKOqn5xWk1oATgCqhAkhdnj7noUZApQIXgDbALvQDJuwoZ5jdWYA0ctPx00PO376jraG5DLe6Rfw8wof8jwgFvT77Avmr0+Ku8kUdAC6UhaQ0rKh7gLJ2r8fUiyIxAEb/l82+2/2fUDoGzlwvuMNSAH+Net0QCVVzYLAGegAdCX3OQHz2D2gbj0JA3TrsQHFkKxFhABV8dadgRvrjUZIvnBOwAysAehK8+LYUs/BIBFIiBLiA8guv34ZznXzrsXSq0dqASHwP1y0OTGzJf/WQMoDz8AIQF/K4vbp6ElrYJzulXzVkUkgID4FOdq+cxZCgroBRL8svu95zww4kqrOvuKxD3QAhmCpKHAaVAv/7YChUtKPVDXoUSeAKnlL5D9CmGmAKegADKUs4CbbLCt+9abImx8ruBCiElSVY8P/IgMNFhTEfmar9Oc0LZPv+OBbUtUUB5rAGoChVPXGaWWpRWDYkbeleBBpwaaP8DHeC+TTc9j8ATZC1AZYIm9xIHYCTEEHYAxNW4lNJ0Am4kF0BOyCdr3ta2ebfq65Y9QroELeCmtZ75GXFFyDGpgCGEMzaOL7dL+AY1BF/JK90ghTIEeMIVJ5t4vNx9L7DacuV6o64y/XD0YAhtJ0A3Dzn6aNCFBSOC+w6U+361nc/EXySWt0IecoACcE/gIdgCGUxYHJVsCuoAAMmwXCpsgNk/RAWge579g9+pqA44O0ByGZQAegL40kMOXxugCDidwwNhH0fxPdIHLTbvqI5mju1Y/F/xpxhNazPiQzAjCBDkBXyuKClMUTM/MAXIO8MTYWhJIP7dZNqgLRmU9vNc8FP9oFejTw36whI/nwKz7LDmDzF4HrTwWcsSCU3AqNoMcahVWcNxAObPo43eer9uYPvK/P0v8n+UAHYBXc/P0x7QxAfnXrtsgft7P8qlEJMV3PAhDAIiQjmAJYBjf/cCD03KYJTgvPrjFVMAbUXLT5/NcucfMfC2SwLTmnD/m+WIARgOUccvOPBDasaU1ytCXhBPaCTfXllaBqHzl8Vuu7B9Gpuw9z+1bLyfs9YqHLBAoBLaIssPlz/J1mIFn60qa9GgJERr7bE/k2+/Gt8bE4CwB1IujeyZdrUtXmQxzCCMACmml/3Py18+2cTRAG+8WNxjFIfZwrZtP/uN8U7FkV34kJalI2Dcp9sEDUDIwAzFIWqPThqLscgXPwu7Umn4uUAv495mhjnOSxseMHOVeG73WAd2PXsMgnhjrl7ARQCvgX6ABMUxZrKH/Rc0EkOsj/wmHoAzZybubpwTHXFsL/1WSIm3mEKYCnYF6InAfdCaygzxds+gj1x4wEaSL/eQfMpU1BB6ClyfvTChCSO1Zz+13I3wGgNz8FHQA53fw3RIRzbAnJEYpMdQOzIPKXgqYDMAVrAOSXAT/U+CQkF7DpQ2aauhHdgFrka9nPOWD+fwZGAJqqf27+hKQOZ0sM588bqV55H9jfOAMjAGXBEAghqYKWvbd20td8iAlC/1CRzB22/z2F7QhAWRh46wnJDAg9YdPnZL7xQIvCwuYvcl/BNajDdgSAp39C0oDteu6xkfdvWZeqZgvgDHanATa5//z5cB+hL5G7h02OlJBUwIaPdxc/EOjh5u8OCP78qafAVbo84OY/H7sRAAvDfjAs5+17T///GBX7CWebE2WwXS8M2Pxx8s+/5a+Fp/8F2HQALEj+wph+/fPyPwNDgPxf/uIfRCts1wuLrbC/TE7/JlochmA1BZD/C/FOh1GxCKkitIoQ6zdPmuIqQnyDVNTuQfPewUnl5h8GFPzZ2vzBpoJrUIvVCEDe4f+x08wQGUCKgPPmiSswUAlOKdv14mCl1e88t6SqGd5cgj0HoCzgAv9TwZX4AwV/Lg0tjAfSBHZyhsQFcET/vMd2vdjcWG9GTtviSKraTJXjUCymAPKWgkQY3/UpC4NTEKpFyBah2zWqaZIFoPAU6aTTd+V7bv4xQci/LCxu/mIizesAi0JAeSfB/ui5uh8yq9Pphe/uN+kCRgfsgsp99OmzTU8P29csj7Hekqp+rOA61GMxBYBVkadYeJfKf5+gdgB1A0gX/IvrL1vYrqcXOOR/NV33dl+qmoV/HbHoAOT7hXEKQ1W/Jn580DgEdk8jecB2Pd08OhLZvmo9EncsVU21sx5wGmBOaMzNY8OY3jQYJUgHTtfTD/r6oejHFNwJLKCC60gKWxGA3AWAPn+cbtEVQpc/7ov8wImdUWG7XhrwxD/LZeb9+2PNAcAReUSDvHKqzJ4logVwCJA+wD9p7PzAdr10QGX/uxtcC+e5JlXNHOMA6ADkwljxn5SwKWriFrSL4qTPyv00+PQWJbvnw81/BKwBIOnxkOt9EBypmxY87a+Cm/9I6ACQ9GBHQTdQuY9NH0JOJA2Q20cbn03xnj4w5+8AOgCE5AQ2/bd2RF56g481FXDSh5gWN/0unJyKuVU1wyIOoA5ATuRWBLgIm9rmi2G7Xnpg08dJn62wfWCfv2MYASDpsX6VDgDb9dKDstlj4Fx/D1AKOCdOB/UYOAVC/MTeXHO266UIJ2m6gGN9PWFxGmC+R0crxXHYAN8yYg/QrsfpeukA7Qq07GEKH37QrsrNfygnk2I/bv6esJgCyNcBQHuclYpvDKJBGgCywrnBdr20wKaPfD5VLF1SSVVz7rhn6ADkBCIACI9bOSW+fa+pes9BIAUbPtv10gHr7C+bbEn1w3WpanpTAbBXAyCndQAovc1zl7S4kaCiejuxwwJH6qYHe/R9cyRVzYE+AbHqAEBHNt9d0ko74CwfbelOCaBdD7ULHKmbDmzXCwVP/RGw6gDkPRTIejhZkyOAdj1s+uzRT4cfHzSbPov3QnBfqnoz/6+pE5sOgGSeBgCoHLdeRBbLkLNdLz2+3GXFfliOT+f3U9EvKpYdgLzTAGgf++ArBReiBIRyYeB9FW29vNmc9K07XamAyn0Uj3KqZGjQ2ndVqpqFFAqw6wBI5rLAAEpx1ISfDzYAtG3BIUD7ZNccL0L6UCLEKZ+5/LTAM4cSX46to2mwJVXNm68I6w4A+sfyLsP+/DFD0cQubNfTADd+pVh3AC6IyM8KrsQfqDz/7J+5fjtCnobtelrgxq8c2w6AGIkCIFy9m2/TAyFs11MFN/5EoAMgp04AKlHzrt5iUSDJDbbraYLFfQlCB0BOHQD0od5TcCV+QaX62/l/TZIxbNfTxtFk4+cDSRA6AC1lARWq/Mu6mQ4gqYGRumzX0wbD/BlAB6DFQkFgCwsDiWbQrocNP4chT3lRicgGT/v5QAdgGiupAJkMo0GLIIVriAbQrocefY7U1cbJZNNnH2WG0AGYpSwQ1rKjnvPhPgVtSBzQrodNnz362sCmf5Mh/vyhAzCP3OcEzMIOARIKtutpBZv+balq5l0MQQdgHpbqAVqQEvj7IVUDiXvYrqeV48lJn3kXo9ABWERZrInIQ50X5xG2ChIXsF1PK0eTTZ95F0IHYCllsSEiNmPjdw9Frjyv4EJIMrBdTyuo3t+UqmbehZyDDsAqLHUGzILJd387YKcAmQ/b9TTzYLLpMwRDFkIHoAuWnQCheBCZAps+8vls19PI7qSQj5s+6QQdgK5YdwKE9QFm4UhdzdyRqmbehQyCDkAf6AQ0wBF4a4epgZxBux569DlSVxts1yPOoAPQl7K4KiKMh8ukRuAv+2wdzAW062HTZ4++Nk4m+XzmXYhT6AAMwWqL4CKgIYCIwEt2BBSzge16WjmebPrMuxBv0AEYSiMWhKMS4+DToGAQUQGmB/SCdj1U7nPT10Y16dFn3oUEgQ7AWMoCi5UN8/N49abI1m06A7Fhu55mHkw2feZdSHDoALigLFCF+376X8QjdAbCwnY9zbBdj6iADoArWBzYHaQJUDNApUG3sF1PM2zXI+qgA+CSpi7g0NQkwbGggBDRAfwwOtAPnPIR1mc+XyNs1yPqoQPgA6YExgGdAaQL2F54nnbD/3aPrXo6YbseSQo6AL4oi0uTaACPtWN57lLjFODHklOAvvzv9pjH1w3b9Uiy0AHwTVkgBLid95eMBISI4BSgpiDlegJs9D/uizw84Mk+DY4mmz7b9UjS0AEIATUDwoOowe/WGicBDgL+PUaNAQrz/nHYSOpig2eBXqpwpC7JDjoAIeEsgXSA0zAPFNtRH98K9yc9+qywJFlCByAGZbEnItTNJUQfd0Rkh5s+sQAdgFg0aYEDqggSEpWTyYbPHn1iDjoAsWkGCx2wPoCQYJxMQvt7vOXEMnQAtFAWGyLylfXbQIgn2K5HyAx0ALTBQkFCXMF2PUKWQAdAK3QECBkC2/UI6QgdAO2wRoCQVTyYbPqs3CekB3QAUqFxBPbYNUDIKRypS8hI6ACkRtM+uEMdAWIMtusR4hg6ACnT1AnsMD1AMoUjdQnxCB2AHGiiAhgZV1q/FSR5jic9+hyBSIhn6ADkRllcnTgDjAqQVDiabPrs0SckIHQAcqYsborIx9ZvA1EJ2/UIiQwdACuUBYqn3rd+G0hU2K5HiCLoAFiEzgAJB9v1CFEKHQDrsJOAuOcO2/UI0Q8dAHJGWVyaiA2xm4D0gdP1CEkQOgBkMU10ACe53/IukRkeTDZ9FvERkih0AEh36BBYhv35hGQGHQAynMYh2GTKIEuq03QQw/qEZAsdAOKOpoagdQoYJUiHk4l41G2G9AmxAx0A4pfGKdiYOAWcZBifdrPfo/IeIbahA0Di0Iw33pw4B4wW+OFo0tWxz5M9IWQWOgBEF81gIzgFVyc/dA6Wg+K8g8mp/oCCO4SQrtABIGnROAhwDNam/pmziBGK8Q4nPwc8yRNCXEEHgORLU39waeIkXJj656VIkYVq8k9s5k8mJ3dhLp4QEgM6AIQQQohB/osPnRBCCLEHHQBCCCHEIHQACCGEEIPQASCEEEIMQgeAEEIIMQgdAEIIIcQgdAAIIYQQg9ABIIQQQgxCB4AQQggxCB0AQgghxBoi8v8BZtb5VNSbx9QAAAAASUVORK5CYII=;" parent="1" vertex="1">
                    <mxGeometry x="-600" y="-1040" width="40" height="40" as="geometry"/>
                </mxCell>
                <mxCell id="Y93IXhU7RU3gVVPv7BcZ-5" value="User" style="shape=actor;whiteSpace=wrap;html=1;labelPosition=center;verticalLabelPosition=bottom;align=center;verticalAlign=top;" parent="1" vertex="1">
                    <mxGeometry x="-800" y="-1040" width="40" height="40" as="geometry"/>
                </mxCell>
                <mxCell id="Y93IXhU7RU3gVVPv7BcZ-6" style="edgeStyle=orthogonalEdgeStyle;rounded=0;orthogonalLoop=1;jettySize=auto;html=1;entryX=0.9;entryY=0.5;entryDx=0;entryDy=0;entryPerimeter=0;startArrow=none;startFill=0;endArrow=none;endFill=0;" parent="1" source="Y93IXhU7RU3gVVPv7BcZ-1" target="Y93IXhU7RU3gVVPv7BcZ-5" edge="1">
                    <mxGeometry relative="1" as="geometry"/>
                </mxCell>
                <mxCell id="Y93IXhU7RU3gVVPv7BcZ-8" value="&lt;div&gt;aaronjayoliver.com&lt;/div&gt;" style="text;html=1;align=center;verticalAlign=middle;resizable=0;points=[];autosize=1;strokeColor=none;fillColor=none;" parent="1" vertex="1">
                    <mxGeometry x="-680" y="-1110" width="130" height="30" as="geometry"/>
                </mxCell>
                <mxCell id="Y93IXhU7RU3gVVPv7BcZ-13" style="edgeStyle=orthogonalEdgeStyle;rounded=0;orthogonalLoop=1;jettySize=auto;html=1;entryX=0;entryY=0.5;entryDx=0;entryDy=0;entryPerimeter=0;startArrow=none;startFill=0;exitX=1;exitY=0.5;exitDx=0;exitDy=0;endArrow=none;endFill=0;" parent="1" source="Y93IXhU7RU3gVVPv7BcZ-3" target="Y93IXhU7RU3gVVPv7BcZ-11" edge="1">
                    <mxGeometry relative="1" as="geometry"/>
                </mxCell>
                <mxCell id="Y93IXhU7RU3gVVPv7BcZ-11" value="&lt;div&gt;&lt;font color=&quot;#ffffff&quot;&gt;API Gateway&lt;/font&gt;&lt;/div&gt;" style="sketch=0;points=[[0,0,0],[0.25,0,0],[0.5,0,0],[0.75,0,0],[1,0,0],[0,1,0],[0.25,1,0],[0.5,1,0],[0.75,1,0],[1,1,0],[0,0.25,0],[0,0.5,0],[0,0.75,0],[1,0.25,0],[1,0.5,0],[1,0.75,0]];outlineConnect=0;fontColor=#3E3E3E;fillColor=#E7157B;strokeColor=#ffffff;dashed=0;verticalLabelPosition=bottom;verticalAlign=top;align=center;html=1;fontSize=12;fontStyle=0;aspect=fixed;shape=mxgraph.aws4.resourceIcon;resIcon=mxgraph.aws4.api_gateway;movable=1;resizable=1;rotatable=1;deletable=1;editable=1;locked=0;connectable=1;" parent="1" vertex="1">
                    <mxGeometry x="-440" y="-1040" width="40" height="40" as="geometry"/>
                </mxCell>
                <mxCell id="6" style="edgeStyle=none;html=1;entryX=0;entryY=0.5;entryDx=0;entryDy=0;entryPerimeter=0;" edge="1" parent="1" source="Y93IXhU7RU3gVVPv7BcZ-15" target="5">
                    <mxGeometry relative="1" as="geometry"/>
                </mxCell>
                <mxCell id="Y93IXhU7RU3gVVPv7BcZ-15" value="&lt;font color=&quot;#ffffff&quot;&gt;Lambda&lt;/font&gt;" style="sketch=0;points=[[0,0,0],[0.25,0,0],[0.5,0,0],[0.75,0,0],[1,0,0],[0,1,0],[0.25,1,0],[0.5,1,0],[0.75,1,0],[1,1,0],[0,0.25,0],[0,0.5,0],[0,0.75,0],[1,0.25,0],[1,0.5,0],[1,0.75,0]];outlineConnect=0;fontColor=#232F3E;fillColor=#ED7100;strokeColor=#ffffff;dashed=0;verticalLabelPosition=bottom;verticalAlign=top;align=center;html=1;fontSize=12;fontStyle=0;aspect=fixed;shape=mxgraph.aws4.resourceIcon;resIcon=mxgraph.aws4.lambda;" parent="1" vertex="1">
                    <mxGeometry x="-360" y="-1040" width="40" height="40" as="geometry"/>
                </mxCell>
                <mxCell id="Y93IXhU7RU3gVVPv7BcZ-19" style="edgeStyle=orthogonalEdgeStyle;rounded=0;orthogonalLoop=1;jettySize=auto;html=1;entryX=0;entryY=0.5;entryDx=0;entryDy=0;entryPerimeter=0;endArrow=none;endFill=0;" parent="1" source="Y93IXhU7RU3gVVPv7BcZ-11" target="Y93IXhU7RU3gVVPv7BcZ-15" edge="1">
                    <mxGeometry relative="1" as="geometry"/>
                </mxCell>
                <mxCell id="5" value="&lt;font color=&quot;#ffffff&quot;&gt;PostgreSQL&lt;/font&gt;" style="sketch=0;points=[[0,0,0],[0.25,0,0],[0.5,0,0],[0.75,0,0],[1,0,0],[0,1,0],[0.25,1,0],[0.5,1,0],[0.75,1,0],[1,1,0],[0,0.25,0],[0,0.5,0],[0,0.75,0],[1,0.25,0],[1,0.5,0],[1,0.75,0]];outlineConnect=0;fontColor=#232F3E;gradientColor=#4D72F3;gradientDirection=north;fillColor=#3334B9;strokeColor=#ffffff;dashed=0;verticalLabelPosition=bottom;verticalAlign=top;align=center;html=1;fontSize=12;fontStyle=0;aspect=fixed;shape=mxgraph.aws4.resourceIcon;resIcon=mxgraph.aws4.rds;" vertex="1" parent="1">
                    <mxGeometry x="-280" y="-1040" width="40" height="40" as="geometry"/>
                </mxCell>
            </root>
        </mxGraphModel>
    </diagram>
</mxfile>